<svg width="62" height="62" viewBox="0 0 62 62" fill="none" xmlns="http://www.w3.org/2000/svg">
<path fill-rule="evenodd" clip-rule="evenodd" d="M45.163 52.5909L25.0505 30.6904C23.6218 29.2616 19.7636 30.0909 18.0022 30.1189C15.386 30.1989 14.205 29.155 12.6848 27.4621C11.1075 25.5127 9.59498 23.0083 8.79109 20.8913C8.20056 19.9032 8.59806 18.5698 9.99248 19.3432C11.3234 20.1458 13.0264 21.5174 15.0876 22.6502C16.3207 23.4325 17.2288 23.134 18.1508 22.5105C18.5597 22.2108 18.9343 21.8209 19.2823 21.3612C19.4423 21.0564 19.6353 20.7656 19.8614 20.4925C20.3389 19.6924 20.7669 18.7577 21.1745 17.7507C21.6279 16.642 21.8794 15.4723 21.2952 14.6519C20.1586 13.0696 16.6331 11.5354 14.9784 10.2578C14.3396 9.6889 14.5758 8.82913 15.4025 8.70848C16.289 8.4837 17.8815 8.48116 19.3407 8.36432C23.3436 8.23225 25.4683 9.57968 27.5155 11.6751C28.5975 12.9311 29.136 15.1294 28.8706 17.2058C28.6686 20.65 28.7131 22.9524 29.7176 24.2135L52.7726 44.9076C54.7487 46.9015 54.7487 50.1412 52.7739 52.135L52.3218 52.5897C50.347 54.5835 47.139 54.5848 45.163 52.5909ZM50.413 50.2428C51.7147 48.9411 51.7147 46.8291 50.413 45.5274C49.1113 44.2257 46.9981 44.2257 45.6964 45.5274C44.3946 46.8291 44.3946 48.9411 45.6964 50.2428C46.9981 51.5445 49.1113 51.5445 50.413 50.2428Z" fill="#5B5B5B"/>
</svg>
