<svg width="62" height="62" viewBox="0 0 62 62" fill="none" xmlns="http://www.w3.org/2000/svg">
<path d="M17.0095 21.9556V30.6763C17.0097 30.8085 17.0622 30.9353 17.1558 31.0288C17.2493 31.1223 17.3761 31.1749 17.5083 31.1751H18.9916V21.4568H17.5083C17.3761 21.4569 17.2493 21.5095 17.1558 21.603C17.0622 21.6965 17.0097 21.8233 17.0095 21.9556Z" fill="#5B5B5B"/>
<path d="M39.2554 19.5232H23.0715C22.7875 19.5241 22.5153 19.6373 22.3145 19.8383C22.1136 20.0392 22.0005 20.3114 21.9998 20.5955V27.7861C22.0006 28.0701 22.1139 28.3423 22.3148 28.5432C22.5157 28.744 22.7879 28.8572 23.072 28.8579H39.2554C39.5395 28.8571 39.8118 28.7439 40.0127 28.543C40.2136 28.3421 40.3268 28.0698 40.3276 27.7856V20.5951C40.3267 20.311 40.2135 20.0388 40.0126 19.838C39.8117 19.6371 39.5395 19.524 39.2554 19.5232ZM23.9734 22.1647H23.4262C23.3304 22.1647 23.2385 22.1267 23.1707 22.0589C23.1029 21.9911 23.0648 21.8992 23.0648 21.8033C23.0648 21.7075 23.1029 21.6155 23.1707 21.5477C23.2385 21.48 23.3304 21.4419 23.4262 21.4419H23.9734C24.0692 21.4419 24.1612 21.48 24.229 21.5477C24.2967 21.6155 24.3348 21.7075 24.3348 21.8033C24.3348 21.8992 24.2967 21.9911 24.229 22.0589C24.1612 22.1267 24.0692 22.1647 23.9734 22.1647ZM31.6665 22.1647H25.816C25.7201 22.1647 25.6282 22.1267 25.5604 22.0589C25.4926 21.9911 25.4545 21.8992 25.4545 21.8033C25.4545 21.7075 25.4926 21.6155 25.5604 21.5477C25.6282 21.48 25.7201 21.4419 25.816 21.4419H31.6665C31.7624 21.4419 31.8543 21.48 31.9221 21.5477C31.9899 21.6155 32.0279 21.7075 32.0279 21.8033C32.0279 21.8992 31.9899 21.9911 31.9221 22.0589C31.8543 22.1267 31.7624 22.1647 31.6665 22.1647Z" fill="#5B5B5B"/>
<path d="M38.8221 14.3757H23.5213C22.5156 14.3786 21.5519 14.7794 20.8408 15.4905C20.1297 16.2017 19.729 17.1655 19.7263 18.1712V36.6154C19.7263 42.9266 24.8608 48.0611 31.172 48.0611C37.4831 48.0611 42.6176 42.9266 42.6176 36.6154V18.1708C42.6148 17.165 42.214 16.2013 41.5028 15.4902C40.7916 14.7791 39.8278 14.3784 38.8221 14.3757ZM41.0587 27.786C41.0576 28.2615 40.8682 28.7172 40.532 29.0535C40.1957 29.3898 39.7401 29.5794 39.2645 29.5807H23.0797C22.6041 29.5795 22.1484 29.3901 21.8121 29.0538C21.4758 28.7176 21.2863 28.2619 21.285 27.7864V20.5949C21.2862 20.1194 21.4756 19.6637 21.8118 19.3274C22.148 18.9911 22.6037 18.8016 23.0792 18.8002H39.2641C39.7396 18.8014 40.1953 18.9909 40.5316 19.3271C40.8679 19.6633 41.0574 20.119 41.0587 20.5945V27.786Z" fill="#5B5B5B"/>
<path d="M44.819 21.4567H43.3357V31.1752H44.819C44.9512 31.175 45.078 31.1224 45.1715 31.0289C45.2651 30.9354 45.3176 30.8086 45.3178 30.6764V21.9554C45.3176 21.8232 45.2651 21.6964 45.1715 21.6029C45.078 21.5094 44.9512 21.4568 44.819 21.4567Z" fill="#5B5B5B"/>
</svg>
