<svg width="61" height="61" viewBox="0 0 61 61" fill="none" xmlns="http://www.w3.org/2000/svg">
<path d="M41.0186 48.3391H35.2621C32.7499 48.3391 30.7081 46.2972 30.7081 43.7851V42.023C30.7676 41.9992 32.6726 41.9992 32.6726 40.1359V39.112C32.7678 39.0941 33.5774 39.237 34.2501 38.5048C37.5718 34.552 39.3696 33.8377 39.3696 31.4446V24.8487C40.2388 24.6344 40.8877 23.8605 40.8877 22.9318C40.8877 21.8424 40.0007 20.9554 38.9113 20.9554H37.8635V13.7583C37.8635 12.4724 36.8218 11.4307 35.5419 11.4307C34.256 11.4307 33.2143 12.4724 33.2143 13.7583V20.9554H27.0053V13.7583C27.0053 12.4724 25.9636 11.4307 24.6837 11.4307C23.3978 11.4307 22.356 12.4724 22.356 13.7583V20.9554H21.3143C20.2249 20.9554 19.3379 21.8424 19.3379 22.9318C19.3379 23.8605 19.9868 24.6344 20.8499 24.8487V31.4446C20.8499 33.8436 22.6954 34.6056 25.9695 38.5048C26.6303 39.2251 27.4756 39.1001 27.553 39.112V40.1359C27.553 42.0051 29.4579 41.9992 29.5175 42.023V43.7851C29.5175 46.9521 32.0951 49.5297 35.2621 49.5297H41.0186C41.346 49.5297 41.6139 49.2618 41.6139 48.9344C41.6139 48.607 41.346 48.3391 41.0186 48.3391ZM34.4049 13.7583C34.4049 13.1332 34.9168 12.6213 35.5419 12.6213C36.1669 12.6213 36.6729 13.1332 36.6729 13.7583V20.9554H34.4049V13.7583ZM23.5466 13.7583C23.5466 13.1332 24.0586 12.6213 24.6837 12.6213C25.3087 12.6213 25.8147 13.1332 25.8147 13.7583V20.9554H23.5466V13.7583ZM20.5285 22.9318C20.5285 22.4972 20.8797 22.146 21.3143 22.146H38.9113C39.3399 22.146 39.6971 22.4972 39.6971 22.9318C39.6971 23.3604 39.3399 23.7176 38.9113 23.7176H21.3143C20.8797 23.7176 20.5285 23.3604 20.5285 22.9318ZM29.4341 40.8324C29.0531 40.8324 28.7436 40.5228 28.7436 40.1359V39.112H31.482V40.1359C31.482 40.5228 31.1724 40.8324 30.7914 40.8324H29.4341Z" fill="#5B5B5B"/>
</svg>
