<svg width="48" height="49" viewBox="0 0 48 49" fill="none" xmlns="http://www.w3.org/2000/svg">
<g clip-path="url(#clip0_2956_24069)">
<path d="M21.8074 24.1152C21.0023 24.9203 21.0023 26.2303 21.8074 27.0354C22.6124 27.8405 23.9224 27.8406 24.7277 27.0354C25.5327 26.2303 25.5327 24.9203 24.7277 24.1152C23.9224 23.3101 22.6125 23.3101 21.8074 24.1152ZM23.7334 25.1095C23.9902 25.3663 23.9902 25.7843 23.7334 26.0411C23.4765 26.2979 23.0586 26.2979 22.8017 26.0411C22.5449 25.7842 22.5449 25.3663 22.8017 25.1095C23.0586 24.8526 23.4764 24.8526 23.7334 25.1095Z" fill="#1A202C"/>
<path d="M12.5657 48.8474C13.2834 48.8474 13.876 48.6352 14.3079 48.2032C14.4501 48.0611 14.059 48.5561 20.3291 40.3697V40.4483C20.3291 41.066 21.0223 41.433 21.5327 41.0846L23.158 39.9772C23.2244 39.9319 23.3103 39.9319 23.3768 39.9772L25.0016 41.0844C25.5123 41.433 26.2056 41.0664 26.2056 40.4484V38.5966L27.0007 40.2686C27.265 40.8253 28.0477 40.8618 28.3611 40.3266L29.3532 38.6285C29.3938 38.559 29.4709 38.522 29.5509 38.5346L31.4945 38.8369C32.1052 38.9308 32.5731 38.3035 32.3079 37.7452L28.9177 30.6158C29.1605 30.2679 29.4857 29.9886 29.8721 29.7985L30.6361 29.4228C31.148 29.1711 31.3759 28.5734 31.1765 28.0498C33.0922 26.2629 35.1116 24.5543 37.1874 22.9645C47.9309 14.7359 47.2135 15.2973 47.3564 15.1545C48.2615 14.2495 48.2022 12.62 47.1946 10.5501C47.264 10.0527 47.1725 9.38087 46.7638 8.47765C46.6037 8.12396 46.1873 7.96694 45.8334 8.12696C45.4796 8.28707 45.3226 8.70357 45.4827 9.05736C45.9182 10.0196 45.814 10.4384 45.7426 10.5096C45.7392 10.5131 45.7353 10.5164 45.7307 10.5197C44.8794 11.1408 42.8827 10.6654 40.5245 9.31243L40.8343 9.00271C41.1988 8.63795 41.2027 8.03941 40.8426 7.66809C39.8282 6.62333 39.0288 5.51482 38.5916 4.54674C38.1585 3.58766 38.2626 3.17013 38.3332 3.09954C38.3446 3.0882 38.3584 3.07817 38.3747 3.06945C38.4074 3.06111 38.4394 3.05042 38.4706 3.03749C39.0357 2.92996 40.8991 3.6036 43.069 5.77355C43.2986 6.00322 43.5213 6.24011 43.7311 6.47775C43.988 6.76882 44.4323 6.79647 44.7235 6.53952C45.0146 6.28258 45.0422 5.83823 44.7852 5.54716C44.5563 5.28787 44.3134 5.02961 44.0633 4.77941C42.1854 2.901 39.8387 1.45436 38.3003 1.65169C36.2267 0.640672 34.5945 0.579833 33.6884 1.48614C33.6167 1.55785 33.5464 1.63875 33.4804 1.72977C25.3006 12.4096 25.4059 12.292 24.3884 13.5419C24.0116 14.0048 24.3496 14.6889 24.9333 14.6889C25.1375 14.6889 25.34 14.6004 25.479 14.4297C26.5225 13.1478 26.5078 13.1459 33.2083 4.3975C33.3135 4.80838 33.4593 5.2096 33.6243 5.59638C34.7558 8.24883 37.1924 10.9861 39.4377 12.8186C30.7062 19.5061 29.3009 20.5142 26.686 22.7913C25.8842 21.8084 24.7108 21.2225 23.443 21.1725C22.8239 20.3957 22.2451 19.5797 21.716 18.7378C22.2339 18.1848 22.7473 17.6213 23.2469 17.0573C23.5045 16.7667 23.4775 16.3223 23.1869 16.0648C22.8963 15.8073 22.4519 15.8342 22.1945 16.1248C21.7367 16.6416 21.267 17.158 20.7931 17.666C20.2674 17.4657 19.6708 17.6968 19.4202 18.2065L19.0445 18.9705C18.7608 19.5473 18.2734 19.9903 17.6723 20.2181L17.2131 20.3921C16.6265 20.6141 16.3494 21.2798 16.5944 21.8488C14.7478 23.5583 12.8037 25.1969 10.8089 26.7249C0.13478 34.9001 0.779636 34.3948 0.639678 34.5348C-0.21788 35.3923 -0.206912 36.9287 0.670613 38.8609C2.74833 43.4362 8.93431 48.8474 12.5657 48.8474ZM24.1687 38.8151C23.6213 38.442 22.9136 38.4421 22.3662 38.8151L21.7352 39.245V35.2314C21.7352 34.8432 21.4205 34.5284 21.0322 34.5284C20.6439 34.5284 20.3291 34.8432 20.3291 35.2314V38.057C12.9003 47.7564 13.3545 47.1681 13.3137 47.2088C12.7937 47.7287 11.0404 47.4008 8.7158 45.8454L20.3291 30.6824V31.9504C20.3291 32.3387 20.6439 32.6535 21.0322 32.6535C21.4205 32.6535 21.7352 32.3387 21.7352 31.9504V29.7087C22.6827 30.0582 23.773 30.0875 24.7996 29.7087V39.245L24.1687 38.8151ZM29.7672 37.1451C29.1122 37.043 28.4735 37.3472 28.1393 37.9191L27.7542 38.5783L26.2058 35.3223V28.8619C26.2843 28.7917 26.3568 28.722 26.4263 28.6505L30.5216 37.2625L29.7672 37.1451ZM28.2595 29.2311L27.3324 27.2816C27.3714 27.1883 27.4071 27.0939 27.4394 26.9987C28.1072 27.4998 28.7988 27.9723 29.5069 28.4111C29.0884 28.617 28.7221 28.7859 28.2595 29.2311ZM46.2488 11.8919C46.7296 13.1434 46.6373 13.8852 46.3624 14.1601C46.0205 14.5021 45.078 14.5023 43.6535 13.8624L46.2488 11.8919ZM39.5264 8.32213L39.2982 8.55021C38.234 7.83927 37.1505 6.99155 36.0953 6.04616L37.1293 4.68436C37.562 5.85876 38.4714 7.17463 39.5264 8.32213ZM36.9508 2.59408L35.0627 5.08079C34.9892 5.00908 34.9159 4.93699 34.8429 4.86444C34.3922 3.7384 34.3288 2.83416 34.6826 2.48037C34.9575 2.20561 35.6992 2.11318 36.9508 2.59408ZM37.5719 9.05727C39.2806 10.3084 41.5854 11.6928 43.6753 12.0804L42.289 13.133C40.5729 12.0815 38.8944 10.5754 37.5719 9.05727ZM40.5979 13.7011C41.7178 14.4912 43.1258 15.3 44.4425 15.6367L36.3327 21.8481C34.1801 23.4967 32.0872 25.2707 30.105 27.1268C29.2633 26.5978 28.4473 26.0191 27.6704 25.4C27.6521 24.9368 27.5614 24.476 27.3982 24.0362C30.1013 21.6656 31.3746 20.7652 40.5979 13.7011ZM25.3904 27.6983C24.2199 28.8688 22.315 28.8688 21.1445 27.6983C19.9739 26.5276 19.9739 24.623 21.1445 23.4523C22.315 22.2817 24.2198 22.2816 25.3904 23.4523C26.5611 24.623 26.5611 26.5277 25.3904 27.6983ZM18.1704 21.5329C19.106 21.1785 19.8645 20.4888 20.3061 19.5909L20.4317 19.3358C20.8706 20.044 21.343 20.7356 21.8441 21.4034C20.7305 21.7812 19.8563 22.5766 19.3552 23.5426C18.8886 22.8984 18.4619 22.25 18.0582 21.5754L18.1704 21.5329ZM1.63391 35.5292C1.67478 35.4884 1.03227 35.9839 11.6637 27.8411C13.6163 26.3457 15.521 24.7459 17.3356 23.0779C17.8137 23.8213 18.3287 24.5449 18.8738 25.2389C18.7812 26.4602 19.1938 27.713 20.1117 28.6536L7.57823 45.0181C6.90244 44.4877 6.23649 43.8952 5.59201 43.2508C2.02716 39.6858 0.866629 36.2964 1.63391 35.5292Z" fill="#1A202C"/>
</g>
<defs>
<clipPath id="clip0_2956_24069">
<rect width="48" height="48" fill="white" transform="translate(0 0.847412)"/>
</clipPath>
</defs>
</svg>
