<svg width="48" height="49" viewBox="0 0 48 49" fill="none" xmlns="http://www.w3.org/2000/svg">
<g clip-path="url(#clip0_2956_24112)">
<path d="M44 4.04736H4C1.79196 4.05001 0.0026449 5.83932 0 8.04736V36.8474C0.0026449 39.0554 1.79196 40.8447 4 40.8474H28V44.8474C28.0001 45.1709 28.195 45.4625 28.4939 45.5863C28.7928 45.7101 29.1368 45.6417 29.3656 45.413L32 42.7786L34.6344 45.413C34.8632 45.6417 35.2072 45.7101 35.5061 45.5863C35.805 45.4625 35.9999 45.1709 36 44.8474V40.8474H44C46.208 40.8447 47.9974 39.0554 48 36.8474V8.04736C47.9974 5.83932 46.208 4.05001 44 4.04736ZM25.848 19.6994C25.7243 19.6423 25.6355 19.5295 25.6089 19.396C25.5823 19.2624 25.6212 19.1242 25.7136 19.0242C26.4294 18.2462 26.4294 17.0494 25.7136 16.2714C25.6209 16.1712 25.5819 16.0327 25.6087 15.8989C25.6354 15.765 25.7247 15.6522 25.8488 15.5954C26.8071 15.1494 27.2645 14.0441 26.9016 13.0514C26.8544 12.9236 26.8712 12.7808 26.9468 12.6675C27.0225 12.5542 27.1478 12.4839 27.284 12.4786C28.3405 12.4342 29.1868 11.5878 29.2312 10.5314C29.2365 10.395 29.3069 10.2695 29.4204 10.1938C29.5339 10.1181 29.6769 10.1014 29.8048 10.149C30.7977 10.5097 31.9017 10.0525 32.3488 9.09536C32.4054 8.97146 32.518 8.88228 32.6516 8.85566C32.7852 8.82904 32.9234 8.86822 33.0232 8.96096C33.8015 9.6769 34.9985 9.6769 35.7768 8.96096C35.8768 8.86828 36.0152 8.82924 36.149 8.85601C36.2827 8.88278 36.3954 8.97211 36.452 9.09616C36.8982 10.0538 38.0027 10.511 38.9952 10.149C39.1231 10.1014 39.2661 10.1181 39.3796 10.1938C39.4931 10.2695 39.5635 10.395 39.5688 10.5314C39.6137 11.5893 40.462 12.4362 41.52 12.4794C41.6561 12.4845 41.7815 12.5545 41.8572 12.6678C41.9329 12.781 41.9497 12.9236 41.9024 13.0514C41.5392 14.0443 41.9971 15.15 42.956 15.5954C43.0797 15.6524 43.1686 15.7652 43.1951 15.8987C43.2217 16.0323 43.1828 16.1705 43.0904 16.2706C42.3746 17.0486 42.3746 18.2454 43.0904 19.0234C43.1831 19.1235 43.2221 19.2621 43.1953 19.3959C43.1686 19.5297 43.0793 19.6425 42.9552 19.6994C41.9969 20.1453 41.5395 21.2506 41.9024 22.2434C41.9496 22.3712 41.9328 22.5139 41.8572 22.6272C41.7815 22.7405 41.6562 22.8108 41.52 22.8162C40.4605 22.8587 39.6113 23.7079 39.5688 24.7674C39.5635 24.9037 39.4931 25.0293 39.3796 25.105C39.2661 25.1807 39.1231 25.1973 38.9952 25.1498C38.0023 24.7886 36.898 25.2459 36.4512 26.2034C36.3967 26.3284 36.2837 26.4184 36.1496 26.4434C36.0157 26.4714 35.8765 26.4322 35.7768 26.3386C34.9984 25.623 33.8016 25.623 33.0232 26.3386C32.9234 26.4321 32.7843 26.4712 32.6504 26.4434C32.5161 26.4183 32.4029 26.3285 32.348 26.2034C31.9021 25.2455 30.7973 24.7881 29.8048 25.1506C29.6769 25.1981 29.5339 25.1815 29.4204 25.1058C29.3069 25.0301 29.2365 24.9045 29.2312 24.7682C29.1887 23.7084 28.3398 22.8587 27.28 22.8154C27.1439 22.8102 27.0185 22.7402 26.9428 22.627C26.8671 22.5137 26.8503 22.3711 26.8976 22.2434C27.2614 21.2515 26.8054 20.1462 25.848 19.6994ZM34.6352 34.681L34.4 34.9162V27.3962C34.5071 27.3959 34.6103 27.4362 34.6888 27.509C35.0595 27.8565 35.5487 28.0498 36.0568 28.0498C36.1927 28.0495 36.3283 28.0361 36.4616 28.0098C37.0982 27.8855 37.635 27.4602 37.9016 26.869C37.9953 26.6673 38.2281 26.5712 38.4368 26.6482C38.6802 26.7344 38.938 26.7732 39.196 26.7626V34.9162L37.3616 33.0818C37.0492 32.7695 36.5428 32.7695 36.2304 33.0818L34.6352 34.681ZM34.4 42.9162L32.5656 41.0818C32.2532 40.7695 31.7468 40.7695 31.4344 41.0818L29.6 42.9162V26.761C29.8581 26.7717 30.1158 26.7329 30.3592 26.6466C30.5675 26.5692 30.8002 26.665 30.8936 26.8666C31.161 27.4594 31.6998 27.8851 32.3384 28.0082C32.4903 28.0382 32.6452 28.0514 32.8 28.0474V36.8474C32.8001 37.1709 32.995 37.4625 33.2939 37.5863C33.5928 37.7101 33.9368 37.6417 34.1656 37.413L34.4 37.1786V42.9162ZM46.4 36.8474C46.4 38.1728 45.3255 39.2474 44 39.2474H36V35.5786L36.8 34.7786L39.4344 37.413C39.6632 37.6417 40.0072 37.7101 40.3061 37.5863C40.605 37.4625 40.7999 37.1709 40.8 36.8474V25.893C41.0233 25.5795 41.1508 25.2079 41.1672 24.8234C41.177 24.6015 41.3549 24.4239 41.5768 24.4146C42.2254 24.3896 42.8227 24.0553 43.1832 23.5156C43.5437 22.9758 43.6237 22.296 43.3984 21.6874C43.322 21.4791 43.418 21.2471 43.6192 21.1538C44.2093 20.8827 44.6336 20.3451 44.7603 19.7083C44.8869 19.0714 44.7006 18.4124 44.2592 17.9362C44.1088 17.7727 44.1088 17.5212 44.2592 17.3578C44.7006 16.8817 44.887 16.2228 44.7603 15.586C44.6336 14.9492 44.2092 14.4118 43.6192 14.141C43.4174 14.0482 43.3209 13.8158 43.3976 13.6074C43.6229 12.9987 43.5429 12.3189 43.1824 11.7792C42.8219 11.2395 42.2246 10.9052 41.576 10.8802C41.3541 10.8708 41.1762 10.6933 41.1664 10.4714C41.1421 9.82258 40.8083 9.22477 40.2686 8.86386C39.7289 8.50296 39.0489 8.42275 38.44 8.64816C38.2317 8.7268 37.9981 8.63064 37.9056 8.42816C37.6345 7.83811 37.097 7.41378 36.4601 7.2871C35.8232 7.16042 35.1642 7.34675 34.688 7.78816C34.5248 7.93842 34.2736 7.93842 34.1104 7.78816C33.6343 7.34674 32.9754 7.1604 32.3386 7.28709C31.7019 7.41377 31.1645 7.83813 30.8936 8.42816C30.8007 8.63076 30.5671 8.72715 30.3584 8.64896C29.7495 8.42355 29.0695 8.50376 28.5298 8.86466C27.9901 9.22556 27.6563 9.82338 27.632 10.4722C27.6222 10.6941 27.4443 10.8716 27.2224 10.881C26.5738 10.906 25.9765 11.2403 25.616 11.78C25.2555 12.3197 25.1755 12.9995 25.4008 13.6082C25.4772 13.8164 25.3812 14.0484 25.18 14.1418C24.5899 14.4128 24.1656 14.9504 24.0389 15.5872C23.9123 16.2241 24.0986 16.8831 24.54 17.3594C24.6904 17.5228 24.6904 17.7743 24.54 17.9378C24.0986 18.4139 23.9122 19.0728 24.0389 19.7095C24.1656 20.3463 24.59 20.8837 25.18 21.1546C25.3818 21.2474 25.4783 21.4797 25.4016 21.6882C25.1763 22.2969 25.2563 22.9766 25.6168 23.5163C25.9773 24.0561 26.5746 24.3904 27.2232 24.4154C27.4451 24.4247 27.623 24.6023 27.6328 24.8242C27.6493 25.2084 27.7769 25.5797 28 25.893V39.2474H4C2.67452 39.2474 1.6 38.1728 1.6 36.8474V8.04736C1.6 6.72188 2.67452 5.64736 4 5.64736H44C45.3255 5.64736 46.4 6.72188 46.4 8.04736V36.8474Z" fill="#1A202C"/>
<path d="M8.80005 32.8474C7.47457 32.8474 6.40005 31.7729 6.40005 30.4474V14.4474C6.40005 13.1219 7.47457 12.0474 8.80005 12.0474H23.2C23.6419 12.0474 24 11.6892 24 11.2474C24 10.8056 23.6419 10.4474 23.2 10.4474H8.80005C6.59201 10.45 4.80269 12.2393 4.80005 14.4474V30.4474C4.80269 32.6554 6.59201 34.4447 8.80005 34.4474H24C24.4419 34.4474 24.8 34.0892 24.8 33.6474C24.8 33.2056 24.4419 32.8474 24 32.8474H8.80005Z" fill="#1A202C"/>
<path d="M9.60005 23.2473H20.8C21.2419 23.2473 21.6 22.8892 21.6 22.4473C21.6 22.0055 21.2419 21.6473 20.8 21.6473H9.60005C9.15822 21.6473 8.80005 22.0055 8.80005 22.4473C8.80005 22.8892 9.15822 23.2473 9.60005 23.2473Z" fill="#1A202C"/>
<path d="M9.60005 20.0474H20.8C21.2419 20.0474 21.6 19.6892 21.6 19.2474C21.6 18.8056 21.2419 18.4474 20.8 18.4474H9.60005C9.15822 18.4474 8.80005 18.8056 8.80005 19.2474C8.80005 19.6892 9.15822 20.0474 9.60005 20.0474Z" fill="#1A202C"/>
<path d="M9.60005 16.8473H20.8C21.2419 16.8473 21.6 16.4891 21.6 16.0473C21.6 15.6055 21.2419 15.2473 20.8 15.2473H9.60005C9.15822 15.2473 8.80005 15.6055 8.80005 16.0473C8.80005 16.4891 9.15822 16.8473 9.60005 16.8473Z" fill="#1A202C"/>
<path d="M8.86643 30.7674C8.99372 31.0591 9.28179 31.2476 9.60003 31.2474C9.71017 31.2479 9.81918 31.2253 9.92003 31.181C10.6607 30.9059 11.3413 30.4905 11.9248 29.9578C12.1414 29.7417 12.3308 29.4999 12.4888 29.2378C12.7943 29.5813 13.1534 29.873 13.552 30.1018C14.108 30.4654 14.8001 30.5538 15.4296 30.3418C15.671 30.2481 15.8893 30.1035 16.0696 29.9178C16.4316 30.144 16.8305 30.3051 17.248 30.3938L17.8528 30.537C19.0873 30.8986 20.37 31.0686 21.656 31.041C21.9411 31.0204 22.1936 30.8493 22.3183 30.5921C22.443 30.3349 22.4211 30.0307 22.2607 29.7941C22.1003 29.5575 21.8259 29.4244 21.5408 29.445C20.4186 29.4597 19.3007 29.3032 18.2256 28.981L17.6072 28.8346C16.8608 28.6626 16.6688 28.3618 16.5896 28.1498C16.4502 27.7776 16.0587 27.5642 15.6703 27.6487C15.2819 27.7333 15.0145 28.0901 15.0424 28.4866C15.0514 28.63 14.9834 28.7674 14.864 28.8474C14.6771 28.8712 14.4882 28.8225 14.336 28.7114C13.6891 28.3086 13.2025 27.6931 12.96 26.9706C12.8224 26.5986 12.4329 26.3836 12.0448 26.4654C11.6566 26.5472 11.387 26.9011 11.4112 27.297C11.4247 27.8693 11.2005 28.4216 10.792 28.8226C10.3478 29.2111 9.83505 29.5133 9.28003 29.7138C9.0854 29.7986 8.93246 29.9573 8.85488 30.1549C8.77731 30.3525 8.78146 30.5729 8.86643 30.7674Z" fill="#1A202C"/>
<path d="M34.4 24.0473C37.9346 24.0473 40.8 21.1819 40.8 17.6473C40.8 14.1127 37.9346 11.2473 34.4 11.2473C30.8654 11.2473 28 14.1127 28 17.6473C28.004 21.1803 30.867 24.0433 34.4 24.0473ZM34.4 12.8473C37.051 12.8473 39.2 14.9963 39.2 17.6473C39.2 20.2983 37.051 22.4473 34.4 22.4473C31.749 22.4473 29.6 20.2983 29.6 17.6473C29.6026 14.9974 31.7501 12.85 34.4 12.8473Z" fill="#1A202C"/>
</g>
<defs>
<clipPath id="clip0_2956_24112">
<rect width="48" height="48" fill="white" transform="translate(0 0.847412)"/>
</clipPath>
</defs>
</svg>
