<svg width="48" height="49" viewBox="0 0 48 49" fill="none" xmlns="http://www.w3.org/2000/svg">
<g clip-path="url(#clip0_2956_24109)">
<path d="M41.2813 16.1769H31.7541V14.0471C31.7541 12.8288 30.763 11.8377 29.5447 11.8377H29.1999V6.35804C29.1999 3.34529 26.7489 0.894287 23.7361 0.894287H23.7255C20.7127 0.894287 18.2617 3.34529 18.2617 6.35804V11.8467C17.1339 11.9452 16.2459 12.8942 16.2459 14.0471V16.1769H6.71883C3.45604 16.1769 0.801514 18.8315 0.801514 22.0943V42.8831C0.801514 46.1459 3.45604 48.8004 6.71883 48.8004H23.8207C23.8214 48.8004 23.822 48.8005 23.8227 48.8005C23.8231 48.8005 23.8237 48.8004 23.8242 48.8004H41.2812C44.5439 48.8004 47.1985 46.1459 47.1985 42.8831V22.0943C47.1985 18.8315 44.544 16.1769 41.2813 16.1769ZM19.7577 6.35804C19.7577 4.17019 21.5376 2.39016 23.7255 2.39016H23.7362C25.9241 2.39016 27.704 4.1701 27.704 6.35804V11.8377H19.7577V6.35804ZM17.7419 14.0471C17.7419 13.6538 18.0619 13.3336 18.4554 13.3336H19.0097H28.452H29.5447C29.9381 13.3336 30.2582 13.6537 30.2582 14.0471V16.1769H17.7419V14.0471ZM4.7693 46.8503L5.14354 43.6844C5.21751 43.0585 5.6167 42.5629 6.23958 42.324L10.7984 40.5698L13.3516 42.8377C13.4933 42.9635 13.6709 43.0264 13.8483 43.0264C14.0258 43.0264 14.2034 42.9635 14.345 42.8377L16.8984 40.5698L21.4605 42.3243C22.0809 42.5621 22.479 43.0579 22.5531 43.6846L22.9819 47.3046H6.71883C6.01945 47.3046 5.35786 47.1406 4.7693 46.8503ZM8.34998 28.352C8.32204 26.6658 9.05048 25.5863 9.85608 24.9098C9.86245 24.9046 9.86883 24.8994 9.87511 24.8941C10.0965 24.7102 10.3234 24.5562 10.5417 24.4285C12.4572 23.3081 15.2385 23.3078 17.1549 24.4279C18.1754 25.0242 19.3844 26.1892 19.3494 28.352C19.2834 32.3253 19.7529 35.1215 20.954 37.752C19.9357 38.0877 18.8244 38.2032 17.49 38.1158V37.0546C18.2759 36.1842 18.7552 35.032 18.7552 33.7699V30.6084C18.7552 30.3055 18.5727 30.0326 18.2928 29.917C17.0288 29.3948 16.2466 28.6271 15.8312 27.5009C15.7263 27.2165 15.4602 27.0235 15.1573 27.0123C14.8521 27.001 14.5746 27.1736 14.4489 27.4494C13.6757 29.1452 11.5089 29.7282 9.53864 30.1416C9.19233 30.2142 8.94426 30.5197 8.94426 30.8736V33.7699C8.94426 35.031 9.42258 36.1822 10.2067 37.0523V38.1158C8.87339 38.203 7.76283 38.0874 6.74498 37.7519C7.94639 35.1174 8.41589 32.3217 8.34998 28.352ZM8.93592 21.2973C8.83495 21.0578 8.8582 20.8246 9.00305 20.6065C9.15192 20.3846 9.36051 20.2721 9.62311 20.2721H18.0761C18.3383 20.2721 18.5455 20.3838 18.6936 20.6066C18.8398 20.8246 18.8628 21.058 18.7621 21.3003L17.9801 23.1789C17.9565 23.1648 17.9334 23.1503 17.9096 23.1363C15.5176 21.7384 12.1772 21.7388 9.78633 23.1372C9.76355 23.1505 9.74142 23.1645 9.71883 23.1781L8.93592 21.2973ZM17.2591 33.7698C17.2591 34.7033 16.8819 35.5501 16.2722 36.1666C16.2389 36.1936 16.2081 36.2237 16.1798 36.256C15.5694 36.8288 14.7494 37.1807 13.8482 37.1807C12.9409 37.1807 12.1159 36.8233 11.5046 36.2427C11.4817 36.2179 11.4577 36.194 11.4316 36.1724C10.8192 35.5554 10.44 34.7062 10.44 33.7698V31.4759C12.1492 31.0867 13.9088 30.5162 15.0504 29.2356C15.5818 30.0121 16.3132 30.6259 17.2591 31.091V33.7698ZM11.7026 38.7978C11.7026 38.7972 11.7026 38.7968 11.7026 38.7962V38.1809C12.3511 38.498 13.0792 38.6766 13.8483 38.6766C14.6174 38.6766 15.3454 38.4983 15.9941 38.1816V38.7962V38.7978V39.3722L13.8483 41.278L11.7026 39.3722V38.7978ZM45.7026 42.8831C45.7026 45.3211 43.7191 47.3046 41.2812 47.3046H24.4882L24.0386 43.5088C23.8993 42.3294 23.1357 41.3646 21.9968 40.9278L18.6395 39.6367C19.9944 39.6022 21.1651 39.3413 22.2873 38.836C22.4744 38.7519 22.6186 38.5944 22.6863 38.4008C22.754 38.2073 22.7392 37.9944 22.6454 37.8119C21.2987 35.1936 20.7771 32.46 20.845 28.3764C20.8722 26.6964 20.2984 25.234 19.2039 24.1313L20.1433 21.8748C20.4356 21.1715 20.36 20.4055 19.9377 19.7759C19.5154 19.1406 18.8369 18.7763 18.0761 18.7763H9.62311C8.86448 18.7763 8.18573 19.1397 7.75898 19.7759C7.33608 20.4122 7.26258 21.1784 7.55611 21.8751L8.49483 24.1303C7.40001 25.2332 6.82636 26.6961 6.8542 28.3767C6.92198 32.4557 6.40026 35.1894 5.05354 37.8124C4.95989 37.9947 4.94526 38.2075 5.01295 38.4011C5.08073 38.5946 5.22492 38.7519 5.41186 38.836C6.53367 39.3412 7.70329 39.6023 9.05714 39.6369L5.70304 40.9275C4.56164 41.3651 3.79711 42.3301 3.65789 43.5087L3.38864 45.7866C2.70998 45.0091 2.29739 43.9937 2.29739 42.883V22.0943C2.29739 19.6563 4.28086 17.6728 6.71883 17.6728H16.9939H31.0061H41.2812C43.7191 17.6728 45.7026 19.6563 45.7026 22.0943V42.8831ZM23.7309 3.83035C22.2874 3.83035 21.113 5.00466 21.113 6.44822C21.113 7.89319 22.2873 9.06872 23.7309 9.06872C25.1744 9.06872 26.3487 7.89319 26.3487 6.44822C26.3487 5.00476 25.1743 3.83035 23.7309 3.83035ZM23.7309 7.57285C23.1122 7.57285 22.609 7.06838 22.609 6.44822C22.609 5.82957 23.1122 5.32632 23.7309 5.32632C24.3495 5.32632 24.8528 5.82957 24.8528 6.44822C24.8528 7.06838 24.3495 7.57285 23.7309 7.57285ZM30.9717 25.9879H32.3217V27.3379C32.3217 27.7509 32.6565 28.0858 33.0696 28.0858H36.645C37.058 28.0858 37.3929 27.7509 37.3929 27.3379V25.9879H38.7429C39.1559 25.9879 39.4908 25.653 39.4908 25.2399V21.6673C39.4908 21.2543 39.1559 20.9194 38.7429 20.9194H37.3929V19.5693C37.3929 19.1562 37.058 18.8214 36.645 18.8214H33.0696C32.6565 18.8214 32.3217 19.1562 32.3217 19.5693V20.9193H30.9717C30.5586 20.9193 30.2237 21.2542 30.2237 21.6672V25.2398C30.2237 25.653 30.5586 25.9879 30.9717 25.9879ZM31.7196 22.4153H33.0696C33.4827 22.4153 33.8175 22.0804 33.8175 21.6673V20.3172H35.8969V21.6673C35.8969 22.0804 36.2318 22.4153 36.6449 22.4153H37.9949V24.492H36.6449C36.2318 24.492 35.8969 24.8269 35.8969 25.2399V26.5899H33.8175V25.2399C33.8175 24.8269 33.4827 24.492 33.0696 24.492H31.7196V22.4153ZM41.8064 31.7832C41.8064 32.1963 41.4715 32.5312 41.0584 32.5312H29.2079C28.7948 32.5312 28.4599 32.1963 28.4599 31.7832C28.4599 31.3702 28.7948 31.0353 29.2079 31.0353H41.0584C41.4715 31.0353 41.8064 31.3702 41.8064 31.7832ZM41.8064 34.6928C41.8064 35.1058 41.4715 35.4407 41.0584 35.4407H29.2079C28.7948 35.4407 28.4599 35.1058 28.4599 34.6928C28.4599 34.2797 28.7948 33.9448 29.2079 33.9448H41.0584C41.4715 33.9448 41.8064 34.2797 41.8064 34.6928ZM41.8064 37.6024C41.8064 38.0154 41.4715 38.3503 41.0584 38.3503H29.2079C28.7948 38.3503 28.4599 38.0154 28.4599 37.6024C28.4599 37.1893 28.7948 36.8544 29.2079 36.8544H41.0584C41.4715 36.8544 41.8064 37.1893 41.8064 37.6024ZM41.8064 40.512C41.8064 40.9251 41.4715 41.2599 41.0584 41.2599H29.2079C28.7948 41.2599 28.4599 40.9251 28.4599 40.512C28.4599 40.0989 28.7948 39.7641 29.2079 39.7641H41.0584C41.4715 39.764 41.8064 40.0989 41.8064 40.512ZM41.8064 43.4215C41.8064 43.8346 41.4715 44.1695 41.0584 44.1695H29.2079C28.7948 44.1695 28.4599 43.8346 28.4599 43.4215C28.4599 43.0085 28.7948 42.6736 29.2079 42.6736H41.0584C41.4715 42.6736 41.8064 43.0085 41.8064 43.4215ZM27.3114 31.7832C27.3114 32.1963 26.9765 32.5312 26.5634 32.5312C26.1504 32.5312 25.8142 32.1963 25.8142 31.7832C25.8142 31.3702 26.1478 31.0353 26.5608 31.0353H26.5634C26.9766 31.0353 27.3114 31.3701 27.3114 31.7832ZM27.3114 34.6928C27.3114 35.1058 26.9765 35.4407 26.5634 35.4407C26.1504 35.4407 25.8142 35.1058 25.8142 34.6928C25.8142 34.2797 26.1478 33.9448 26.5608 33.9448H26.5634C26.9766 33.9448 27.3114 34.2797 27.3114 34.6928ZM27.3114 37.6024C27.3114 38.0154 26.9765 38.3503 26.5634 38.3503C26.1504 38.3503 25.8142 38.0154 25.8142 37.6024C25.8142 37.1893 26.1478 36.8544 26.5608 36.8544H26.5634C26.9766 36.8544 27.3114 37.1892 27.3114 37.6024ZM27.3114 40.512C27.3114 40.9251 26.9765 41.2599 26.5634 41.2599C26.1504 41.2599 25.8142 40.9251 25.8142 40.512C25.8142 40.0989 26.1478 39.7641 26.5608 39.7641H26.5634C26.9766 39.764 27.3114 40.0989 27.3114 40.512ZM27.3114 43.4215C27.3114 43.8346 26.9765 44.1695 26.5634 44.1695C26.1504 44.1695 25.8142 43.8346 25.8142 43.4215C25.8142 43.0085 26.1478 42.6736 26.5608 42.6736H26.5634C26.9766 42.6736 27.3114 43.0084 27.3114 43.4215Z" fill="#1A202C"/>
</g>
<defs>
<clipPath id="clip0_2956_24109">
<rect width="48" height="48" fill="white" transform="translate(0 0.847412)"/>
</clipPath>
</defs>
</svg>
