<svg width="48" height="49" viewBox="0 0 48 49" fill="none" xmlns="http://www.w3.org/2000/svg">
<path d="M5.55005 38.7974V40.3792C5.55441 42.2271 6.29089 43.998 7.59821 45.304C8.90552 46.6101 10.6771 47.3448 12.525 47.3474H37.65C38.9225 47.3456 40.1424 46.8393 41.0422 45.9396C41.942 45.0398 42.4483 43.8199 42.45 42.5474V3.09741C42.45 2.8985 42.371 2.70773 42.2304 2.56708C42.0897 2.42643 41.899 2.34741 41.7 2.34741H13.9028C13.7039 2.34741 13.5131 2.42643 13.3725 2.56708C13.2318 2.70773 13.1528 2.8985 13.1528 3.09741V38.0474H6.30005C6.10114 38.0474 5.91037 38.1264 5.76972 38.2671C5.62907 38.4077 5.55005 38.5985 5.55005 38.7974ZM14.6528 3.84741H40.9538V42.5474C40.9538 43.4226 40.6061 44.262 39.9873 44.8809C39.3684 45.4997 38.529 45.8474 37.6538 45.8474C36.7786 45.8474 35.9392 45.4997 35.3203 44.8809C34.7015 44.262 34.3538 43.4226 34.3538 42.5474V38.7974C34.3538 38.5985 34.2748 38.4077 34.1341 38.2671C33.9935 38.1264 33.8027 38.0474 33.6038 38.0474H14.6528V3.84741ZM7.05005 39.5474H32.85V42.5474C32.8509 43.7769 33.3256 44.9588 34.1753 45.8474H12.525C11.0725 45.847 9.67944 45.2703 8.65169 44.2438C7.62394 43.2173 7.04548 41.825 7.0433 40.3724L7.05005 39.5474Z" fill="#1A202C"/>
<path d="M22.1851 17.0646C22.3713 17.2534 22.5951 17.4008 22.8421 17.4972C23.089 17.5936 23.3535 17.6368 23.6183 17.6241C24.7951 17.6241 26.3183 16.8966 27.8033 15.8481C29.2913 16.8981 30.8116 17.6241 31.9883 17.6241C32.2531 17.6368 32.5177 17.5936 32.7646 17.4972C33.0116 17.4008 33.2354 17.2534 33.4216 17.0646C34.4971 15.9246 33.6398 13.8096 32.0716 11.7621C32.5084 11.1992 32.8967 10.6003 33.2326 9.97188C34.2623 7.99563 33.9076 6.97188 33.4238 6.46413C32.3071 5.28063 30.0196 6.11163 27.8056 7.67163C25.5923 6.11163 23.3056 5.27988 22.1873 6.46413C21.7058 6.97338 21.3488 7.99563 22.3786 9.97188C22.7144 10.6003 23.1028 11.1992 23.5396 11.7621C21.9668 13.8096 21.1096 15.9224 22.1851 17.0646ZM32.3311 16.0349C32.0941 16.2846 30.8206 16.0349 29.0551 14.8866C29.3708 14.6226 29.6813 14.3519 29.9791 14.0706C30.3683 13.7039 30.7351 13.3274 31.0801 12.9456C32.2598 14.5851 32.5606 15.7904 32.3311 16.0349ZM26.6566 12.9794C26.2328 12.5796 25.8488 12.1701 25.4843 11.7591C25.8308 11.3676 26.2171 10.9641 26.6566 10.5494C27.0488 10.1796 27.4298 9.85038 27.7988 9.55413C28.1738 9.85413 28.5533 10.1751 28.9501 10.5494C29.3903 10.9641 29.7751 11.3676 30.1223 11.7591C29.7578 12.1701 29.3723 12.5796 28.9501 12.9794C28.5571 13.3544 28.1738 13.6806 27.8033 13.9784C27.4328 13.6806 27.0503 13.3506 26.6566 12.9794ZM32.3303 7.49313C32.4361 7.60413 32.4691 8.18763 31.8998 9.27888C31.6559 9.72964 31.3802 10.1625 31.0748 10.5741C30.7246 10.1894 30.3578 9.81438 29.9798 9.45738C29.6798 9.17688 29.3723 8.90463 29.0573 8.64063C30.8251 7.49313 32.0948 7.24338 32.3303 7.49313ZM23.7053 9.27888C23.1368 8.18763 23.1698 7.60413 23.2748 7.49313C23.3663 7.4231 23.4814 7.39137 23.5958 7.40463C24.6661 7.56847 25.6794 7.9935 26.5463 8.64213C26.2321 8.90538 25.9231 9.17763 25.6261 9.45738C25.2511 9.81438 24.8821 10.1894 24.5311 10.5741C24.2262 10.1623 23.9508 9.72946 23.7068 9.27888H23.7053ZM24.5251 12.9479C24.8701 13.3274 25.2368 13.7039 25.6261 14.0729C25.9261 14.3541 26.2351 14.6256 26.5501 14.8896C24.7846 16.0386 23.5111 16.2876 23.2741 16.0371C23.0371 15.7866 23.3468 14.5851 24.5251 12.9479Z" fill="#1A202C"/>
<path d="M18.5317 22.8157H27.8032C28.0022 22.8157 28.1929 22.7367 28.3336 22.596C28.4742 22.4554 28.5532 22.2646 28.5532 22.0657C28.5532 21.8668 28.4742 21.676 28.3336 21.5353C28.1929 21.3947 28.0022 21.3157 27.8032 21.3157H18.5317C18.3328 21.3157 18.1421 21.3947 18.0014 21.5353C17.8608 21.676 17.7817 21.8668 17.7817 22.0657C17.7817 22.2646 17.8608 22.4554 18.0014 22.596C18.1421 22.7367 18.3328 22.8157 18.5317 22.8157Z" fill="#1A202C"/>
<path d="M18.5317 26.8192H34.0642C34.2631 26.8192 34.4539 26.7402 34.5946 26.5995C34.7352 26.4589 34.8142 26.2681 34.8142 26.0692C34.8142 25.8703 34.7352 25.6795 34.5946 25.5389C34.4539 25.3982 34.2631 25.3192 34.0642 25.3192H18.5317C18.3328 25.3192 18.1421 25.3982 18.0014 25.5389C17.8608 25.6795 17.7817 25.8703 17.7817 26.0692C17.7817 26.2681 17.8608 26.4589 18.0014 26.5995C18.1421 26.7402 18.3328 26.8192 18.5317 26.8192Z" fill="#1A202C"/>
<path d="M18.5317 30.8715H22.089C22.2879 30.8715 22.4787 30.7924 22.6193 30.6518C22.76 30.5111 22.839 30.3204 22.839 30.1215C22.839 29.9225 22.76 29.7318 22.6193 29.5911C22.4787 29.4505 22.2879 29.3715 22.089 29.3715H18.5317C18.3328 29.3715 18.1421 29.4505 18.0014 29.5911C17.8608 29.7318 17.7817 29.9225 17.7817 30.1215C17.7817 30.3204 17.8608 30.5111 18.0014 30.6518C18.1421 30.7924 18.3328 30.8715 18.5317 30.8715Z" fill="#1A202C"/>
<path d="M25.575 29.3715C25.376 29.3715 25.1853 29.4505 25.0446 29.5911C24.904 29.7318 24.825 29.9225 24.825 30.1215C24.825 30.3204 24.904 30.5111 25.0446 30.6518C25.1853 30.7924 25.376 30.8715 25.575 30.8715H29.0587C29.2576 30.8715 29.4484 30.7924 29.589 30.6518C29.7297 30.5111 29.8087 30.3204 29.8087 30.1215C29.8087 29.9225 29.7297 29.7318 29.589 29.5911C29.4484 29.4505 29.2576 29.3715 29.0587 29.3715H25.575Z" fill="#1A202C"/>
<path d="M32.613 33.3636H18.5317C18.3328 33.3636 18.1421 33.4427 18.0014 33.5833C17.8608 33.724 17.7817 33.9147 17.7817 34.1136C17.7817 34.3126 17.8608 34.5033 18.0014 34.644C18.1421 34.7846 18.3328 34.8636 18.5317 34.8636H32.613C32.8119 34.8636 33.0027 34.7846 33.1433 34.644C33.284 34.5033 33.363 34.3126 33.363 34.1136C33.363 33.9147 33.284 33.724 33.1433 33.5833C33.0027 33.4427 32.8119 33.3636 32.613 33.3636Z" fill="#1A202C"/>
</svg>
