<svg width="62" height="62" viewBox="0 0 62 62" fill="none" xmlns="http://www.w3.org/2000/svg">
<path fill-rule="evenodd" clip-rule="evenodd" d="M10.5392 35.8956H6.78543C6.35163 35.8956 6 35.5439 6 35.1101V20.4927C6 20.059 6.35163 19.7073 6.78543 19.7073H10.5392C10.973 19.7073 11.3246 20.0589 11.3246 20.4927V35.1101C11.3246 35.5439 10.973 35.8956 10.5392 35.8956Z" fill="#5B5B5B"/>
<path fill-rule="evenodd" clip-rule="evenodd" d="M29.1212 43.5888C28.5071 44.203 27.6586 44.5829 26.7216 44.5829C25.7845 44.5829 24.936 44.203 24.3219 43.5888C23.7078 42.9747 23.3279 42.1263 23.3279 41.1892C23.3279 40.2521 23.7078 39.4036 24.3219 38.7896C24.9361 38.1754 25.7845 37.7955 26.7216 37.7955C27.6586 37.7955 28.5071 38.1754 29.1212 38.7896C29.7354 39.4036 30.1153 40.2521 30.1153 41.1892C30.1153 42.1263 29.7354 42.9747 29.1212 43.5888ZM26.7216 41.9316C27.1316 41.9316 27.464 41.5992 27.464 41.1892C27.464 40.7792 27.1316 40.4468 26.7216 40.4468C26.3115 40.4468 25.9791 40.7792 25.9791 41.1892C25.9791 41.5992 26.3115 41.9316 26.7216 41.9316Z" fill="#5B5B5B"/>
<path fill-rule="evenodd" clip-rule="evenodd" d="M17.277 43.5888C16.6629 44.203 15.8144 44.5829 14.8773 44.5829C13.9403 44.5829 13.0918 44.203 12.4777 43.5889C11.8635 42.9747 11.4836 42.1263 11.4836 41.1892C11.4836 40.2521 11.8635 39.4037 12.4777 38.7896C13.0919 38.1754 13.9403 37.7955 14.8773 37.7955C15.8144 37.7955 16.6628 38.1754 17.277 38.7896C17.8912 39.4036 18.271 40.2521 18.271 41.1892C18.271 42.1263 17.8912 42.9747 17.277 43.5888ZM14.8773 41.9316C15.2873 41.9316 15.6197 41.5992 15.6197 41.1892C15.6197 40.7792 15.2873 40.4468 14.8773 40.4468C14.4673 40.4468 14.1349 40.7792 14.1349 41.1892C14.1349 41.5992 14.4673 41.9316 14.8773 41.9316Z" fill="#5B5B5B"/>
<path fill-rule="evenodd" clip-rule="evenodd" d="M38.0388 35.8785H35.2759C34.8422 35.8785 34.4905 35.5269 34.4905 35.0931V27.1104C34.4905 26.6766 34.8422 26.325 35.2759 26.325H38.0388C38.4726 26.325 38.8243 26.6766 38.8243 27.1104V35.0931C38.8243 35.5269 38.4726 35.8785 38.0388 35.8785Z" fill="#5B5B5B"/>
<path fill-rule="evenodd" clip-rule="evenodd" d="M51.1552 43.5888C50.5411 44.203 49.6926 44.5829 48.7555 44.5829C47.8185 44.5829 46.97 44.203 46.3559 43.5888C45.7417 42.9747 45.3618 42.1263 45.3618 41.1892C45.3618 40.2521 45.7417 39.4036 46.3559 38.7896C46.9701 38.1754 47.8185 37.7955 48.7555 37.7955C49.6926 37.7955 50.541 38.1754 51.1552 38.7896C51.7693 39.4036 52.1493 40.2521 52.1493 41.1892C52.1493 42.1263 51.7693 42.9747 51.1552 43.5888ZM48.7556 41.9316C49.1656 41.9316 49.498 41.5992 49.498 41.1892C49.498 40.7792 49.1656 40.4468 48.7556 40.4468C48.3456 40.4468 48.0131 40.7792 48.0131 41.1892C48.0131 41.5992 48.3456 41.9316 48.7556 41.9316Z" fill="#5B5B5B"/>
<path fill-rule="evenodd" clip-rule="evenodd" d="M15.3007 27.1567L12.4966 25.6322C12.1459 25.4798 11.9501 25.0895 12.0521 24.709L12.0531 24.7092L13.9519 17.6226C14.0285 17.2589 14.3558 16.9903 14.7406 17.0001L14.7405 17.003L17.5931 17.0761L18.3904 17.0965L26.8601 17.3136C26.9869 17.3057 27.1173 17.3285 27.2405 17.3859L27.2404 17.3862L32.4548 19.8182C32.7386 19.9395 32.9358 20.2229 32.9317 20.5506L32.9287 20.5506L32.8563 26.1958C32.8676 26.3446 32.8367 26.4983 32.7583 26.6382L32.0731 26.2543L32.7573 26.6378L29.9854 31.5841C29.8468 31.8674 29.5443 32.0506 29.2113 32.0215V32.0214L23.4738 31.5198C23.3627 31.513 23.2512 31.4824 23.147 31.4258L23.1478 31.423L15.3007 27.1567Z" fill="#5B5B5B"/>
<path fill-rule="evenodd" clip-rule="evenodd" d="M10.7693 19.7302C10.3508 19.6183 9.92084 19.8669 9.80902 20.2855C9.69716 20.704 9.94577 21.134 10.3643 21.2458L13.5887 22.1098C14.0072 22.2216 14.4372 21.973 14.549 21.5544C14.6608 21.1359 14.4122 20.7059 13.9937 20.5941L10.7693 19.7302Z" fill="#5B5B5B"/>
<path fill-rule="evenodd" clip-rule="evenodd" d="M32.2918 25.497C31.8733 25.3852 31.4433 25.6338 31.3315 26.0524C31.2196 26.4709 31.4683 26.9009 31.8868 27.0127L35.1112 27.8766C35.5297 27.9884 35.9597 27.7398 36.0715 27.3213C36.1833 26.9028 35.9347 26.4728 35.5162 26.361L32.2918 25.497Z" fill="#5B5B5B"/>
<path fill-rule="evenodd" clip-rule="evenodd" d="M55.4821 42.4358C55.9158 42.4358 56.2675 42.0841 56.2675 41.6504V39.1396C56.2675 37.1228 55.443 35.2899 54.1148 33.9616C52.7865 32.6334 50.9536 31.8088 48.9368 31.8088H40.4186C39.9849 31.8088 39.6332 32.1605 39.6332 32.5943V34.3077H6.78543C6.35163 34.3077 6 34.6593 6 35.0931V41.6503C6 42.0841 6.35163 42.4358 6.78543 42.4358H10.8944C10.7698 42.0365 10.7048 41.6168 10.7048 41.1892C10.7048 40.0777 11.1431 39.0199 11.9289 38.2341C12.7146 37.4484 13.7725 37.0101 14.8839 37.0101C15.9953 37.0101 17.0531 37.4484 17.8389 38.2341C18.6247 39.0199 19.063 40.0777 19.063 41.1892C19.063 41.6168 18.998 42.0364 18.8734 42.4358H22.7293C22.6047 42.0364 22.5397 41.6168 22.5397 41.1892C22.5397 40.0777 22.9781 39.0199 23.7638 38.2341C24.5496 37.4484 25.6074 37.0101 26.7188 37.0101C27.8303 37.0101 28.888 37.4484 29.6738 38.2341C30.4596 39.0199 30.8979 40.0777 30.8979 41.1892C30.8979 41.6168 30.8329 42.0364 30.7084 42.4358H44.7724C44.6479 42.0365 44.5829 41.6168 44.5829 41.1892C44.5829 40.0777 45.0212 39.0199 45.807 38.2341C46.5928 37.4483 47.6506 37.0101 48.762 37.0101C49.8735 37.0101 50.9313 37.4483 51.717 38.2341C52.5028 39.0199 52.9411 40.0777 52.9411 41.1892C52.9411 41.6168 52.8762 42.0365 52.7515 42.4358L55.4821 42.4358Z" fill="#5B5B5B"/>
<path fill-rule="evenodd" clip-rule="evenodd" d="M46.7016 25.7432H41.0642V22.8864H39.6279V27.6599V33.0921C39.6279 32.6361 39.9796 32.2664 40.4134 32.2664H47.4871V26.5689C47.4871 26.113 47.1354 25.7432 46.7016 25.7432ZM41.6327 31.0069H45.4821V27.7242H41.6327V31.0069Z" fill="#5B5B5B"/>
</svg>
