<svg width="37" height="42" viewBox="0 0 37 42" fill="none" xmlns="http://www.w3.org/2000/svg">
<g clip-path="url(#clip0_2154_42438)">
<path d="M4.00952 11.9556V20.6763C4.00966 20.8085 4.06225 20.9353 4.15576 21.0288C4.24927 21.1223 4.37605 21.1749 4.5083 21.1751H5.99161V11.4568H4.5083C4.37605 11.4569 4.24927 11.5095 4.15576 11.603C4.06225 11.6965 4.00966 11.8233 4.00952 11.9556Z" fill="#5B5B5B"/>
<path d="M26.2554 9.52319H10.0715C9.78747 9.52407 9.51529 9.63734 9.31447 9.83826C9.11364 10.0392 9.0005 10.3114 8.99976 10.5955V17.7861C9.00061 18.0701 9.11387 18.3423 9.31477 18.5432C9.51568 18.744 9.7879 18.8572 10.072 18.8579H26.2554C26.5395 18.8571 26.8118 18.7439 27.0127 18.543C27.2136 18.3421 27.3268 18.0698 27.3276 17.7856V10.5951C27.3267 10.311 27.2135 10.0388 27.0126 9.83795C26.8117 9.63712 26.5395 9.52396 26.2554 9.52319ZM10.9734 12.1647H10.4262C10.3304 12.1647 10.2385 12.1267 10.1707 12.0589C10.1029 11.9911 10.0648 11.8992 10.0648 11.8033C10.0648 11.7075 10.1029 11.6155 10.1707 11.5477C10.2385 11.48 10.3304 11.4419 10.4262 11.4419H10.9734C11.0692 11.4419 11.1612 11.48 11.229 11.5477C11.2967 11.6155 11.3348 11.7075 11.3348 11.8033C11.3348 11.8992 11.2967 11.9911 11.229 12.0589C11.1612 12.1267 11.0692 12.1647 10.9734 12.1647ZM18.6665 12.1647H12.816C12.7201 12.1647 12.6282 12.1267 12.5604 12.0589C12.4926 11.9911 12.4545 11.8992 12.4545 11.8033C12.4545 11.7075 12.4926 11.6155 12.5604 11.5477C12.6282 11.48 12.7201 11.4419 12.816 11.4419H18.6665C18.7624 11.4419 18.8543 11.48 18.9221 11.5477C18.9899 11.6155 19.0279 11.7075 19.0279 11.8033C19.0279 11.8992 18.9899 11.9911 18.9221 12.0589C18.8543 12.1267 18.7624 12.1647 18.6665 12.1647Z" fill="#5B5B5B"/>
<path d="M25.8221 4.37573H10.5213C9.51563 4.37856 8.55193 4.77935 7.84082 5.49054C7.12971 6.20173 6.72903 7.16548 6.72632 8.17119V26.6154C6.72632 32.9266 11.8608 38.0611 18.172 38.0611C24.4831 38.0611 29.6176 32.9266 29.6176 26.6154V8.17075C29.6148 7.16504 29.214 6.20134 28.5028 5.49023C27.7916 4.77913 26.8278 4.37844 25.8221 4.37573ZM28.0587 17.786C28.0576 18.2615 27.8682 18.7172 27.532 19.0535C27.1957 19.3898 26.7401 19.5794 26.2645 19.5807H10.0797C9.60413 19.5795 9.14841 19.3901 8.81212 19.0538C8.47583 18.7176 8.28632 18.2619 8.28502 17.7864V10.5949C8.28622 10.1194 8.47563 9.66369 8.81183 9.32739C9.14804 8.99109 9.60371 8.80156 10.0792 8.80022H26.2641C26.7396 8.80144 27.1953 8.99086 27.5316 9.32708C27.8679 9.6633 28.0574 10.119 28.0587 10.5945V17.786Z" fill="#5B5B5B"/>
<path d="M31.819 11.4567H30.3357V21.1752H31.819C31.9512 21.175 32.078 21.1224 32.1715 21.0289C32.2651 20.9354 32.3176 20.8086 32.3178 20.6764V11.9554C32.3176 11.8232 32.2651 11.6964 32.1715 11.6029C32.078 11.5094 31.9512 11.4568 31.819 11.4567Z" fill="#5B5B5B"/>
</g>
<defs>
<clipPath id="clip0_2154_42438">
<rect width="37" height="42" rx="5.44272" fill="white"/>
</clipPath>
</defs>
</svg>
