<svg width="424" height="363" viewBox="0 0 424 363" fill="none" xmlns="http://www.w3.org/2000/svg">
<g clip-path="url(#clip0_2154_42203)">
<path d="M391.987 329.947C378.106 341.867 361.195 353.942 344.568 359.636C339.775 361.326 334.829 362.405 329.822 362.852C325.142 363.276 320.431 362.864 315.865 361.631C303.865 358.265 292.735 352.371 281.966 345.485C278.447 343.232 274.969 340.875 271.512 338.467C265.868 334.534 260.28 330.463 254.676 326.49C253.838 325.888 253.004 325.297 252.165 324.712H252.16C250.807 323.755 249.451 322.811 248.092 321.88C247.853 321.714 247.614 321.553 247.37 321.387C244.802 319.632 242.19 317.918 239.534 316.244C239.209 316.043 238.884 315.837 238.558 315.636C233.42 312.422 228.138 309.507 222.735 306.904C219.186 305.218 215.591 303.699 211.96 302.403H211.955C210.567 301.91 209.174 301.445 207.776 301.021C203.583 299.724 199.31 298.781 194.993 298.2C189.044 297.388 183.027 297.442 177.09 298.361C176.688 298.424 176.292 298.487 175.89 298.561C159.823 301.462 145.159 311.244 129.02 313.549C128.496 313.623 127.978 313.692 127.454 313.744C127.23 313.767 127.006 313.795 126.783 313.813C122.093 314.265 117.373 314.134 112.708 313.423C99.6765 311.485 86.9853 305.47 75.5601 297.89C48.8505 280.168 27.1899 252.928 14.0207 221.381C11.7593 215.975 9.7515 210.438 8.00564 204.794C3.12434 189.143 0.4362 172.729 0.0379889 156.144C-1.19758 98.602 27.8001 40.8704 73.3279 14.8456C118.861 -11.1793 178.758 -2.57313 215.479 37.4073C237.755 61.6604 250.644 94.5254 267.408 123.887C284.172 153.243 307.999 181.286 338.731 185.563C354.386 187.742 370.769 183.528 385.774 189.009C394.082 192.048 401.17 197.862 406.88 205.27C410.719 210.297 413.931 215.891 416.429 221.897C418.259 226.24 419.745 230.756 420.868 235.394C421.076 236.249 421.27 237.103 421.458 237.957C428.932 272.382 416.988 308.469 391.987 329.947Z" fill="#7699C6"/>
<path d="M141.945 267.628H94.1494C86.9886 267.628 81.1836 274.174 81.1836 282.249V282.249C81.1836 290.323 86.9886 296.869 94.1494 296.869H141.945C149.106 296.869 154.911 290.323 154.911 282.249C154.911 274.174 149.106 267.628 141.945 267.628Z" fill="#3F3D56"/>
<path d="M127.454 289.416V313.744C122.545 314.279 117.597 314.172 112.709 313.423V289.416H127.454Z" fill="#3F3D56"/>
<path d="M177.09 298.361C176.689 298.424 176.292 298.487 175.89 298.562C159.823 301.463 145.159 311.244 129.02 313.549C128.496 313.624 127.978 313.693 127.454 313.744C127.23 313.767 127.007 313.796 126.783 313.813C122.842 309.461 118.902 304.828 115.2 300.029C113.192 297.432 111.249 294.783 109.424 292.1C104.685 285.174 100.668 278.053 98.0139 271.058C98.2834 267.703 96.4326 259.946 95.5479 254.006L95.5428 254C95.1665 251.506 94.9631 249.339 95.1513 247.945C96.2292 239.907 102.051 240.83 103.841 232.952C105.455 231.441 107.174 230.078 108.981 228.875C109.281 228.675 109.587 228.474 109.902 228.273L129.325 213.137L136.749 221.347L148.047 233.846L160.291 247.384L149.898 259.223C149.898 259.223 158.582 270.513 168.736 285.564C171.462 289.606 174.294 293.923 177.09 298.361Z" fill="#2F2E41"/>
<path d="M344.568 289.416V359.635C339.775 361.326 334.829 362.405 329.822 362.852V289.416H344.568Z" fill="#3F3D56"/>
<path d="M363.636 283.683H315.841C308.68 283.683 302.875 290.228 302.875 298.303V298.303C302.875 306.378 308.68 312.924 315.841 312.924H363.636C370.797 312.924 376.602 306.378 376.602 298.303C376.602 290.228 370.797 283.683 363.636 283.683Z" fill="#3F3D56"/>
<path d="M247.37 321.387C244.803 319.632 242.191 317.918 239.535 316.244C239.209 316.043 238.884 315.837 238.559 315.636L240.308 314.793L245.026 312.505L245.072 312.482L245.123 312.677L247.37 321.387Z" fill="#FFB6B6"/>
<path d="M254.676 326.489C253.837 325.887 253.004 325.297 252.165 324.712H252.159C250.807 323.754 249.451 322.81 248.092 321.879C247.853 321.713 247.614 321.553 247.37 321.386C244.802 319.632 242.19 317.917 239.534 316.243C239.209 316.043 238.883 315.836 238.558 315.635C233.42 312.421 228.138 309.507 222.735 306.903C219.186 305.217 215.591 303.698 211.96 302.402H211.955L209.103 297.018L196.264 272.771L193.442 267.445C193.442 267.445 183.817 270.655 170.195 273.734C165.238 274.858 159.756 275.959 154.006 276.888C147.858 277.874 141.411 278.659 135.004 279.038C131.948 279.221 128.903 279.313 125.903 279.284C118.149 279.227 110.7 278.407 104.176 276.458C102 274.153 95.4408 271.017 90.7426 268.144H90.7375C88.7647 266.94 87.1274 265.788 86.2681 264.761C81.3157 258.856 85.5461 254.252 81.1428 247.807C81.0835 245.443 81.1906 243.077 81.4631 240.732C81.5089 240.342 81.5547 239.946 81.6106 239.545L82.9987 212.964L93.3103 211.427L109.002 209.088L125.999 206.554L127.871 223.078C127.871 223.078 141.106 222.321 157.875 222.573C184.808 222.986 220.848 226.014 225.73 239.006C226.187 240.227 226.645 241.46 227.102 242.693C228.19 245.64 229.268 248.602 230.336 251.58C234.206 262.359 237.897 273.241 241.268 283.527C243.363 289.926 245.336 296.095 247.151 301.869C248.61 306.513 249.963 310.905 251.198 314.947C252.327 318.64 253.349 322.04 254.259 325.09C254.402 325.566 254.539 326.036 254.676 326.489Z" fill="#2F2E41"/>
<path d="M159.82 165.44L127.25 134.249L148.44 110.066L163.224 137.372L218.023 149.623C219.671 148.224 221.644 147.397 223.701 147.241C225.759 147.085 227.812 147.608 229.611 148.745C231.41 149.883 232.876 151.586 233.831 153.646C234.787 155.707 235.189 158.037 234.991 160.352C234.792 162.666 234 164.866 232.712 166.682C231.424 168.498 229.695 169.852 227.737 170.579C225.778 171.307 223.674 171.376 221.681 170.778C219.688 170.18 217.892 168.941 216.513 167.212L159.82 165.44Z" fill="#A0616A"/>
<path d="M98.4664 93.2547C94.7024 107.063 130.55 139.995 130.55 139.995C130.949 136.68 151.273 165.265 152.656 162.676C156.586 155.319 160.91 137.132 165.447 134.807C168.042 133.478 153.157 115.002 153.157 115.002C153.157 115.002 145.565 103.674 135.54 89.3184C132.772 85.2004 129.126 81.939 124.94 79.8376C120.754 77.7363 116.165 76.8633 111.599 77.3C111.599 77.3 102.23 79.4467 98.4664 93.2547Z" fill="#3F3D56"/>
<path d="M114.316 62.6874C126.482 62.6874 136.344 51.566 136.344 37.8471C136.344 24.1282 126.482 13.0068 114.316 13.0068C102.149 13.0068 92.2869 24.1282 92.2869 37.8471C92.2869 51.566 102.149 62.6874 114.316 62.6874Z" fill="#A0616A"/>
<path d="M125.329 79.1053C130.075 82.2868 132.914 88.1324 134.543 94.0807C137.561 105.093 139.377 116.48 139.952 127.988L141.673 162.44L162.991 235.8C144.515 253.429 75.0679 239.807 75.0679 239.807C75.0679 239.807 72.9361 239.005 75.0679 236.602C77.1997 234.198 79.2751 236.327 77.1433 233.923C75.0115 231.519 76.4811 234.198 77.1917 231.794C77.9023 229.39 77.1917 230.992 76.4811 230.191C75.7705 229.39 81.9822 222.178 81.9822 222.178L76.2974 180.069L69.1914 95.1312C77.7187 83.1118 94.868 76.0264 94.868 76.0264L99.2992 67.0322L121.455 69.0309L125.329 79.1053Z" fill="#3F3D56"/>
<path d="M132.473 24.6494C134.186 26.0894 135.454 28.0986 136.1 30.3942C136.348 26.6427 136.364 22.8762 136.147 19.1223C135.888 16.4843 134.241 15.891 132.334 15.2034C130.611 14.5822 128.664 13.8806 128.14 11.3197C121.215 3.72361 109.161 4.10665 100.911 6.75629C96.3719 8.21435 93.7599 10.0876 93.5263 11.185L93.4778 11.4109L93.2935 11.5149C89.7944 13.4877 89.1133 19.7175 89.1583 24.5962C89.2435 33.788 92.058 44.2275 93.6435 45.0755C93.7275 45.1204 93.7487 45.1028 93.785 45.0687C96.1724 42.9173 99.0851 45.2322 100.365 46.4906C101.12 40.7778 103.551 35.515 107.27 31.5429C110.988 27.5707 115.78 25.1182 120.88 24.5772C122.545 24.3957 124.197 24.0833 125.824 23.6423C126.649 23.4016 127.498 23.276 128.35 23.2685C129.817 23.2434 131.256 23.7253 132.473 24.6494Z" fill="#2F2E41"/>
<path d="M104.717 202.866L97.9782 198.974C97.6172 198.684 97.3607 198.257 97.2557 197.771C97.1507 197.286 97.2041 196.774 97.4062 196.329C97.6083 195.884 97.9455 195.535 98.3564 195.348C98.7673 195.16 99.2244 195.145 99.6441 195.306L106.383 199.198C106.744 199.488 107 199.915 107.105 200.4C107.21 200.886 107.157 201.398 106.955 201.843C106.753 202.288 106.415 202.636 106.004 202.824C105.594 203.012 105.137 203.026 104.717 202.866Z" fill="#E86E39"/>
<path d="M82.0382 192.438L70.9531 145.903L100.576 139.58L98.9826 171.521L137.904 216.713C139.964 216.618 142.005 217.201 143.777 218.391C145.548 219.581 146.975 221.327 147.882 223.415C148.789 225.504 149.137 227.845 148.885 230.152C148.633 232.46 147.79 234.636 146.46 236.413C145.131 238.191 143.371 239.493 141.396 240.162C139.421 240.832 137.316 240.838 135.338 240.182C133.359 239.525 131.593 238.234 130.254 236.465C128.916 234.696 128.062 232.526 127.798 230.22L82.0382 192.438Z" fill="#A0616A"/>
<path d="M67.923 93.7282C57.8681 102.679 70.7736 152.747 70.7736 152.747C72.7717 150.274 75.0936 186.819 77.5359 185.575C84.4771 182.038 97.1995 169.843 102.104 170.837C104.909 171.405 101.97 146.664 101.97 146.664C101.97 146.664 101.43 132.478 100.414 114.242C100.212 109.08 98.8544 104.06 96.4687 99.649C94.0829 95.2379 90.7462 91.5791 86.7691 89.0133C86.7691 89.0133 77.9779 84.7773 67.923 93.7282Z" fill="#3F3D56"/>
<path d="M416.429 221.897L14.021 221.381C11.7595 215.975 9.75172 210.438 8.00586 204.794L406.88 205.27C410.719 210.297 413.932 215.891 416.429 221.897Z" fill="#3F3D56"/>
<path d="M288.26 342.2C286.181 343.335 284.083 344.43 281.966 345.485C278.447 343.232 274.969 340.875 271.512 338.467L284.335 332.114L288.26 342.2Z" fill="#FFB6B6"/>
<path d="M381.756 263.19C379.672 266.344 377.521 269.434 375.304 272.462C373.26 275.254 371.162 277.993 369.009 280.678C368.119 281.79 367.219 282.897 366.299 283.992C364.606 286.039 362.875 288.051 361.108 290.029C357.925 291.159 351.477 293.149 344.567 295.006C339.539 296.354 334.266 297.632 329.822 298.446C327.334 298.95 324.818 299.253 322.292 299.352C319.292 299.381 316.246 299.289 313.19 299.106C309.743 298.899 306.29 298.578 302.878 298.165C294.006 297.116 285.413 295.482 277.999 293.802C275.284 293.194 272.732 292.575 270.382 291.973C265.933 290.844 262.211 289.789 259.517 288.986C256.481 288.091 254.752 287.512 254.752 287.512L247.151 301.869L243.205 309.317L240.307 314.793L239.534 316.243C239.209 316.043 238.883 315.836 238.558 315.636C233.419 312.422 228.138 309.507 222.734 306.903C219.185 305.218 215.59 303.698 211.96 302.403H211.955C210.567 301.909 209.174 301.445 207.775 301.021C208.213 299.696 208.655 298.362 209.103 297.019C209.936 294.513 210.787 291.985 211.655 289.433C213.531 283.906 215.474 278.299 217.472 272.72C219.109 268.139 220.777 263.575 222.465 259.074C223.243 256.998 224.824 255.175 227.036 253.575C228.093 252.824 229.196 252.157 230.336 251.58C236.666 248.329 245.992 246.213 256.268 244.854C257.117 244.746 257.971 244.637 258.83 244.533C267.337 243.524 276.362 243.002 284.803 242.762C289.028 242.641 293.106 242.595 296.899 242.59C298.124 242.59 299.316 242.593 300.473 242.601H300.479C303.606 242.618 306.483 242.67 309.016 242.727C309.509 242.739 309.987 242.756 310.455 242.767H310.46C310.775 242.773 311.085 242.785 311.39 242.79C316.927 242.951 320.324 243.146 320.324 243.146L321.641 231.495L321.91 229.144L322.164 226.908V226.903L322.195 226.622L322.403 226.616L326.064 226.536L356.837 225.859L373.646 225.486L370.982 238.364L366.584 259.613C367.031 262.973 381.909 260.341 381.756 263.19Z" fill="#2F2E41"/>
<path d="M292.054 340.078C290.798 340.8 289.532 341.511 288.261 342.199C286.182 343.335 284.083 344.43 281.966 345.485C278.448 343.231 274.97 340.875 271.512 338.467C265.869 334.534 260.281 330.463 254.677 326.489C253.838 325.887 253.004 325.297 252.165 324.712H252.16C249.852 320.847 247.498 316.822 245.123 312.677C245.088 312.62 245.057 312.562 245.027 312.505C244.416 311.45 243.81 310.387 243.206 309.317C239.408 302.609 235.589 295.614 231.883 288.47L241.269 283.527L258.719 274.342L261.73 272.76L270.384 291.973L278.102 309.111L279.821 312.924L292.054 340.078Z" fill="#2F2E41"/>
<path d="M294.683 247.835L339.174 199.452L351.505 160.08L333.316 151.161C323.973 161.253 313.874 192.686 313.874 192.686L283.258 236.608C283.02 236.7 282.782 236.798 282.547 236.915C281.168 237.601 279.969 238.676 279.066 240.037C278.163 241.398 277.587 242.998 277.393 244.683C277.199 246.369 277.394 248.082 277.959 249.657C278.524 251.233 279.439 252.618 280.617 253.678C281.795 254.738 283.196 255.437 284.684 255.708C286.172 255.979 287.696 255.813 289.11 255.226C290.525 254.638 291.78 253.649 292.757 252.355C293.733 251.06 294.396 249.503 294.683 247.835Z" fill="#FFB8B8"/>
<path d="M328.199 155.558L351.271 163.817L351.358 163.801C359.945 162.179 367.071 146.363 371.536 133.382C373.005 129.1 372.978 124.348 371.459 120.088C369.941 115.828 367.045 112.377 363.356 110.433C360.627 109.02 357.601 108.495 354.621 108.919C351.641 109.343 348.826 110.699 346.493 112.832L334.646 123.749L328.199 155.558Z" fill="#E86E39"/>
<path d="M381.663 263.771L381.798 263.569C388.996 252.804 379.151 226.144 377.663 222.278L384.356 220.042L383.189 205.671L382.627 199.263L387.831 193.691L387.849 193.548L391.428 164.827L396.111 145.818C397.876 138.632 397.913 131.046 396.219 123.838C394.525 116.63 391.16 110.06 386.47 104.803L376.897 94.0853L365.428 73.8421L346.198 73.2822L339.283 87.134C332.853 88.6139 327.086 92.5908 322.988 98.3719C318.891 104.153 316.721 111.372 316.858 118.771L317.509 155.647L310.609 201.337L310.416 209.636L303.644 217.695L304.896 225.842L299.83 228.117L297.351 239.694C296.404 241.03 290.153 249.94 290.096 252.424C290.087 252.797 290.323 253.165 290.838 253.58C294.884 256.844 317.5 263.918 327.679 259.665C338.521 255.139 381.014 263.64 381.442 263.726L381.663 263.771Z" fill="#E86E39"/>
<path d="M354.134 67.0769C368.204 67.0769 379.61 54.2152 379.61 38.3495C379.61 22.4838 368.204 9.62207 354.134 9.62207C340.064 9.62207 328.658 22.4838 328.658 38.3495C328.658 54.2152 340.064 67.0769 354.134 67.0769Z" fill="#FFB8B8"/>
<path d="M351.026 67.4606C354.971 67.53 358.914 67.2192 362.813 66.5317C366.677 65.6457 375.321 58.5029 377.73 54.2046C379.52 51.0111 380.665 46.0241 381.311 42.4032C382.18 37.6115 382.146 32.6674 381.213 27.8911C380.28 23.1149 378.468 18.6128 375.894 14.6765C374.904 13.0301 373.539 11.7158 371.941 10.8727C371.8 10.8102 371.654 10.7549 371.507 10.7076C369.179 10.017 367.088 8.5577 365.501 6.517C365.193 6.10425 364.859 5.71701 364.502 5.35832C362.709 3.65165 360.583 2.4478 358.298 1.84518C354.609 0.732056 349.272 1.83698 342.433 5.13245C338.997 6.78816 335.239 6.18895 332.349 5.48188C332.187 5.44657 332.019 5.45974 331.863 5.5201C331.707 5.58045 331.567 5.68589 331.458 5.8259C330.228 7.12784 328.607 7.8566 326.92 7.86573C325.887 7.91689 324.803 9.53006 323.493 11.6337C323.196 12.1112 322.849 12.6685 322.598 13.0075L322.565 12.3563L321.98 13.0828C321.062 14.2246 320.414 15.6101 320.098 17.1101C319.782 18.61 319.808 20.1758 320.173 21.6616C320.538 23.1473 321.231 24.5047 322.186 25.6074C323.142 26.71 324.33 27.522 325.638 27.9678C326.678 28.2796 327.743 28.471 328.816 28.5389C329.467 28.6049 330.14 28.6731 330.784 28.7993C332.854 29.2771 334.778 30.3518 336.369 31.9185C337.96 33.4852 339.163 35.4903 339.862 37.738C340.027 38.2576 340.296 38.7274 340.648 39.1112C340.999 39.495 341.425 39.7825 341.891 39.9515C342.357 40.1205 342.851 40.1665 343.335 40.086C343.819 40.0054 344.281 39.8005 344.684 39.487C345.355 38.8972 346.143 38.4994 346.981 38.3274C347.818 38.1555 348.68 38.2145 349.493 38.4994C350.196 38.9399 350.742 39.6393 351.042 40.4804C351.406 41.4174 352.009 42.211 352.775 42.7598C355.393 44.2822 355.573 51.026 354.633 56.6479C353.727 62.0668 351.935 65.987 350.275 66.1807C348.998 66.3297 348.852 66.4321 348.76 66.6868L348.677 66.9148L348.821 67.1281C349.526 67.4165 350.278 67.5299 351.026 67.4606Z" fill="#2F2E41"/>
<path d="M334.523 146.871L324.701 124.788C310.443 125.886 282.145 144.476 282.145 144.476L228.604 157.276C227.018 156.589 225.299 156.385 223.621 156.684C221.943 156.984 220.364 157.777 219.044 158.983C217.724 160.189 216.709 161.767 216.101 163.556C215.493 165.345 215.314 167.284 215.582 169.176C215.849 171.068 216.554 172.847 217.626 174.334C218.697 175.822 220.097 176.964 221.685 177.648C223.272 178.331 224.991 178.531 226.669 178.226C228.347 177.922 229.924 177.125 231.241 175.915L299.348 170.41L334.523 146.871Z" fill="#FFB8B8"/>
<path d="M330.563 150.498L356.217 129L360.736 110.637C361.612 107.029 361.575 103.216 360.629 99.6298C359.684 96.0437 357.868 92.8271 355.387 90.3437C352.003 87.0029 347.62 85.2355 343.125 85.3991C338.63 85.5626 334.357 87.6449 331.171 91.2247C321.517 102.091 310.507 117.25 312.872 127.761L312.896 127.868L330.563 150.498Z" fill="#E86E39"/>
<path d="M298.807 207.999H230.164V218.32H298.807V207.999Z" fill="white"/>
<path d="M123.387 207.999H54.7441V218.32H123.387V207.999Z" fill="white"/>
<path d="M131.402 158.368V207.507C131.403 208.133 131.624 208.734 132.016 209.177C132.409 209.619 132.941 209.868 133.497 209.869H198.074C198.629 209.868 199.162 209.619 199.554 209.177C199.947 208.734 200.168 208.133 200.168 207.507V158.368C200.167 157.742 199.946 157.143 199.553 156.7C199.161 156.258 198.629 156.01 198.074 156.009H133.497C132.942 156.01 132.41 156.258 132.017 156.7C131.625 157.143 131.404 157.742 131.402 158.368Z" fill="#3F3D56"/>
<path d="M132.916 158.979V206.9C132.917 207.235 133.035 207.556 133.244 207.792C133.454 208.029 133.739 208.162 134.035 208.163H197.535C197.832 208.162 198.116 208.029 198.326 207.792C198.536 207.556 198.654 207.235 198.654 206.9V158.979C198.654 158.644 198.537 158.322 198.327 158.085C198.117 157.848 197.832 157.715 197.535 157.714H134.035C133.738 157.715 133.454 157.848 133.244 158.085C133.034 158.322 132.916 158.644 132.916 158.979Z" fill="#E86E39"/>
<path d="M130.052 217.09C130.17 217.258 130.32 217.392 130.492 217.485C130.663 217.577 130.85 217.625 131.04 217.623H200.187C200.376 217.623 200.563 217.575 200.733 217.484C200.904 217.392 201.054 217.258 201.173 217.093C201.293 216.927 201.377 216.733 201.422 216.526C201.466 216.319 201.469 216.103 201.431 215.894L200.357 210.145C200.313 209.911 200.217 209.693 200.079 209.51C199.94 209.328 199.764 209.188 199.565 209.103C199.421 209.039 199.268 209.007 199.113 209.007H132.109C131.954 209.007 131.801 209.039 131.657 209.103C131.459 209.188 131.282 209.328 131.144 209.51C131.006 209.693 130.91 209.911 130.865 210.145L129.792 215.894C129.754 216.103 129.757 216.319 129.802 216.525C129.847 216.732 129.932 216.925 130.052 217.09Z" fill="#2F2E41"/>
<path d="M196.74 211.483H198.373C198.51 211.483 198.621 211.358 198.621 211.203V210.322C198.621 210.168 198.51 210.042 198.373 210.042H196.74C196.603 210.042 196.491 210.168 196.491 210.322V211.203C196.491 211.358 196.603 211.483 196.74 211.483Z" fill="#3F3D56"/>
<path d="M192.482 211.483H194.115C194.252 211.483 194.363 211.358 194.363 211.203V210.322C194.363 210.168 194.252 210.042 194.115 210.042H192.482C192.345 210.042 192.234 210.168 192.234 210.322V211.203C192.234 211.358 192.345 211.483 192.482 211.483Z" fill="#3F3D56"/>
<path d="M188.22 211.483H189.853C189.99 211.483 190.102 211.358 190.102 211.203V210.322C190.102 210.168 189.99 210.042 189.853 210.042H188.22C188.083 210.042 187.972 210.168 187.972 210.322V211.203C187.972 211.358 188.083 211.483 188.22 211.483Z" fill="#3F3D56"/>
<path d="M183.962 211.483H185.596C185.733 211.483 185.844 211.358 185.844 211.203V210.322C185.844 210.168 185.733 210.042 185.596 210.042H183.962C183.825 210.042 183.714 210.168 183.714 210.322V211.203C183.714 211.358 183.825 211.483 183.962 211.483Z" fill="#3F3D56"/>
<path d="M179.703 211.483H181.336C181.473 211.483 181.584 211.358 181.584 211.203V210.322C181.584 210.168 181.473 210.042 181.336 210.042H179.703C179.565 210.042 179.454 210.168 179.454 210.322V211.203C179.454 211.358 179.565 211.483 179.703 211.483Z" fill="#3F3D56"/>
<path d="M175.443 211.483H177.076C177.213 211.483 177.324 211.358 177.324 211.203V210.322C177.324 210.168 177.213 210.042 177.076 210.042H175.443C175.306 210.042 175.195 210.168 175.195 210.322V211.203C175.195 211.358 175.306 211.483 175.443 211.483Z" fill="#3F3D56"/>
<path d="M171.183 211.483H172.816C172.953 211.483 173.064 211.358 173.064 211.203V210.322C173.064 210.168 172.953 210.042 172.816 210.042H171.183C171.046 210.042 170.935 210.168 170.935 210.322V211.203C170.935 211.358 171.046 211.483 171.183 211.483Z" fill="#3F3D56"/>
<path d="M166.925 211.483H168.558C168.696 211.483 168.807 211.358 168.807 211.203V210.322C168.807 210.168 168.696 210.042 168.558 210.042H166.925C166.788 210.042 166.677 210.168 166.677 210.322V211.203C166.677 211.358 166.788 211.483 166.925 211.483Z" fill="#3F3D56"/>
<path d="M162.665 211.483H164.299C164.436 211.483 164.547 211.358 164.547 211.203V210.322C164.547 210.168 164.436 210.042 164.299 210.042H162.665C162.528 210.042 162.417 210.168 162.417 210.322V211.203C162.417 211.358 162.528 211.483 162.665 211.483Z" fill="#3F3D56"/>
<path d="M158.406 211.483H160.039C160.176 211.483 160.287 211.358 160.287 211.203V210.322C160.287 210.168 160.176 210.042 160.039 210.042H158.406C158.269 210.042 158.157 210.168 158.157 210.322V211.203C158.157 211.358 158.269 211.483 158.406 211.483Z" fill="#3F3D56"/>
<path d="M154.146 211.483H155.779C155.916 211.483 156.027 211.358 156.027 211.203V210.322C156.027 210.168 155.916 210.042 155.779 210.042H154.146C154.009 210.042 153.898 210.168 153.898 210.322V211.203C153.898 211.358 154.009 211.483 154.146 211.483Z" fill="#3F3D56"/>
<path d="M149.888 211.483H151.521C151.658 211.483 151.77 211.358 151.77 211.203V210.322C151.77 210.168 151.658 210.042 151.521 210.042H149.888C149.751 210.042 149.64 210.168 149.64 210.322V211.203C149.64 211.358 149.751 211.483 149.888 211.483Z" fill="#3F3D56"/>
<path d="M145.628 211.483H147.262C147.399 211.483 147.51 211.358 147.51 211.203V210.322C147.51 210.168 147.399 210.042 147.262 210.042H145.628C145.491 210.042 145.38 210.168 145.38 210.322V211.203C145.38 211.358 145.491 211.483 145.628 211.483Z" fill="#3F3D56"/>
<path d="M141.369 211.483H143.002C143.139 211.483 143.25 211.358 143.25 211.203V210.322C143.25 210.168 143.139 210.042 143.002 210.042H141.369C141.231 210.042 141.12 210.168 141.12 210.322V211.203C141.12 211.358 141.231 211.483 141.369 211.483Z" fill="#3F3D56"/>
<path d="M137.109 211.483H138.742C138.879 211.483 138.99 211.358 138.99 211.203V210.322C138.99 210.168 138.879 210.042 138.742 210.042H137.109C136.972 210.042 136.861 210.168 136.861 210.322V211.203C136.861 211.358 136.972 211.483 137.109 211.483Z" fill="#3F3D56"/>
<path d="M132.851 211.483H134.484C134.621 211.483 134.732 211.358 134.732 211.203V210.322C134.732 210.168 134.621 210.042 134.484 210.042H132.851C132.714 210.042 132.603 210.168 132.603 210.322V211.203C132.603 211.358 132.714 211.483 132.851 211.483Z" fill="#3F3D56"/>
<path d="M196.79 213.885H198.424C198.561 213.885 198.672 213.759 198.672 213.605V212.724C198.672 212.569 198.561 212.444 198.424 212.444H196.79C196.653 212.444 196.542 212.569 196.542 212.724V213.605C196.542 213.759 196.653 213.885 196.79 213.885Z" fill="#3F3D56"/>
<path d="M192.531 213.885H194.164C194.301 213.885 194.412 213.759 194.412 213.605V212.724C194.412 212.569 194.301 212.444 194.164 212.444H192.531C192.394 212.444 192.282 212.569 192.282 212.724V213.605C192.282 213.759 192.394 213.885 192.531 213.885Z" fill="#3F3D56"/>
<path d="M188.273 213.885H189.906C190.043 213.885 190.154 213.759 190.154 213.605V212.724C190.154 212.569 190.043 212.444 189.906 212.444H188.273C188.136 212.444 188.025 212.569 188.025 212.724V213.605C188.025 213.759 188.136 213.885 188.273 213.885Z" fill="#3F3D56"/>
<path d="M184.011 213.885H185.644C185.781 213.885 185.893 213.759 185.893 213.605V212.724C185.893 212.569 185.781 212.444 185.644 212.444H184.011C183.874 212.444 183.763 212.569 183.763 212.724V213.605C183.763 213.759 183.874 213.885 184.011 213.885Z" fill="#3F3D56"/>
<path d="M179.753 213.885H181.387C181.524 213.885 181.635 213.759 181.635 213.605V212.724C181.635 212.569 181.524 212.444 181.387 212.444H179.753C179.616 212.444 179.505 212.569 179.505 212.724V213.605C179.505 213.759 179.616 213.885 179.753 213.885Z" fill="#3F3D56"/>
<path d="M175.494 213.885H177.127C177.264 213.885 177.375 213.759 177.375 213.605V212.724C177.375 212.569 177.264 212.444 177.127 212.444H175.494C175.356 212.444 175.245 212.569 175.245 212.724V213.605C175.245 213.759 175.356 213.885 175.494 213.885Z" fill="#3F3D56"/>
<path d="M171.234 213.885H172.867C173.004 213.885 173.115 213.759 173.115 213.605V212.724C173.115 212.569 173.004 212.444 172.867 212.444H171.234C171.097 212.444 170.986 212.569 170.986 212.724V213.605C170.986 213.759 171.097 213.885 171.234 213.885Z" fill="#3F3D56"/>
<path d="M166.974 213.885H168.607C168.744 213.885 168.855 213.759 168.855 213.605V212.724C168.855 212.569 168.744 212.444 168.607 212.444H166.974C166.837 212.444 166.726 212.569 166.726 212.724V213.605C166.726 213.759 166.837 213.885 166.974 213.885Z" fill="#3F3D56"/>
<path d="M162.716 213.885H164.349C164.487 213.885 164.598 213.759 164.598 213.605V212.724C164.598 212.569 164.487 212.444 164.349 212.444H162.716C162.579 212.444 162.468 212.569 162.468 212.724V213.605C162.468 213.759 162.579 213.885 162.716 213.885Z" fill="#3F3D56"/>
<path d="M158.456 213.885H160.09C160.227 213.885 160.338 213.759 160.338 213.605V212.724C160.338 212.569 160.227 212.444 160.09 212.444H158.456C158.319 212.444 158.208 212.569 158.208 212.724V213.605C158.208 213.759 158.319 213.885 158.456 213.885Z" fill="#3F3D56"/>
<path d="M154.197 213.885H155.83C155.967 213.885 156.078 213.759 156.078 213.605V212.724C156.078 212.569 155.967 212.444 155.83 212.444H154.197C154.06 212.444 153.948 212.569 153.948 212.724V213.605C153.948 213.759 154.06 213.885 154.197 213.885Z" fill="#3F3D56"/>
<path d="M149.937 213.885H151.57C151.707 213.885 151.818 213.759 151.818 213.605V212.724C151.818 212.569 151.707 212.444 151.57 212.444H149.937C149.8 212.444 149.689 212.569 149.689 212.724V213.605C149.689 213.759 149.8 213.885 149.937 213.885Z" fill="#3F3D56"/>
<path d="M145.677 213.885H147.31C147.447 213.885 147.559 213.759 147.559 213.605V212.724C147.559 212.569 147.447 212.444 147.31 212.444H145.677C145.54 212.444 145.429 212.569 145.429 212.724V213.605C145.429 213.759 145.54 213.885 145.677 213.885Z" fill="#3F3D56"/>
<path d="M141.417 213.885H143.051C143.188 213.885 143.299 213.759 143.299 213.605V212.724C143.299 212.569 143.188 212.444 143.051 212.444H141.417C141.28 212.444 141.169 212.569 141.169 212.724V213.605C141.169 213.759 141.28 213.885 141.417 213.885Z" fill="#3F3D56"/>
<path d="M137.16 213.885H138.793C138.93 213.885 139.041 213.759 139.041 213.605V212.724C139.041 212.569 138.93 212.444 138.793 212.444H137.16C137.022 212.444 136.911 212.569 136.911 212.724V213.605C136.911 213.759 137.022 213.885 137.16 213.885Z" fill="#3F3D56"/>
<path d="M132.9 213.885H134.533C134.67 213.885 134.781 213.759 134.781 213.605V212.724C134.781 212.569 134.67 212.444 134.533 212.444H132.9C132.763 212.444 132.652 212.569 132.652 212.724V213.605C132.652 213.759 132.763 213.885 132.9 213.885Z" fill="#3F3D56"/>
<path d="M161.437 216.767H177.978C178.115 216.767 178.227 216.641 178.227 216.487V215.606C178.227 215.451 178.115 215.326 177.978 215.326H161.437C161.3 215.326 161.189 215.451 161.189 215.606V216.487C161.189 216.641 161.3 216.767 161.437 216.767Z" fill="#3F3D56"/>
</g>
<defs>
<clipPath id="clip0_2154_42203">
<rect width="423.663" height="363" fill="white"/>
</clipPath>
</defs>
</svg>
