<svg width="472" height="365" viewBox="0 0 472 365" fill="none" xmlns="http://www.w3.org/2000/svg">
<path d="M256.774 342.151C256.774 342.151 248.578 322.197 273.167 307.232L256.774 342.151Z" fill="#E6E6E6"/>
<path d="M246.695 341.788C246.695 341.788 244.195 327.566 224.842 327.688L246.695 341.788Z" fill="#E6E6E6"/>
<path d="M431.569 342.151C431.569 342.151 420.74 315.79 453.226 296.02L431.569 342.151Z" fill="#E6E6E6"/>
<path d="M418.253 341.672C418.253 341.672 414.95 322.883 389.383 323.044L418.253 341.672Z" fill="#E6E6E6"/>
<path d="M310.577 114.142L299.883 108.524L300.683 108.104L311.377 113.722L310.577 114.142Z" fill="#CBCBCB"/>
<path d="M301.251 114.142L300.451 113.722L311.145 108.104L311.945 108.524L301.251 114.142Z" fill="#CBCBCB"/>
<path d="M221.653 70.5967L221.137 71.5928L224.158 73.1238L224.674 72.1278L221.653 70.5967Z" fill="#CBCBCB"/>
<path d="M284.29 103.596L278.277 100.549L278.793 99.5525L284.806 102.6L284.29 103.596ZM272.264 97.5012L266.251 94.4537L266.767 93.4576L272.78 96.5051L272.264 97.5012ZM260.238 91.4064L254.225 88.3591L254.741 87.363L260.754 90.4103L260.238 91.4064ZM248.211 85.3118L242.198 82.2645L242.714 81.2684L248.727 84.3157L248.211 85.3118ZM236.185 79.2172L230.172 76.1699L230.688 75.1738L236.701 78.2211L236.185 79.2172Z" fill="#CBCBCB"/>
<path d="M290.819 105.648L290.303 106.644L293.324 108.175L293.84 107.179L290.819 105.648Z" fill="#CBCBCB"/>
<path d="M62.7133 145.512C62.7133 145.861 62.7018 146.208 62.6789 146.552C62.5505 148.534 62.0441 150.474 61.1865 152.271C61.1798 152.286 61.172 152.3 61.1654 152.315C61.1255 152.398 61.0845 152.481 61.0424 152.563C60.7874 153.071 60.5044 153.565 60.1948 154.043C58.7807 156.234 56.8424 158.048 54.5513 159.323C52.2602 160.598 49.6868 161.295 47.0585 161.353L47.2169 170.365L49.2833 169.289L49.6523 169.983L47.2324 171.243L47.5283 187.98L47.5316 188.203L45.9339 188.555L45.9372 188.33L46.4402 161.355C44.3247 161.325 42.2362 160.879 40.2961 160.044C38.356 159.21 36.603 158.002 35.1387 156.492C35.0379 156.389 34.9382 156.282 34.8406 156.177L34.8295 156.165C33.6095 154.849 32.6229 153.339 31.9111 151.699C31.9266 151.716 31.9432 151.733 31.9588 151.75C30.3502 148.03 30.2411 143.842 31.6538 140.045C33.0666 136.248 35.8942 133.129 39.5573 131.327C39.6127 131.3 39.6693 131.274 39.7247 131.246C43.3481 129.52 47.4951 129.203 51.3436 130.359C55.1921 131.514 58.4611 134.057 60.5028 137.484C60.6004 137.647 60.6946 137.812 60.7854 137.979C62.0537 140.291 62.7164 142.881 62.7133 145.512Z" fill="#E5E5E5"/>
<path d="M60.5535 152.322C72.152 152.322 81.5543 143.024 81.5543 131.553C81.5543 120.083 72.152 110.784 60.5535 110.784C48.9551 110.784 39.5527 120.083 39.5527 131.553C39.5527 143.024 48.9551 152.322 60.5535 152.322Z" fill="#E5E5E5"/>
<path opacity="0.2" d="M45.0498 117.682C43.0909 122.213 42.8252 127.286 44.3001 131.994C45.775 136.701 48.8945 140.737 53.1011 143.379C57.3076 146.022 62.3272 147.099 67.2628 146.418C72.1984 145.737 76.7285 143.343 80.0434 139.663C78.8467 142.432 77.0558 144.91 74.7945 146.926C72.5332 148.942 69.8558 150.448 66.9476 151.339C64.0395 152.231 60.9702 152.486 57.9524 152.087C54.9346 151.689 52.0405 150.647 49.4705 149.032C46.9005 147.418 44.7162 145.27 43.0688 142.738C41.4214 140.206 40.3503 137.35 39.9298 134.368C39.5093 131.386 39.7494 128.349 40.6335 125.468C41.5176 122.586 43.0245 119.93 45.0498 117.682Z" fill="black"/>
<path d="M61.6917 189.412L59.5469 188.817L59.5514 188.589L60.1941 154.042L60.2262 152.32L60.2269 152.269L60.3394 146.233L60.502 137.485V137.484L60.6125 131.554H60.6717L60.7848 137.978L60.932 146.34L61.0374 152.273V152.317L61.0419 152.562V152.563L61.2456 164.128L61.2668 165.278L61.6878 189.182L61.6917 189.412Z" fill="#3F3D56"/>
<path d="M63.952 162.718L60.4805 164.525L60.9643 165.434L64.4358 163.627L63.952 162.718Z" fill="#3F3D56"/>
<path d="M332.788 64.3382C306.281 62.7883 279.695 63.1925 253.249 65.5473C240.502 66.6868 227.553 67.9175 215.042 70.6673C204.965 72.8821 193.269 76.6255 186.991 85.3445C185.676 87.1012 184.789 89.1351 184.401 91.2869C184.013 93.4387 184.134 95.6501 184.754 97.7481C186.251 102.718 189.975 106.856 193.941 110.096C203.07 117.554 214.396 121.894 224.513 127.819C242.985 138.638 259.891 153.22 270.742 171.743C275.517 179.894 280.059 190.732 274.742 199.714C269.534 208.513 257.906 211.544 248.423 212.974C236.537 214.765 224.294 214.279 212.358 213.276C199.273 212.069 186.261 210.185 173.376 207.629C148.133 202.836 123.119 196.738 97.5252 193.965C84.6922 192.472 71.751 192.102 58.8522 192.859C47.2031 193.636 35.4542 195.458 24.5107 199.613C16.0778 202.814 7.08878 207.657 2.53366 215.734C-1.85727 223.519 -0.144665 232.498 4.63651 239.682C10.3892 248.325 19.3598 254.248 28.6863 258.576C39.3053 263.505 50.6632 266.7 62.0358 269.417C67.8036 270.795 73.6026 272.041 79.4022 273.28C80.612 273.539 81.129 271.701 79.9148 271.442C68.2195 268.942 56.4903 266.435 45.0855 262.817C34.5315 259.469 23.7309 255.18 15.0881 248.15C8.09613 242.463 1.44816 234.155 1.86086 224.71C2.2769 215.188 10.3548 208.54 18.2723 204.448C28.1669 199.335 39.4086 196.844 50.4241 195.542C63.0371 194.152 75.757 193.981 88.4035 195.031C113.937 196.952 138.9 202.704 163.935 207.722C188.256 212.596 213.336 217.109 238.26 215.859C248.139 215.364 258.724 213.964 267.447 209.032C271.441 206.774 275.042 203.59 277.071 199.446C278.9 195.504 279.478 191.106 278.73 186.832C277.316 177.444 271.677 168.738 266.051 161.26C259.884 153.15 252.73 145.821 244.751 139.44C235.995 132.47 226.553 126.387 216.568 121.283C211.273 118.526 205.903 115.874 200.857 112.681C196.018 109.619 191.246 105.935 188.291 100.965C185.735 96.6657 185.267 91.7591 187.928 87.399C190.621 82.989 195.259 79.9133 199.833 77.6657C210.853 72.2504 223.665 70.8009 235.723 69.3156C261.612 66.1373 287.702 64.8508 313.783 65.4665C320.122 65.6139 326.457 65.8735 332.788 66.2451C334.027 66.3172 334.023 64.41 332.788 64.3382Z" fill="black"/>
<path d="M315.971 3.21134L319.975 0.0443532C316.865 -0.295029 315.587 1.38262 315.064 2.71049C312.634 1.71259 309.988 3.02038 309.988 3.02038L317.999 5.89657C317.595 4.82902 316.892 3.89754 315.971 3.21134Z" fill="#3F3D56"/>
<path d="M296.542 13.2377L300.545 10.0707C297.435 9.73134 296.157 11.409 295.634 12.7368C293.204 11.739 290.559 13.0468 290.559 13.0468L298.57 15.9229C298.165 14.8554 297.462 13.9239 296.542 13.2377Z" fill="#3F3D56"/>
<path d="M315.971 29.1117L319.975 25.9447C316.865 25.6054 315.587 27.283 315.064 28.6109C312.634 27.613 309.988 28.9208 309.988 28.9208L317.999 31.7969C317.595 30.7294 316.892 29.7979 315.971 29.1117Z" fill="#3F3D56"/>
<path d="M255.948 33.8054C262.61 33.8054 268.011 28.4641 268.011 21.8754C268.011 15.2866 262.61 9.94531 255.948 9.94531C249.286 9.94531 243.885 15.2866 243.885 21.8754C243.885 28.4641 249.286 33.8054 255.948 33.8054Z" fill="#FF6583"/>
<path d="M293.777 58.6365H234.598C234.524 58.6374 234.45 58.6316 234.377 58.6192L262.366 10.6763C262.537 10.3777 262.785 10.1292 263.085 9.95635C263.384 9.78348 263.725 9.69238 264.072 9.69238C264.419 9.69238 264.759 9.78348 265.059 9.95635C265.359 10.1292 265.606 10.3777 265.777 10.6763L284.56 42.8486L285.46 44.3878L293.777 58.6365Z" fill="#E86E39"/>
<path d="M326.724 58.6377H275.541L285.459 44.3902L286.172 43.3634L299.096 24.7964C299.325 24.5123 299.611 24.279 299.937 24.1116C300.263 23.9442 300.621 23.8466 300.987 23.8249C301.353 23.8033 301.72 23.8582 302.064 23.986C302.407 24.1139 302.72 24.3118 302.981 24.567C303.048 24.6395 303.11 24.7161 303.167 24.7964L326.724 58.6377Z" fill="#E86E39"/>
<path d="M242.293 168.595C247.902 171.367 251.317 175.029 251.317 179.046C251.317 187.698 235.486 194.712 215.957 194.712C207.467 194.712 199.677 193.385 193.582 191.176C200.056 194.376 209.454 196.391 219.918 196.391C239.446 196.391 255.278 189.377 255.278 180.724C255.278 175.834 250.218 171.468 242.293 168.595Z" fill="#F1F1F1"/>
<path d="M254.771 174.538C261.101 177.667 264.954 181.799 264.954 186.331C264.954 196.094 247.09 204.009 225.055 204.009C215.474 204.009 206.685 202.511 199.807 200.018C207.112 203.629 217.717 205.903 229.523 205.903C251.559 205.903 269.423 197.988 269.423 188.225C269.423 182.707 263.713 177.78 254.771 174.538Z" fill="#F1F1F1"/>
<path d="M237.519 171.213C241.471 173.166 243.877 175.746 243.877 178.576C243.877 184.672 232.724 189.613 218.965 189.613C213.605 189.682 208.273 188.839 203.201 187.122C207.762 189.376 214.384 190.796 221.755 190.796C235.514 190.796 246.667 185.854 246.667 179.759C246.667 176.313 243.102 173.237 237.519 171.213Z" fill="#F1F1F1"/>
<path d="M181.992 170.094C181.992 170.094 182.861 182.647 207.754 182.647C232.647 182.647 240.079 170.094 240.079 170.094H181.992Z" fill="#3F3D56"/>
<path d="M217.326 137.157C213.732 134.457 209.222 133.237 204.739 133.752C208.745 134.707 212.283 137.028 214.732 140.305C217.181 143.583 218.384 147.609 218.131 151.677C217.877 155.745 216.184 159.595 213.346 162.551C210.509 165.506 206.71 167.379 202.615 167.841C206.532 168.776 210.654 168.349 214.29 166.632C217.926 164.914 220.852 162.012 222.579 158.411C224.305 154.811 224.725 150.733 223.768 146.862C222.812 142.991 220.537 139.564 217.326 137.157Z" fill="#3F3D56"/>
<path d="M209.168 131.486H207.471V171.442H209.168V131.486Z" fill="#3F3D56"/>
<path d="M320.713 101.799L320.704 101.784L320.681 100.808L325.998 93.173L320.687 100.077L320.668 100.284L320.487 92.4799L325.079 84.5643L320.474 91.109L320.522 74.9415L320.521 74.8877L320.52 74.9406L320.215 87.6828L316.029 82.5069L320.201 88.7805L320.11 95.7609L316.258 88.9483L320.096 96.7871L320.045 100.668L319.904 111.422L319.894 112.225C320.249 112.228 320.6 112.222 320.947 112.208L320.706 101.879L320.713 101.799Z" fill="#CBCBCB"/>
<path d="M295.254 105.157L295.245 105.141L295.222 104.165L300.539 96.5305L295.228 103.435L295.209 103.641L295.028 95.8374L299.62 87.9217L295.015 94.4664L295.063 78.2989L295.062 78.2451L295.061 78.298L294.756 91.0402L290.57 85.8643L294.743 92.1379L294.651 99.1183L290.799 92.3057L294.637 100.144L294.586 104.026L294.445 114.779L294.435 115.583C294.79 115.585 295.141 115.58 295.488 115.565L295.248 105.236L295.254 105.157Z" fill="#CBCBCB"/>
<path d="M307.699 94.5268L307.69 94.5114L307.667 93.5355L312.985 85.9006L307.674 92.8049L307.655 93.0112L307.473 85.2075L312.066 77.2918L307.46 83.8365L307.508 67.6691L307.508 67.6152L307.506 67.6682L307.201 80.4103L303.016 75.2345L307.188 81.508L307.096 88.4884L303.245 81.6758L307.082 89.5146L307.031 93.396L306.891 104.149L306.88 104.953C307.235 104.956 307.586 104.95 307.934 104.935L307.693 94.6066L307.699 94.5268Z" fill="#CBCBCB"/>
<path d="M97.4317 280.319C101.181 280.319 104.221 277.313 104.221 273.605C104.221 269.897 101.181 266.891 97.4317 266.891C93.6822 266.891 90.6426 269.897 90.6426 273.605C90.6426 277.313 93.6822 280.319 97.4317 280.319Z" fill="#E86E39"/>
<path d="M378.266 330.113L371.981 332.423L359.982 309.546L369.259 306.138L378.266 330.113Z" fill="#FFB7B7"/>
<path d="M382.133 335.549L361.866 342.996L361.771 342.742C360.994 340.673 361.079 338.384 362.009 336.377C362.939 334.371 364.636 332.811 366.728 332.042L379.107 327.494L382.133 335.549Z" fill="#2F2E41"/>
<path d="M316.41 336.568L309.705 336.567L306.516 310.99L316.412 310.991L316.41 336.568Z" fill="#FFB7B7"/>
<path d="M317.573 342.996L295.953 342.995V342.724C295.953 340.517 296.84 338.401 298.418 336.84C299.996 335.279 302.136 334.402 304.368 334.402L317.574 334.403L317.573 342.996Z" fill="#2F2E41"/>
<path d="M347.111 159.18L344.923 154.853L326.328 164.048L326.875 167.834L323.32 172.431C323.32 172.431 317.304 175.677 318.398 186.494L319.491 196.771L320.859 210.023L311.288 242.746L306.366 286.016L302.811 320.903L320.038 320.092L335.899 263.299L363.792 324.419L382.934 319.551L356.682 258.972L353.4 233.551C353.4 233.551 355.588 220.029 345.197 210.834L346.837 205.966V199.967L352.306 171.349L347.111 159.18Z" fill="#2F2E41"/>
<path opacity="0.2" d="M347.62 221.025L335.588 263.214L336.206 263.386L348.239 221.198L347.62 221.025Z" fill="black"/>
<path d="M346.563 210.023H319.764V212.728H346.563V210.023Z" fill="#3F3D56"/>
<path d="M319.762 214.35C320.366 214.35 320.856 213.139 320.856 211.646C320.856 210.152 320.366 208.941 319.762 208.941C319.158 208.941 318.668 210.152 318.668 211.646C318.668 213.139 319.158 214.35 319.762 214.35Z" fill="#3F3D56"/>
<path d="M338.841 152.185C345.906 148.365 348.502 139.605 344.641 132.619C340.779 125.632 331.921 123.064 324.856 126.883C317.792 130.703 315.195 139.463 319.057 146.449C322.919 153.436 331.777 156.004 338.841 152.185Z" fill="#FFB7B7"/>
<path d="M354.157 134.387C361.279 134.387 367.054 128.677 367.054 121.633C367.054 114.588 361.279 108.878 354.157 108.878C347.034 108.878 341.26 114.588 341.26 121.633C341.26 128.677 347.034 134.387 354.157 134.387Z" fill="#2F2E41"/>
<path d="M370.524 120.267C371.032 121.957 371.181 123.732 370.961 125.482C370.741 127.232 370.156 128.917 369.244 130.432C368.331 131.947 367.111 133.259 365.661 134.284C364.21 135.309 362.56 136.026 360.816 136.388C359.071 136.751 357.269 136.752 355.524 136.391C353.779 136.031 352.128 135.316 350.676 134.293C349.224 133.269 348.003 131.959 347.089 130.445C346.174 128.932 345.588 127.247 345.365 125.497C346.289 128.566 348.346 131.178 351.128 132.816C353.909 134.454 357.212 134.998 360.38 134.339C363.548 133.68 366.35 131.868 368.229 129.261C370.108 126.654 370.927 123.443 370.524 120.267Z" fill="#2F2E41"/>
<path d="M319.571 135.531C319.193 138.828 319.924 142.157 321.653 145.001C323.381 147.845 326.01 150.046 329.131 151.262C332.252 152.479 335.692 152.644 338.918 151.731C342.144 150.818 344.975 148.878 346.973 146.212C348.97 143.547 350.024 140.304 349.969 136.986C349.914 133.669 348.754 130.461 346.669 127.862C344.584 125.262 341.691 123.415 338.437 122.607C335.183 121.798 331.75 122.074 328.67 123.391C326.124 121.36 322.966 121.989 320.399 124.133C317.496 126.557 316.634 128.222 314.383 132.209C316.597 132.516 317.357 135.224 319.571 135.531Z" fill="#2F2E41"/>
<path d="M373.16 178.889C372.997 183.161 372.674 191.571 372.674 192.001C372.674 192.453 366.226 205.654 363.441 211.336V211.339C363.243 211.739 363.066 212.102 362.908 212.422C362.693 212.863 362.354 213.234 361.932 213.49C361.51 213.746 361.023 213.878 360.528 213.869L348.356 213.652C347.687 213.641 347.049 213.375 346.574 212.909C346.099 212.443 345.824 211.813 345.807 211.152L344.45 158.193C344.445 158.019 344.476 157.845 344.54 157.682C344.605 157.52 344.702 157.371 344.825 157.246C344.948 157.121 345.095 157.022 345.258 156.954C345.421 156.886 345.596 156.851 345.772 156.851H361.469C362.132 156.851 362.782 157.036 363.343 157.384C363.905 157.733 364.356 158.231 364.645 158.821L372.178 174.235C372.885 175.684 373.222 177.282 373.16 178.889Z" fill="#E86E39"/>
<path d="M345.594 207.518C342.471 205.646 339.664 203.301 337.277 200.567C331.731 194.398 328.358 186.617 327.665 178.391C327.046 171.353 328.458 166.121 331.862 162.841C336.189 158.672 342.078 159.278 342.327 159.306L342.59 159.335L346.58 162.674L345.451 163.994L341.881 161.006C340.788 160.952 336.327 160.94 333.068 164.093C330.068 166.995 328.836 171.755 329.406 178.241C330.066 186.073 333.27 193.484 338.538 199.368C340.811 201.968 343.476 204.206 346.438 206.004L345.594 207.518Z" fill="#E86E39"/>
<path d="M368.246 187.399L346.979 191.719L347.096 192.283L368.363 187.963L368.246 187.399Z" fill="#3F3D56"/>
<path d="M354.229 156.84L353.646 156.863L355.028 190.33L355.61 190.307L354.229 156.84Z" fill="#3F3D56"/>
<path d="M373.16 178.889C372.997 183.162 372.674 191.572 372.674 192.001C372.674 192.453 366.227 205.655 363.441 211.336L368.633 181.525C368.834 180.378 369.339 179.304 370.097 178.414C370.855 177.523 371.839 176.848 372.947 176.457C373.122 177.255 373.193 178.073 373.16 178.889Z" fill="#3F3D56"/>
<path d="M341.266 241.366C341.725 240.78 342.05 240.102 342.216 239.379C342.381 238.656 342.385 237.905 342.226 237.181C342.067 236.456 341.749 235.775 341.295 235.185C340.841 234.595 340.262 234.11 339.598 233.766L340.653 222.223L333.716 219.878L332.458 236.199C331.946 237.341 331.876 238.628 332.26 239.817C332.644 241.006 333.456 242.015 334.541 242.652C335.627 243.289 336.911 243.509 338.151 243.272C339.39 243.035 340.498 242.357 341.266 241.366Z" fill="#FFB7B7"/>
<path d="M342.17 230.196L329.879 229.755L330.399 171.134C330.39 169.476 330.909 167.856 331.881 166.504C332.854 165.153 334.232 164.138 335.819 163.603C337.303 163.115 338.906 163.114 340.391 163.599C342.074 164.163 343.521 165.265 344.501 166.731C345.481 168.198 345.939 169.946 345.804 171.698L342.17 230.196Z" fill="#CBCBCB"/>
<path d="M449.995 343.195H205.113C204.943 343.195 204.78 343.128 204.659 343.009C204.538 342.89 204.471 342.728 204.471 342.559C204.471 342.391 204.538 342.229 204.659 342.11C204.78 341.991 204.943 341.924 205.113 341.924H449.995C450.165 341.924 450.329 341.991 450.449 342.11C450.57 342.229 450.638 342.391 450.638 342.559C450.638 342.728 450.57 342.89 450.449 343.009C450.329 343.128 450.165 343.195 449.995 343.195Z" fill="#CBCBCB"/>
</svg>
