<svg width="453" height="345" viewBox="0 0 453 345" fill="none" xmlns="http://www.w3.org/2000/svg">
<g clip-path="url(#clip0_2154_42704)">
<path d="M242.283 48.4584C257.311 38.4624 278.469 34.6304 295.024 42.4287C276.387 49.7149 261.213 62.702 252.187 79.0923C248.731 85.4247 245.62 92.7918 238.49 95.7185C234.053 97.5396 228.817 97.188 224.223 95.7175C219.629 94.2469 215.543 91.7489 211.513 89.2772L210.305 89.1462C217.476 73.6114 227.256 58.4544 242.283 48.4584Z" fill="#F0F0F0"/>
<path d="M294.891 42.7609C279.434 43.197 264.522 48.0074 252.274 56.5089C249.601 58.2969 247.258 60.4531 245.331 62.8981C243.539 65.3344 242.505 68.1584 242.335 71.0766C242.116 73.7946 242.241 76.5976 241.292 79.2204C240.784 80.5564 239.969 81.7807 238.898 82.8129C237.828 83.8451 236.528 84.662 235.082 85.2099C231.52 86.6596 227.592 86.8703 223.743 86.9562C219.469 87.0515 215.028 87.0896 211.141 88.9016C210.67 89.1212 210.319 88.4504 210.789 88.2311C217.552 85.0785 225.454 87.1354 232.562 85.2591C235.879 84.3835 238.922 82.6027 240.254 79.6232C241.419 77.0177 241.292 74.1271 241.487 71.3733C241.606 68.5244 242.499 65.7451 244.086 63.2782C245.868 60.7528 248.115 58.5189 250.73 56.6722C256.544 52.4302 263.062 49.0377 270.046 46.6188C278 43.8184 286.427 42.2638 294.963 42.0222C295.492 42.0074 295.416 42.7462 294.891 42.7609Z" fill="white"/>
<path d="M256.039 53.5624C254.734 51.5184 254.278 49.1233 254.754 46.8047C255.229 44.4861 256.604 42.3951 258.633 40.905C259.044 40.6048 259.582 41.1668 259.17 41.4674C257.277 42.8518 255.997 44.7997 255.559 46.9596C255.122 49.1195 255.556 51.3491 256.784 53.2459C257.05 53.6584 256.304 53.9725 256.039 53.5624Z" fill="white"/>
<path d="M242.244 69.6849C247.399 70.9823 252.908 70.4825 257.672 68.2852C258.144 68.0672 258.494 68.7379 258.023 68.9557C253.061 71.234 247.327 71.7436 241.966 70.3828C241.455 70.2528 241.736 69.5556 242.244 69.6849Z" fill="white"/>
<path d="M277.961 44.8007C278.283 45.6863 278.845 46.4861 279.595 47.1281C280.345 47.7702 281.26 48.2344 282.259 48.4792C282.771 48.6033 282.49 49.3004 281.981 49.1771C280.879 48.9021 279.869 48.3882 279.038 47.6805C278.208 46.9728 277.582 46.0928 277.217 45.1172C277.174 45.0279 277.17 44.9271 277.207 44.8355C277.243 44.7438 277.317 44.6681 277.413 44.6237C277.512 44.5823 277.625 44.5776 277.728 44.6107C277.83 44.6439 277.914 44.7121 277.961 44.8007Z" fill="white"/>
<path d="M308.15 98.1491C307.827 98.0798 307.505 98.0105 307.177 97.9453C302.837 97.0337 298.421 96.4412 293.974 96.1735C293.631 96.1478 293.282 96.1265 292.939 96.1099C282.217 95.5678 271.477 96.8227 261.264 99.8108C257.202 101.003 253.246 102.472 249.43 104.205C244.162 106.599 238.661 109.571 232.988 110.238C232.398 110.313 231.802 110.356 231.205 110.365L210.221 90.4837C210.198 90.4169 210.17 90.3543 210.148 90.2873L209.27 89.528C209.459 89.4262 209.659 89.3244 209.849 89.2226C209.958 89.1632 210.073 89.1082 210.183 89.0488C210.257 89.0106 210.332 88.9725 210.397 88.9342C210.422 88.9214 210.447 88.9088 210.467 88.9003C210.532 88.862 210.597 88.8326 210.657 88.7986C211.769 88.2265 212.888 87.6604 214.013 87.1004C214.018 87.0961 214.018 87.0961 214.028 87.0962C222.613 82.8489 231.668 79.2097 241.048 76.9236C241.33 76.8549 241.617 76.7817 241.909 76.722C246.143 75.7127 250.462 75.0167 254.823 74.6409C257.211 74.4421 259.609 74.3523 262.008 74.3717C268.205 74.4329 274.353 75.3713 280.226 77.1526C291.934 80.7053 302.249 87.5898 307.738 97.3962C307.879 97.6471 308.014 97.8939 308.15 98.1491Z" fill="#F0F0F0"/>
<path d="M307.823 98.3442C295.19 90.3127 280.067 86.0697 264.603 86.2177C261.274 86.1964 257.961 86.6477 254.787 87.5552C251.728 88.5291 249.013 90.2231 246.927 92.461C244.934 94.5125 243.16 96.8186 240.649 98.3983C239.35 99.1897 237.88 99.7249 236.335 99.9689C234.791 100.213 233.206 100.16 231.686 99.814C227.872 99.0404 224.595 97.0791 221.464 95.0609C217.988 92.82 214.416 90.4428 210.101 89.7825C209.578 89.7025 209.747 88.9766 210.269 89.0566C217.776 90.2054 222.711 96.132 229.641 98.487C232.874 99.5859 236.495 99.8141 239.551 98.157C242.223 96.708 244.054 94.3313 246.051 92.2384C248.052 90.0284 250.622 88.293 253.539 87.1838C256.651 86.1337 259.939 85.5682 263.262 85.5114C270.74 85.2761 278.213 86.1009 285.406 87.9558C293.63 90.0317 301.398 93.359 308.375 97.7936C308.806 98.0682 308.252 98.617 307.823 98.3442Z" fill="white"/>
<path d="M269.58 85.9066C269.904 83.5671 271.142 81.4076 273.072 79.8139C275.001 78.2202 277.497 77.296 280.114 77.2063C280.643 77.1898 280.697 77.9299 280.166 77.9464C277.73 78.0259 275.405 78.887 273.611 80.3744C271.818 81.8618 270.674 83.8774 270.386 86.0576C270.323 86.5313 269.517 86.3776 269.58 85.9066Z" fill="white"/>
<path d="M247.783 91.3011C251.032 95.1316 255.765 97.719 261.038 98.5472C261.56 98.6289 261.392 99.3547 260.87 99.2731C255.385 98.402 250.466 95.7005 247.095 91.7076C246.774 91.3268 247.464 90.9224 247.783 91.3011Z" fill="white"/>
<path d="M292.94 90.7952C292.605 91.6769 292.519 92.6197 292.688 93.5389C292.858 94.4582 293.278 95.3251 293.912 96.0619C294.238 96.4388 293.547 96.8429 293.223 96.4684C292.527 95.6515 292.064 94.6936 291.875 93.6783C291.685 92.663 291.774 91.6214 292.134 90.6443C292.16 90.5496 292.224 90.4672 292.315 90.4138C292.405 90.3604 292.515 90.34 292.621 90.3568C292.728 90.3773 292.821 90.4348 292.881 90.5169C292.941 90.599 292.962 90.699 292.94 90.7952Z" fill="white"/>
<path d="M238.319 63.3295H236.693V23.2164C236.693 20.1676 236.026 17.1486 234.73 14.3319C233.435 11.5151 231.535 8.95577 229.141 6.79992C226.747 4.64408 223.905 2.93398 220.776 1.76725C217.648 0.600516 214.295 1.64363e-06 210.909 0H116.526C113.14 -6.57426e-06 109.787 0.600495 106.659 1.76722C103.531 2.93395 100.688 4.64404 98.2941 6.79988C95.8999 8.95571 94.0007 11.5151 92.7049 14.3318C91.4091 17.1485 90.7422 20.1675 90.7422 23.2163V243.28C90.7422 249.437 93.4587 255.342 98.2941 259.696C103.129 264.05 109.688 266.496 116.526 266.496H210.909C217.747 266.496 224.306 264.05 229.141 259.696C233.977 255.343 236.693 249.437 236.693 243.28V91.8827H238.319V63.3295Z" fill="#3F3D56"/>
<path d="M211.948 6.04006H199.628C200.195 7.29079 200.411 8.64779 200.258 9.99151C200.105 11.3352 199.587 12.6244 198.75 13.7456C197.914 14.8667 196.783 15.7853 195.46 16.4205C194.136 17.0557 192.659 17.388 191.158 17.3881H137.087C135.587 17.388 134.11 17.0557 132.786 16.4205C131.462 15.7853 130.332 14.8667 129.495 13.7456C128.659 12.6244 128.141 11.3352 127.988 9.99151C127.835 8.64778 128.051 7.29077 128.618 6.04004H117.111C112.004 6.04004 107.106 7.86669 103.495 11.1181C99.8841 14.3696 97.8555 18.7795 97.8555 23.3777V243.118C97.8555 245.395 98.3535 247.65 99.3212 249.753C100.289 251.857 101.707 253.768 103.495 255.378C105.283 256.988 107.406 258.265 109.742 259.136C112.078 260.008 114.582 260.456 117.111 260.456H211.948C214.477 260.456 216.981 260.008 219.317 259.136C221.653 258.265 223.776 256.988 225.564 255.378C227.352 253.768 228.77 251.857 229.738 249.753C230.705 247.65 231.203 245.395 231.203 243.118V23.3777C231.203 18.7795 229.175 14.3696 225.564 11.1181C221.953 7.86669 217.055 6.04005 211.948 6.04006Z" fill="white"/>
<path d="M166.352 189.867C159.368 189.873 152.452 188.639 145.998 186.235C139.545 183.831 133.681 180.305 128.743 175.859C123.805 171.412 119.889 166.133 117.219 160.322C114.55 154.511 113.179 148.283 113.186 141.995C113.176 133.165 115.882 124.505 121.005 116.975C126.127 109.446 133.466 103.341 142.207 99.3378C148.543 96.4353 155.46 94.7039 162.551 94.2456C169.641 93.7874 176.762 94.6116 183.494 96.6697C195.415 100.328 205.507 107.677 211.973 117.409C218.439 127.141 220.858 138.624 218.801 149.812C216.743 161 210.341 171.167 200.736 178.502C191.131 185.838 178.946 189.865 166.352 189.867ZM166.352 95.9999C158.286 95.9785 150.332 97.6964 143.155 101.01C136.881 103.888 131.336 107.903 126.868 112.802C122.399 117.701 119.104 123.38 117.188 129.481C115.273 135.581 114.779 141.973 115.737 148.254C116.695 154.535 119.085 160.569 122.757 165.979C126.428 171.388 131.302 176.056 137.073 179.689C142.843 183.322 149.385 185.842 156.288 187.09C163.191 188.338 170.307 188.287 177.187 186.942C184.068 185.596 190.565 182.984 196.271 179.27C199.03 177.477 201.581 175.439 203.886 173.186C210.626 166.619 215.094 158.425 216.742 149.606C218.389 140.788 217.145 131.728 213.162 123.537C209.179 115.345 202.629 108.378 194.315 103.487C186.001 98.5957 176.283 95.9939 166.352 95.9999Z" fill="#F0F0F0"/>
<path d="M51.1493 99.51C52.6086 99.6747 54.0101 100.126 55.255 100.831C56.4999 101.536 57.5579 102.478 58.3546 103.592C59.1512 104.705 59.6671 105.962 59.8658 107.274C60.0646 108.586 59.9414 109.922 59.505 111.186L77.1696 124.435L70.8461 136.065L46.1922 117.039C43.8812 116.238 41.9769 114.702 40.84 112.721C39.7032 110.74 39.4127 108.453 40.0237 106.292C40.6348 104.131 42.1048 102.247 44.1553 100.998C46.2059 99.7475 48.6943 99.2183 51.1493 99.51Z" fill="#FFB6B6"/>
<path d="M216.127 154.761C215.772 151.332 214.308 145.167 213.065 142.888C209.245 133.884 184.56 126.484 181.245 125.53L180.404 117.114L146.107 113.791L141.756 124.554L129.455 128.709C128.62 128.99 127.864 129.433 127.242 130.008C126.619 130.582 126.146 131.274 125.855 132.032L114.819 134.905L103.928 137.739L66.0933 113.734L64.307 114.786L52.3674 121.801L50.5254 122.883L99.4872 162.658L117.675 158.816L131.352 155.918L132.52 160.186L129.497 175.18C138.255 183.069 149.849 187.89 162.198 188.779C174.547 189.668 186.844 186.566 196.883 180.03L204.652 173.822C210.068 168.55 214.065 162.227 216.335 155.343L216.127 154.761Z" fill="#E4E4E4"/>
<path d="M174.033 106.907C186.98 103.047 194.001 90.4676 189.714 78.8097C185.427 67.1517 171.457 60.83 158.509 64.6898C145.562 68.5497 138.541 81.1294 142.828 92.7874C147.115 104.445 161.086 110.767 174.033 106.907Z" fill="#FFB6B6"/>
<path d="M146.766 60.4499C149.166 57.3628 152.769 55.202 156.858 54.3969C160.901 53.6482 165.108 54.3431 168.593 56.335C172.382 54.9606 176.467 54.0488 180.481 54.5124C184.495 54.9759 188.429 56.9946 190.286 60.3204C190.677 61.182 191.151 62.0109 191.703 62.7977C193.339 64.7634 196.38 65.0183 199.065 65.1127C197.707 65.8258 196.35 66.5388 194.991 67.2517C196.345 67.8195 197.698 68.3874 199.052 68.9553C197.21 69.5884 195.368 70.2215 193.526 70.8547C197.813 74.2479 198.85 80.2867 197.226 85.3495C195.69 90.1429 192.166 94.1781 188.232 97.6327C187.464 95.055 188.308 92.2603 188.871 89.5916C189.464 86.7718 189.56 83.4746 187.367 81.4838C185.888 80.1408 183.718 79.7351 181.672 79.4093C171.352 77.7659 160.937 76.6524 150.477 76.074C149.077 75.8999 147.651 76.031 146.319 76.4563C143.773 77.4749 142.75 80.2721 142.013 82.7523C141.659 78.3988 141.942 74.0224 142.852 69.735C143.55 66.4536 144.649 63.1693 146.766 60.4499Z" fill="#2F2E41"/>
<path d="M178.861 212.422H149.672C148.658 212.422 147.686 212.059 146.969 211.414C146.252 210.768 145.85 209.893 145.85 208.98C145.85 208.067 146.252 207.192 146.969 206.546C147.686 205.901 148.658 205.538 149.672 205.538H178.861C179.875 205.538 180.847 205.901 181.564 206.546C182.281 207.192 182.684 208.067 182.684 208.98C182.684 209.893 182.281 210.768 181.564 211.414C180.847 212.059 179.875 212.422 178.861 212.422Z" fill="#E86E39"/>
<path d="M83.0799 28.2383H2.79201C2.05216 28.2373 1.34299 27.9719 0.820251 27.5005C0.297508 27.029 0.00390625 26.3901 0.00390625 25.7239C0.00390625 25.0577 0.297508 24.4188 0.820251 23.9473C1.34299 23.4759 2.05216 23.2105 2.79201 23.2095H83.0799C83.8205 23.2095 84.5308 23.4744 85.0545 23.9459C85.5782 24.4175 85.8724 25.057 85.8724 25.7239C85.8724 26.3908 85.5782 27.0303 85.0545 27.5019C84.5308 27.9734 83.8205 28.2383 83.0799 28.2383Z" fill="#E86E39"/>
<path d="M129.436 44.2981H2.79233C2.05175 44.2981 1.34151 44.0332 0.81785 43.5617C0.294187 43.0902 0 42.4506 0 41.7838C0 41.117 0.294187 40.4775 0.81785 40.0059C1.34151 39.5344 2.05175 39.2695 2.79233 39.2695H129.436C130.176 39.2695 130.887 39.5344 131.41 40.0059C131.934 40.4775 132.228 41.117 132.228 41.7838C132.228 42.4506 131.934 43.0902 131.41 43.5617C130.887 44.0332 130.176 44.2981 129.436 44.2981Z" fill="#E86E39"/>
<path d="M105.099 59.4275H2.79233C2.05176 59.4275 1.34151 59.1626 0.81785 58.6911C0.294188 58.2196 0 57.58 0 56.9132C0 56.2464 0.294188 55.6069 0.81785 55.1353C1.34151 54.6638 2.05176 54.3989 2.79233 54.3989H105.099C105.84 54.3989 106.55 54.6638 107.073 55.1353C107.597 55.6069 107.891 56.2464 107.891 56.9132C107.891 57.58 107.597 58.2196 107.073 58.6911C106.55 59.1626 105.84 59.4275 105.099 59.4275Z" fill="#CACACA"/>
<path d="M60.4823 74.5017H2.79233C2.05176 74.5017 1.34151 74.2368 0.81785 73.7653C0.294188 73.2938 0 72.6543 0 71.9874C0 71.3206 0.294188 70.6811 0.81785 70.2096C1.34151 69.738 2.05176 69.4731 2.79233 69.4731H60.4823C61.2229 69.4731 61.9331 69.738 62.4568 70.2096C62.9804 70.6811 63.2746 71.3206 63.2746 71.9874C63.2746 72.6543 62.9804 73.2938 62.4568 73.7653C61.9331 74.2368 61.2229 74.5017 60.4823 74.5017Z" fill="#CACACA"/>
<path d="M92.3511 89.5745H2.79182C2.05201 89.5734 1.34292 89.3081 0.820208 88.8367C0.297497 88.3652 0.00390625 87.7263 0.00390625 87.0602C0.00390625 86.394 0.297497 85.7551 0.820208 85.2837C1.34292 84.8123 2.05201 84.5469 2.79182 84.5459H92.3511C93.0909 84.5469 93.8 84.8123 94.3227 85.2837C94.8454 85.7551 95.139 86.394 95.139 87.0602C95.139 87.7263 94.8454 88.3652 94.3227 88.8367C93.8 89.3081 93.0909 89.5734 92.3511 89.5745Z" fill="#CACACA"/>
<path d="M344.754 335.561L337.558 335.56L334.135 310.568L344.756 310.569L344.754 335.561Z" fill="#9F616A"/>
<path d="M347.585 344.528L320.111 344.527V344.214C320.112 341.661 321.238 339.212 323.244 337.406C325.249 335.6 327.969 334.586 330.805 334.586H330.805L335.824 331.158L345.187 334.586L347.585 334.586L347.585 344.528Z" fill="#2F2E41"/>
<path d="M340.562 218.102L337.388 183.259L334.895 170.181L348.854 167.405L353.486 185.309L349.45 219.069C350.264 219.967 350.762 221.064 350.878 222.218C350.994 223.373 350.725 224.533 350.104 225.548C349.483 226.564 348.539 227.389 347.393 227.918C346.247 228.447 344.952 228.655 343.674 228.516C342.395 228.377 341.192 227.897 340.219 227.137C339.246 226.378 338.548 225.374 338.213 224.255C337.879 223.135 337.923 221.951 338.342 220.855C338.76 219.758 339.533 218.8 340.562 218.102Z" fill="#9F616A"/>
<path d="M306.53 335.561L299.334 335.56L295.91 310.568L306.531 310.569L306.53 335.561Z" fill="#9F616A"/>
<path d="M295.014 226L291.824 230.969C291.824 230.969 288.319 231.831 289.464 242.12C290.61 252.408 290.659 313.365 296.205 320.865L297.208 327.306L307.679 328.207L307.943 322.492L320.429 243.09C320.429 243.09 327.782 321.038 333.865 322.945L336.062 329.439L345.659 329.443L345.092 321.79L345.711 225.195L295.014 226Z" fill="#2F2E41"/>
<path d="M291.506 230.59L291.285 230.539C297.87 208.364 295.97 179.648 291.321 148.814L291.321 148.686L308.128 134.825H322.723L337.191 143.232C346.545 147.443 348.67 156.36 348.691 156.45L348.705 156.514L342.974 174.526L347.292 226.618L347.297 226.679L347.272 226.735C345.875 229.925 342.13 229.471 337.795 228.944C333.467 228.419 317.518 233.224 312.628 233.224C303.071 233.224 292.189 230.748 291.506 230.59Z" fill="#E4E4E4"/>
<path d="M334.162 150.253L340.431 147.797L348.692 156.916L355.388 186.139L332.453 183.01L334.162 150.253Z" fill="#E4E4E4"/>
<path d="M237.726 204.14L266.388 180.557L276.349 170.778L287.33 179.02L274.439 193.276L242.317 211.061C242.026 212.191 241.367 213.216 240.424 214.005C239.481 214.795 238.297 215.313 237.025 215.492C235.753 215.671 234.451 215.504 233.285 215.011C232.119 214.519 231.144 213.724 230.483 212.729C229.823 211.733 229.509 210.583 229.58 209.425C229.652 208.268 230.106 207.156 230.885 206.233C231.663 205.309 232.731 204.617 233.95 204.244C235.169 203.871 236.484 203.834 237.726 204.14Z" fill="#9F616A"/>
<path d="M265.764 180.813L273.702 171.531C273.768 171.398 280.354 158.145 286.063 152.387C291.919 146.481 296.529 149.501 296.575 149.534L296.69 149.612L297.009 171.424L275.028 195.074L265.764 180.813Z" fill="#E4E4E4"/>
<path d="M327.184 121.768C328.368 115.201 323.415 109.013 316.121 107.948C308.828 106.882 301.956 111.342 300.772 117.909C299.588 124.476 304.542 130.664 311.835 131.73C319.129 132.796 326.001 128.336 327.184 121.768Z" fill="#9F616A"/>
<path d="M301.748 118.051C301.748 118.051 301.641 113.816 301.047 111.942C300.452 110.068 299.263 108.462 299.857 108.462C300.452 108.462 300.749 107.123 300.749 107.123C300.749 107.123 301.344 106.855 301.641 107.123C301.939 107.391 302.236 105.249 302.236 105.249C302.236 105.249 302.533 104.446 302.83 104.981C303.128 105.517 303.128 105.249 303.425 104.446C303.722 103.643 305.209 103.107 305.209 103.107C305.209 103.107 310.858 103.375 311.75 102.304C312.642 101.234 322.75 102.037 324.832 103.375C326.913 104.714 336.129 109.532 334.643 113.548C333.156 117.564 328.877 126.809 327.805 127.736C326.109 129.202 324.935 129.731 316.911 131.168C315.341 131.45 307.326 126.834 307.326 126.031C307.326 125.228 308.292 122.681 306.739 122.331C304.391 121.803 304.127 124.476 303.532 123.673C302.938 122.869 301.748 118.051 301.748 118.051Z" fill="#2F2E41"/>
<path d="M309.362 344.528L281.889 344.527V344.214C281.889 341.661 283.016 339.212 285.021 337.406C287.026 335.6 289.746 334.586 292.582 334.586H292.583L297.601 331.158L306.964 334.586L309.363 334.586L309.362 344.528Z" fill="#2F2E41"/>
<path d="M452.173 345H2.31383C2.09436 345 1.88389 344.921 1.72871 344.782C1.57352 344.642 1.48633 344.452 1.48633 344.255C1.48633 344.057 1.57352 343.868 1.72871 343.728C1.88389 343.588 2.09436 343.51 2.31383 343.51H452.173C452.393 343.51 452.603 343.588 452.759 343.728C452.914 343.868 453.001 344.057 453.001 344.255C453.001 344.452 452.914 344.642 452.759 344.782C452.603 344.921 452.393 345 452.173 345Z" fill="#CACACA"/>
</g>
<defs>
<clipPath id="clip0_2154_42704">
<rect width="453" height="345" fill="white"/>
</clipPath>
</defs>
</svg>
