<svg width="432" height="366" viewBox="0 0 432 366" fill="none" xmlns="http://www.w3.org/2000/svg">
<g clip-path="url(#clip0_2154_42662)">
<path d="M416.451 298.888H15.5493C6.97557 298.888 0 291.925 0 283.366V235.197H432V283.366C432 291.925 425.025 298.888 416.451 298.888Z" fill="#E6E6E6"/>
<path d="M267.885 290.83H165.65V363.729H267.885V290.83Z" fill="#E6E6E6"/>
<path d="M274.036 354.521H159.502V363.729H274.036V354.521Z" fill="#E6E6E6"/>
<path d="M431.616 255.532H0V10.6524C0 4.77878 4.787 0 10.6707 0H420.945C426.829 0 431.616 4.77878 431.616 10.6524V255.532Z" fill="#3F3D56"/>
<path d="M421.239 11.127H9.99414V242.103H421.239V11.127Z" fill="white"/>
<path d="M89.6347 148.794C92.7823 146.198 96.6756 145.715 98.3304 147.715C99.9853 149.715 98.775 153.44 95.6259 156.037C94.3822 157.092 92.9037 157.833 91.3139 158.201L77.8383 169.033L72.8809 162.612L86.6917 152.615C87.353 151.125 88.3622 149.815 89.6347 148.794Z" fill="#FFB6B6"/>
<path d="M11.7467 173.236C11.7398 172.757 11.7443 168.578 14.8434 165.937C18.4033 162.903 23.4266 164.131 25.1885 164.562C29.2584 165.557 29.5922 167.299 33.4143 169.09C40.5651 172.441 31.6055 170.726 35.8604 169.651C37.3332 169.28 58.5218 167.813 63.796 164.572C74.0537 158.269 81.043 154.448 81.043 154.448L85.612 163.57C85.612 163.57 79.0052 172.741 69.7067 179.535C60.1685 186.504 55.3994 189.988 48.1517 191.334C47.5275 191.45 32.1774 194.067 19.8141 184.846C16.9941 182.743 11.8272 178.889 11.7467 173.236Z" fill="#E86E39"/>
<path d="M25.9205 150.035C34.711 150.035 41.8372 142.922 41.8372 134.146C41.8372 125.371 34.711 118.257 25.9205 118.257C17.13 118.257 10.0039 125.371 10.0039 134.146C10.0039 142.922 17.13 150.035 25.9205 150.035Z" fill="#FFB6B6"/>
<path d="M150.574 240.897L134.182 224.146L125.721 232.958L137.933 249.018L150.047 250.401L150.574 240.897Z" fill="#FFB6B6"/>
<path d="M56.9752 209.486C57.934 209.565 60.9808 210.175 63.8929 208.575C65.8804 207.484 66.8997 205.861 67.2439 205.344C71.5149 198.941 87.9079 188.955 102.62 188.341C105.952 188.202 108.145 188.587 110.138 189.624C112.965 191.095 114.093 193.202 117.68 198.137C119.642 200.837 121.812 203.38 123.798 206.063C135.422 221.767 139.829 222.999 139.379 228.034C138.879 233.62 132.844 238.92 128.833 238.308C127.191 238.057 126.555 236.917 124.36 234.609C117.925 227.841 115.263 229.091 110.682 223.907C105.333 217.855 106.033 212.837 103.243 212.643C100.655 212.463 99.5551 216.744 94.0303 222.431C91.5023 225.034 89.7021 226.227 84.2177 230.026C62.8601 244.817 62.5192 245.856 58.209 247.036C56.3233 247.552 42.9388 251.215 38.1709 245.386C30.7096 236.263 48.3362 208.769 56.9752 209.486Z" fill="#2F2E41"/>
<path d="M145.563 244.682C146.768 244.141 148.178 243.509 148.631 242.056C148.938 241.073 148.762 239.861 148.127 239.023C147.395 238.056 146.312 237.929 146.356 237.758C146.423 237.497 148.984 237.599 151.796 238.592C152.327 238.779 154.731 239.656 157.789 242.039C160.239 243.948 159.909 244.331 161.446 245.432C166.162 248.812 170.585 246.148 173.137 249.318C174.122 250.541 174.542 252.278 174.127 253.682C173.295 256.502 169.247 257.472 167.035 257.973C161.707 259.18 157.675 258.195 153.464 257.487C139.144 255.078 131.098 257.272 130.021 253.96C129.817 253.333 130.149 253.386 131.253 248.787C132.342 244.247 132.307 243 133.235 242.636C134.632 242.089 135.57 244.578 139.089 245.43C142.208 246.185 144.782 245.032 145.563 244.682Z" fill="#2F2E41"/>
<path d="M121.431 295.693L117.29 272.645L105.332 275.192L106.403 295.327L115.649 303.262L121.431 295.693Z" fill="#FFB6B6"/>
<path d="M61.6511 217.233C62.3997 217.837 64.578 220.049 67.8874 220.358C70.1459 220.569 71.9023 219.797 72.4775 219.563C79.6136 216.659 98.7949 217.585 111.314 225.324C114.149 227.077 115.747 228.625 116.813 230.601C118.325 233.402 118.073 235.778 118.265 241.872C118.37 245.206 118.735 248.527 118.869 251.86C119.654 271.371 122.607 274.861 119.403 278.774C115.847 283.116 107.872 284.119 104.898 281.364C103.679 280.236 103.794 278.936 103.277 275.796C101.76 266.588 98.8534 266.131 97.9785 259.273C96.9571 251.267 100.359 247.507 98.1593 245.782C96.1191 244.183 92.801 247.109 85.0305 248.717C81.4749 249.453 79.3139 249.432 72.6392 249.5C46.6467 249.767 45.78 250.436 41.5499 248.996C39.6992 248.366 26.5637 243.894 25.8976 236.398C24.8552 224.667 54.9058 211.798 61.6511 217.233Z" fill="#2F2E41"/>
<path d="M115.156 296.015C116.457 296.244 117.979 296.511 119.172 295.563C119.979 294.922 120.515 293.82 120.461 292.771C120.399 291.561 119.574 290.848 119.707 290.731C119.909 290.553 121.971 292.073 123.74 294.471C124.073 294.923 125.569 296.996 126.759 300.682C127.712 303.636 127.224 303.768 127.876 305.54C129.877 310.98 135.036 311.256 135.364 315.309C135.491 316.873 134.862 318.546 133.729 319.475C131.454 321.342 127.559 319.876 125.447 319.051C120.359 317.062 117.577 313.987 114.491 311.04C103.997 301.02 96.1052 298.325 97.0771 294.981C97.261 294.348 97.505 294.577 101.006 291.39C104.461 288.245 105.133 287.193 106.106 287.412C107.569 287.743 106.945 290.328 109.378 293.006C111.534 295.379 114.313 295.867 115.156 296.015Z" fill="#2F2E41"/>
<path d="M28.0911 137.184C28.7107 134.971 27.9324 134.165 28.7257 133.171C28.7257 133.171 29.0449 132.772 31.8988 131.693C31.0568 126.816 31.6872 125.991 31.6872 125.991C32.4138 125.041 33.8694 124.811 34.8603 124.936C36.9561 125.198 37.327 127.09 38.668 127.047C40.5205 126.989 42.7423 123.287 42.0527 120.078C41.4901 117.461 39.0645 115.518 38.4565 115.855C37.8536 116.189 35.6834 114.715 34.8603 115.01C34.2982 115.212 31.6525 114.944 31.0526 115.221C30.3975 115.525 28.5213 117.414 28.3419 117.176C27.0954 115.522 27.1219 114.944 26.3987 114.588C25.1173 113.956 23.7241 115.124 21.3218 116.277C16.3791 118.651 14.9317 117.235 12.6487 119.234C11.4954 120.243 10.8769 122.173 9.68713 125.991C8.02318 131.331 7.19121 134.001 7.99482 136.55C8.81435 139.15 10.0212 138.584 11.8025 142.252C13.7854 146.335 13.102 148.708 14.9756 149.643C16.4237 150.366 18.7508 149.906 19.6295 148.587C21.1338 146.33 17.2456 143.276 18.5718 139.718C19.3859 137.534 21.8972 135.878 23.4372 136.339C25.1785 136.86 25.3068 139.977 26.3988 139.929C27.3339 139.888 27.9831 137.569 28.0911 137.184Z" fill="#2F2E41"/>
<path d="M16.0331 152.388C19.2902 148.742 32.5572 152.516 33.8024 158.301C34.3146 160.681 32.4238 161.685 32.9563 164.425C33.7351 168.433 38.1447 168.159 41.4178 172.239C46.0647 178.03 41.2775 183.691 46.4948 193.356C47.6096 195.422 48.5493 197.162 50.514 198.847C55.0225 202.713 59.2184 201.387 61.5141 204.971C63.2308 207.651 62.5255 210.955 62.3602 211.729C61.6827 214.902 59.8464 215.675 58.5525 218.275C56.3998 222.601 58.8372 225.777 58.9756 230.946C59.1488 237.413 55.7063 246.377 48.8217 249.318C41.0872 252.622 31.7588 247.15 27.2447 241.716C24.5511 238.473 23.7692 235.482 22.5908 231.79C17.3243 215.291 14.349 216.783 10.3216 203.704C5.71744 188.752 4.81232 171.235 10.3216 165.692C11.0518 164.958 13.0614 163.259 14.3408 160.202C16.0624 156.087 14.5751 154.02 16.0331 152.388Z" fill="#E86E39"/>
<path d="M64.1594 237.256C66.6847 240.459 67.0762 244.356 65.034 245.96C62.9918 247.564 59.2899 246.267 56.7641 243.063C55.7376 241.796 55.0298 240.303 54.6999 238.708L44.1719 225.002L49.6119 220.859L60.4037 234.228C61.8799 234.923 63.1677 235.961 64.1594 237.256Z" fill="#FFB6B6"/>
<path d="M25.6025 166.282C26.0709 166.178 30.1698 165.33 33.3923 167.819C37.094 170.679 36.9147 175.839 36.8519 177.649C36.7066 181.829 35.0655 182.511 34.0892 186.612C32.2627 194.284 35.7412 201.414 37.6629 205.353C38.3281 206.716 40.4652 210.888 44.7193 215.381C52.993 224.12 60.3752 228.718 60.3752 228.718L52.4446 235.756C52.4446 235.756 39.8121 231.912 31.2523 224.211C22.4719 216.311 8.96928 188.362 6.17014 181.554C5.92909 180.967 9.34366 190.499 15.8633 176.536C17.3505 173.35 20.0752 167.515 25.6025 166.282Z" fill="#E86E39"/>
<path d="M228.58 159.727L219.111 155.249C222.995 160.66 226.342 169.11 228.133 175.834C231.167 169.571 236.057 161.907 240.897 157.329L230.89 159.899C237.056 129.728 260.251 108.068 286.811 108.068L287.187 106.979C259.444 106.979 234.877 128.338 228.58 159.727Z" fill="#3F3D56"/>
<path d="M272.161 205.696H212.333C209.795 205.696 207.73 203.635 207.73 201.102C207.73 198.569 209.795 196.508 212.333 196.508H272.161C274.699 196.508 276.764 198.569 276.764 201.102C276.764 203.635 274.699 205.696 272.161 205.696Z" fill="#E86E39"/>
<path d="M351.773 205.696H291.944C289.406 205.696 287.342 203.635 287.342 201.102C287.342 198.569 289.406 196.508 291.944 196.508H351.773C354.31 196.508 356.375 198.569 356.375 201.102C356.375 203.635 354.31 205.696 351.773 205.696Z" fill="#E6E6E6"/>
<path d="M316.353 80.7139H258.196C256.73 80.7139 255.537 79.523 255.537 78.0593C255.537 76.5957 256.73 75.4053 258.196 75.4053H316.353C317.819 75.4053 319.011 76.5957 319.011 78.0593C319.011 79.523 317.819 80.7139 316.353 80.7139Z" fill="#3F3D56"/>
<path d="M347.56 109.033H226.989C225.523 109.033 224.33 107.842 224.33 106.379C224.33 104.915 225.523 103.725 226.989 103.725H347.56C349.026 103.725 350.219 104.915 350.219 106.379C350.219 107.842 349.026 109.033 347.56 109.033Z" fill="#3F3D56"/>
<path d="M26.1426 364.409C26.1426 364.885 26.5262 365.268 27.0039 365.268H404.998C405.476 365.268 405.859 364.885 405.859 364.409C405.859 363.932 405.476 363.549 404.998 363.549H27.0039C26.5262 363.549 26.1426 363.932 26.1426 364.409Z" fill="#3F3D56"/>
<path d="M118.958 160.605C118.855 160.605 118.753 160.601 118.65 160.595C112.593 160.207 91.8686 157.279 79.4962 135.924C78.4766 134.165 78.6775 131.93 79.9956 130.362L102.909 103.109C103.846 101.994 105.293 101.352 106.759 101.369C107.772 101.394 110.171 101.649 110.637 103.495C113.39 114.402 125.013 127.226 138.991 128.926C140.408 129.098 141.545 130.36 142.033 132.302C142.414 133.813 142.062 135.371 141.067 136.576L122.712 158.827C121.78 159.957 120.411 160.605 118.958 160.605ZM106.671 102.466C105.552 102.466 104.463 102.967 103.751 103.813L80.8377 131.067C79.8151 132.283 79.6585 134.014 80.4471 135.374C92.5467 156.259 112.801 159.12 118.721 159.5C119.929 159.581 121.09 159.067 121.864 158.13L140.219 135.879C140.99 134.945 141.263 133.739 140.968 132.569C140.68 131.423 139.974 130.151 138.858 130.015C124.418 128.259 112.413 115.021 109.572 103.763C109.342 102.851 107.956 102.495 106.736 102.466C106.715 102.466 106.693 102.466 106.671 102.466Z" fill="#3F3D56"/>
<path d="M93.3809 136.82L109.9 120.006C111.03 118.856 109.26 117.087 108.13 118.238L91.6104 135.053C90.4812 136.202 92.2503 137.971 93.3809 136.82Z" fill="#E6E6E6"/>
<path d="M103.353 141.558C107.912 137.479 111.874 132.755 115.118 127.572C115.974 126.204 113.809 124.948 112.956 126.311C109.819 131.321 105.989 135.847 101.582 139.79C100.38 140.866 102.155 142.629 103.353 141.558Z" fill="#E6E6E6"/>
<path d="M112.337 147.23C116.488 142.639 120.021 137.516 122.803 131.99C123.525 130.557 121.365 129.289 120.641 130.729C117.953 136.068 114.578 141.026 110.566 145.462C109.489 146.653 111.254 148.427 112.337 147.23Z" fill="#E6E6E6"/>
<path d="M105.26 116.958C114.459 116.958 121.915 109.671 121.915 100.682C121.915 91.6932 114.459 84.4062 105.26 84.4062C96.0621 84.4062 88.6055 91.6932 88.6055 100.682C88.6055 109.671 96.0621 116.958 105.26 116.958Z" fill="#E86E39"/>
<path d="M113.926 108.403C111.364 102.116 108.803 95.8295 106.241 89.5427C105.888 88.6744 104.779 88.6436 104.434 89.5427C101.903 96.1339 100.249 103.012 99.4543 110.024C99.3189 111.219 101.194 111.209 101.328 110.024C101.64 107.28 102.101 104.556 102.694 101.862C104.805 101.972 106.933 101.736 108.97 101.173C110.019 103.749 111.069 106.325 112.118 108.901C112.567 110.001 114.381 109.52 113.926 108.403ZM103.119 100.012C103.751 97.4326 104.508 94.8837 105.386 92.3758L108.258 99.4259C106.576 99.8667 104.855 100.063 103.119 100.012Z" fill="white"/>
</g>
<defs>
<clipPath id="clip0_2154_42662">
<rect width="432" height="365.268" fill="white"/>
</clipPath>
</defs>
</svg>
