<svg width="472" height="363" viewBox="0 0 472 363" fill="none" xmlns="http://www.w3.org/2000/svg">
<g clip-path="url(#clip0_2154_42334)">
<path d="M206.294 299.663H9.35197C6.87253 299.661 4.49544 298.824 2.74221 297.337C0.988984 295.849 0.00279044 293.832 0 291.728V64.8803C0.00279044 62.7766 0.988983 60.7596 2.74221 59.272C4.49545 57.7844 6.87253 56.9477 9.35197 56.9453H206.294C208.773 56.9477 211.15 57.7844 212.903 59.272C214.657 60.7596 215.643 62.7766 215.646 64.8803V291.728C215.643 293.832 214.657 295.849 212.903 297.337C211.15 298.824 208.773 299.661 206.294 299.663Z" fill="white"/>
<path d="M98.945 115.983C98.945 122.535 96.5023 128.919 91.9665 134.221C87.4306 139.523 81.0342 143.472 73.6927 145.502C73.4731 145.561 73.2538 145.62 73.0309 145.677C72.0799 145.925 71.1156 146.136 70.1345 146.317C68.3592 146.644 66.5573 146.856 64.7442 146.952C63.9563 146.997 63.1637 147.02 62.3667 147.02C58.2486 147.023 54.1596 146.435 50.2725 145.282C50.1595 145.248 50.0465 145.214 49.9367 145.18C43.6389 143.25 38.0861 139.89 33.8836 135.467C29.681 131.044 26.9898 125.727 26.1033 120.096C25.2168 114.464 26.1689 108.735 28.856 103.531C31.543 98.3267 35.8619 93.8484 41.342 90.5836C46.8221 87.3189 53.2531 85.393 59.9344 85.0158C66.6156 84.6386 73.2907 85.8245 79.2322 88.4444C85.1738 91.0643 90.1539 95.0177 93.6299 99.8737C97.1059 104.73 98.9443 110.302 98.945 115.983Z" fill="white"/>
<path d="M61.4901 136.545C71.319 136.545 79.2868 129.785 79.2868 121.445C79.2868 113.105 71.319 106.345 61.4901 106.345C51.6612 106.345 43.6934 113.105 43.6934 121.445C43.6934 129.785 51.6612 136.545 61.4901 136.545Z" fill="#E86E39"/>
<path d="M62.5292 129.582L62.5477 129.018C61.3105 128.988 60.2197 128.922 59.4001 128.414C59.1677 128.262 58.9767 128.069 58.8401 127.849C58.7034 127.628 58.6243 127.385 58.6082 127.137C58.5938 126.985 58.6209 126.832 58.6874 126.69C58.7539 126.549 58.8579 126.422 58.9915 126.32C59.3012 126.161 59.6558 126.075 60.0179 126.073C60.38 126.07 60.7363 126.15 61.0492 126.305L61.5995 126.519L60.5443 119.976L59.8854 120.052L60.783 125.618C60.4155 125.502 60.0199 125.467 59.632 125.514C59.2441 125.561 58.8763 125.69 58.5623 125.889C58.351 126.046 58.1852 126.241 58.0779 126.461C57.9706 126.681 57.9246 126.919 57.9436 127.157C57.9631 127.491 58.0684 127.817 58.2522 128.113C58.436 128.409 58.6939 128.668 59.0078 128.87C60.0609 129.523 61.4295 129.556 62.5292 129.582Z" fill="#2F2E41"/>
<path d="M56.6248 120.532H53.043V121.097H56.6248V120.532Z" fill="#2F2E41"/>
<path d="M67.9334 120.532H64.3516V121.097H67.9334V120.532Z" fill="#2F2E41"/>
<path d="M66.5454 142.556C66.5926 142.371 66.6171 142.182 66.6186 141.992C66.6173 141.281 66.284 140.6 65.6919 140.098C65.0997 139.595 64.297 139.313 63.4596 139.312H58.8041C57.9665 139.312 57.1635 139.595 56.5712 140.097C55.9789 140.6 55.6459 141.281 55.6451 141.992C55.6449 142.183 55.6694 142.373 55.7181 142.559C53.9608 143.029 52.2996 143.726 50.7935 144.627C50.5008 144.799 50.2116 144.985 49.9355 145.18C50.0453 145.214 50.1583 145.248 50.2713 145.282C54.1584 146.436 58.2474 147.023 62.3655 147.02C63.1635 147.02 63.956 146.997 64.743 146.952C66.5561 146.856 68.3581 146.644 70.1333 146.317C71.1144 146.137 72.0787 145.925 73.0297 145.677C71.1482 144.264 68.9395 143.202 66.5454 142.556Z" fill="#2F2E41"/>
<path d="M65.9479 146.593C65.5164 146.62 65.101 146.744 64.7441 146.951C66.5572 146.855 68.3592 146.643 70.1344 146.316L65.9479 146.593Z" fill="#2F2E41"/>
<path d="M77.6296 117.858L46.713 108.261C46.3817 108.158 46.1121 107.948 45.9635 107.677C45.815 107.405 45.7996 107.095 45.9208 106.814L46.0254 106.394C48.4399 100.794 56.4429 97.2695 63.043 99.3182L72.5568 102.271C79.1569 104.32 82.0255 110.951 79.6109 116.551L79.3357 117.186C79.2145 117.467 78.9667 117.695 78.6467 117.821C78.3268 117.948 77.9609 117.961 77.6296 117.858Z" fill="#2F2E41"/>
<path d="M79.2953 118.391C36.2036 119.74 32.4383 115.146 45.568 107.922L48.3535 103.573L80.2764 113.448L79.2953 118.391Z" fill="#2F2E41"/>
<path d="M70.8464 101.583C71.0843 100.911 70.0653 100.058 68.5703 99.6765C67.0754 99.2952 65.6706 99.5305 65.4327 100.202C65.1948 100.874 66.2139 101.727 67.7088 102.108C69.2038 102.49 70.6085 102.254 70.8464 101.583Z" fill="#2F2E41"/>
<path d="M62.367 147.865C58.1366 147.869 53.9359 147.265 49.943 146.08L49.5959 145.975C41.2321 143.41 34.2114 138.412 29.7824 131.868C25.3534 125.325 23.8033 117.661 25.4076 110.239C27.0118 102.817 31.6666 96.118 38.5441 91.334C45.4215 86.5501 54.0758 83.9908 62.9679 84.1115C71.86 84.2322 80.4134 87.0249 87.107 91.993C93.8007 96.9612 98.2006 103.783 99.5243 111.244C100.848 118.706 99.0098 126.324 94.3364 132.744C89.6631 139.164 82.4576 143.97 74.0014 146.306C73.7651 146.37 73.5426 146.43 73.3166 146.487C72.3721 146.734 71.3701 146.955 70.3463 147.143C68.5215 147.479 66.6694 147.697 64.8058 147.796C64.0052 147.842 63.1827 147.865 62.367 147.865ZM62.367 85.793C53.9943 85.794 45.8901 88.2999 39.4798 92.87C33.0695 97.44 28.7637 103.782 27.3196 110.779C25.8755 117.777 27.3856 124.982 31.5844 131.129C35.7832 137.275 42.4017 141.968 50.2758 144.383L50.6053 144.483C54.3854 145.605 58.3621 146.176 62.367 146.172C63.138 146.172 63.9153 146.15 64.6773 146.107C66.442 146.013 68.1959 145.807 69.9239 145.489C70.8923 145.311 71.8391 145.101 72.7378 144.867C72.9604 144.81 73.1716 144.753 73.3829 144.696C81.4369 142.471 88.2911 137.88 92.7132 131.75C97.1354 125.62 98.8355 118.353 97.5081 111.255C96.1806 104.157 91.9125 97.693 85.4711 93.0258C79.0297 88.3586 70.8374 85.794 62.367 85.793Z" fill="#CCCCCC"/>
<path d="M206.294 299.663H9.35197C6.87253 299.661 4.49544 298.824 2.74221 297.337C0.988984 295.849 0.00279044 293.832 0 291.728V64.8803C0.00279044 62.7766 0.988983 60.7596 2.74221 59.272C4.49545 57.7844 6.87253 56.9477 9.35197 56.9453H206.294C208.773 56.9477 211.15 57.7844 212.903 59.272C214.657 60.7596 215.643 62.7766 215.646 64.8803V291.728C215.643 293.832 214.657 295.849 212.903 297.337C211.15 298.824 208.773 299.661 206.294 299.663ZM9.35197 57.8788C7.16423 57.8809 5.06683 58.6193 3.51986 59.9319C1.9729 61.2444 1.10271 63.0241 1.10023 64.8803V291.728C1.10271 293.585 1.97288 295.364 3.51984 296.677C5.0668 297.989 7.16423 298.728 9.35197 298.73H206.294C208.481 298.728 210.579 297.989 212.126 296.677C213.673 295.364 214.543 293.585 214.545 291.728V64.8803C214.543 63.0241 213.673 61.2444 212.126 59.9319C210.579 58.6193 208.481 57.8809 206.294 57.8788H9.35197Z" fill="#CCCCCC"/>
<path d="M168.168 115.862H112.44C111.272 115.861 110.152 115.466 109.326 114.765C108.501 114.064 108.037 113.113 108.037 112.122C108.037 111.13 108.501 110.18 109.326 109.478C110.152 108.777 111.272 108.382 112.44 108.381H168.168C168.747 108.38 169.321 108.477 169.857 108.664C170.392 108.852 170.879 109.127 171.289 109.475C171.699 109.822 172.024 110.235 172.246 110.689C172.468 111.143 172.582 111.63 172.582 112.122C172.582 112.613 172.468 113.1 172.246 113.554C172.024 114.008 171.699 114.421 171.289 114.768C170.879 115.116 170.392 115.391 169.857 115.579C169.321 115.767 168.747 115.863 168.168 115.862Z" fill="#E6E6E6"/>
<path d="M186.354 128.487H112.44C111.272 128.486 110.152 128.091 109.326 127.39C108.501 126.689 108.037 125.738 108.037 124.747C108.037 123.755 108.501 122.805 109.326 122.103C110.152 121.402 111.272 121.007 112.44 121.006H186.354C187.522 121.007 188.642 121.402 189.468 122.103C190.293 122.805 190.757 123.755 190.757 124.747C190.757 125.738 190.293 126.689 189.468 127.39C188.642 128.091 187.522 128.486 186.354 128.487Z" fill="#E6E6E6"/>
<path d="M168.086 176.909H29.2911C28.7117 176.91 28.1378 176.813 27.6023 176.626C27.0668 176.438 26.5801 176.163 26.1701 175.815C25.7602 175.468 25.435 175.055 25.2131 174.601C24.9912 174.147 24.877 173.66 24.877 173.168C24.877 172.677 24.9912 172.19 25.2131 171.736C25.435 171.282 25.7602 170.869 26.1701 170.522C26.5801 170.174 27.0668 169.899 27.6023 169.711C28.1378 169.523 28.7117 169.427 29.2911 169.428H168.086C169.255 169.429 170.375 169.824 171.2 170.525C172.026 171.226 172.49 172.177 172.49 173.168C172.49 174.16 172.026 175.111 171.2 175.812C170.375 176.513 169.255 176.908 168.086 176.909Z" fill="#E6E6E6"/>
<path d="M186.272 189.534H29.2911C28.7117 189.535 28.1378 189.438 27.6023 189.251C27.0668 189.063 26.5801 188.787 26.1701 188.44C25.7602 188.093 25.435 187.68 25.2131 187.226C24.9912 186.772 24.877 186.285 24.877 185.793C24.877 185.302 24.9912 184.815 25.2131 184.361C25.435 183.906 25.7602 183.494 26.1701 183.146C26.5801 182.799 27.0668 182.524 27.6023 182.336C28.1378 182.148 28.7117 182.052 29.2911 182.052H186.272C186.852 182.052 187.426 182.148 187.961 182.336C188.497 182.524 188.983 182.799 189.393 183.146C189.803 183.494 190.128 183.906 190.35 184.361C190.572 184.815 190.686 185.302 190.686 185.793C190.686 186.285 190.572 186.772 190.35 187.226C190.128 187.68 189.803 188.093 189.393 188.44C188.983 188.787 188.497 189.063 187.961 189.251C187.426 189.438 186.852 189.535 186.272 189.534Z" fill="#E6E6E6"/>
<path d="M168.087 218.551H29.2915C28.1222 218.551 27.0009 218.157 26.1741 217.455C25.3473 216.754 24.8828 215.802 24.8828 214.81C24.8828 213.818 25.3473 212.866 26.1741 212.165C27.0009 211.463 28.1222 211.069 29.2915 211.069H168.087C169.256 211.069 170.377 211.463 171.204 212.165C172.031 212.866 172.495 213.818 172.495 214.81C172.495 215.802 172.031 216.754 171.204 217.455C170.377 218.157 169.256 218.551 168.087 218.551Z" fill="#E6E6E6"/>
<path d="M186.273 231.176H29.2915C28.1222 231.176 27.0009 230.782 26.1741 230.08C25.3473 229.379 24.8828 228.427 24.8828 227.435C24.8828 226.443 25.3473 225.492 26.1741 224.79C27.0009 224.088 28.1222 223.694 29.2915 223.694H186.273C187.442 223.694 188.563 224.088 189.39 224.79C190.217 225.492 190.681 226.443 190.681 227.435C190.681 228.427 190.217 229.379 189.39 230.08C188.563 230.782 187.442 231.176 186.273 231.176Z" fill="#E6E6E6"/>
<path d="M168.087 260.193H29.2915C28.1222 260.193 27.0009 259.799 26.1741 259.098C25.3473 258.396 24.8828 257.445 24.8828 256.453C24.8828 255.461 25.3473 254.509 26.1741 253.808C27.0009 253.106 28.1222 252.712 29.2915 252.712H168.087C169.256 252.712 170.377 253.106 171.204 253.808C172.031 254.509 172.495 255.461 172.495 256.453C172.495 257.445 172.031 258.396 171.204 259.098C170.377 259.799 169.256 260.193 168.087 260.193Z" fill="#E6E6E6"/>
<path d="M186.273 272.817H29.2915C28.1222 272.817 27.0009 272.423 26.1741 271.722C25.3473 271.02 24.8828 270.069 24.8828 269.077C24.8828 268.085 25.3473 267.133 26.1741 266.432C27.0009 265.73 28.1222 265.336 29.2915 265.336H186.273C187.442 265.336 188.563 265.73 189.39 266.432C190.217 267.133 190.681 268.085 190.681 269.077C190.681 270.069 190.217 271.02 189.39 271.722C188.563 272.423 187.442 272.817 186.273 272.817Z" fill="#E6E6E6"/>
<path d="M462.647 242.718L265.706 242.718C263.226 242.716 260.849 241.879 259.096 240.391C257.343 238.904 256.357 236.887 256.354 234.783L256.354 7.93491C256.356 5.83114 257.342 3.81422 259.096 2.32662C260.849 0.839031 263.226 0.00225636 265.705 -0.00011281L462.647 -0.000244141C465.127 0.00212199 467.504 0.838885 469.257 2.32647C471.01 3.81406 471.996 5.83099 471.999 7.93476L471.999 234.783C471.997 236.887 471.01 238.904 469.257 240.391C467.504 241.879 465.127 242.715 462.647 242.718Z" fill="white"/>
<path d="M462.647 242.718L265.706 242.718C263.226 242.716 260.849 241.879 259.096 240.391C257.343 238.904 256.357 236.887 256.354 234.783L256.354 7.93491C256.356 5.83114 257.342 3.81422 259.096 2.32662C260.849 0.839031 263.226 0.00225636 265.705 -0.00011281L462.647 -0.000244141C465.127 0.00212199 467.504 0.838885 469.257 2.32647C471.01 3.81406 471.996 5.83099 471.999 7.93476L471.999 234.783C471.997 236.887 471.01 238.904 469.257 240.391C467.504 241.879 465.127 242.715 462.647 242.718ZM265.705 0.933419C263.518 0.935523 261.42 1.67386 259.873 2.98644C258.326 4.29901 257.456 6.07865 257.454 7.93491L257.454 234.783C257.456 236.639 258.327 238.419 259.874 239.731C261.421 241.044 263.518 241.782 265.706 241.784L462.647 241.784C464.835 241.782 466.933 241.044 468.479 239.731C470.026 238.419 470.897 236.639 470.899 234.783L470.899 7.93477C470.896 6.07851 470.026 4.29887 468.479 2.9863C466.932 1.67372 464.835 0.935389 462.647 0.933287L265.705 0.933419Z" fill="#CCCCCC"/>
<path d="M355.391 58.7285C355.391 64.8669 353.246 70.8674 349.226 75.9713C345.207 81.0751 339.494 85.0531 332.811 87.4022C326.127 89.7512 318.772 90.3659 311.677 89.1683C304.581 87.9708 298.064 85.0149 292.948 80.6744C287.832 76.3339 284.349 70.8038 282.937 64.7834C281.526 58.763 282.25 52.5226 285.019 46.8515C287.787 41.1804 292.476 36.3332 298.491 32.9229C304.506 29.5126 311.578 27.6924 318.813 27.6924C328.513 27.695 337.815 30.9657 344.674 36.7855C351.533 42.6054 355.388 50.498 355.391 58.7285Z" fill="white"/>
<path d="M335.718 64.0392C335.319 83.8884 300.521 83.8854 300.125 64.0386C300.524 44.1899 335.322 44.193 335.718 64.0392Z" fill="#E86E39"/>
<path d="M317.216 70.2L317.197 69.6357C321.781 70.155 322.768 65.3348 318.145 67.1369L319.201 60.5938L319.86 60.6704L318.962 66.2361C323.829 65.6214 322.029 70.7639 317.216 70.2Z" fill="#2F2E41"/>
<path d="M326.701 61.1504H323.119V61.7147H326.701V61.1504Z" fill="#2F2E41"/>
<path d="M315.394 61.1504H311.812V61.7147H315.394V61.1504Z" fill="#2F2E41"/>
<path d="M323.691 85.1516C324.389 81.1536 318.873 81.9436 315.953 81.9041C315.482 81.9053 315.018 81.9956 314.593 82.1685C314.169 82.3413 313.795 82.5923 313.5 82.9031C313.204 83.214 312.994 83.5768 312.885 83.9653C312.775 84.3538 312.769 84.7581 312.867 85.1488C310.607 85.7414 308.515 86.7209 306.719 88.0267C314.288 90.2662 322.513 90.3434 330.139 88.2467C328.28 86.8302 326.08 85.7741 323.691 85.1516Z" fill="#2F2E41"/>
<path d="M309.555 56.8967C312.853 55.2794 316.853 56.5202 320.26 57.1985C326.723 58.8845 335.788 56.7733 336.574 50.2401C337.392 44.1641 327.596 40.7777 324.465 46.8251L325.376 46.724C315.222 33.9196 297.559 34.4052 297.675 52.009C297.637 52.5529 298.635 52.551 298.672 52.0087C298.298 41.6351 306.39 34.5439 317.828 41.2105C320.382 42.9073 322.635 44.9082 324.515 47.1512C325.706 48.2839 325.965 43.4059 331.666 44.6836C337.941 46.746 335.893 54.3692 330.285 56.0427C323.356 59.0465 315.851 53.2226 309.051 56.1655C308.942 56.2241 308.864 56.3166 308.833 56.4233C308.802 56.53 308.822 56.6427 308.887 56.7375C308.952 56.8323 309.058 56.902 309.183 56.9317C309.308 56.9614 309.441 56.9488 309.555 56.8967Z" fill="#2F2E41"/>
<path d="M318.813 90.612C309.367 90.6052 300.272 87.5775 293.34 82.1327C286.408 76.688 282.15 69.2263 281.415 61.2358C280.68 53.2453 283.521 45.3132 289.373 39.0216C295.225 32.73 303.657 28.5412 312.987 27.2907C322.317 26.0401 331.86 27.8197 339.713 32.2744C347.565 36.7292 353.15 43.5318 355.354 51.3255C357.557 59.1192 356.217 67.3313 351.601 74.3239C346.985 81.3165 339.432 86.5756 330.448 89.0526C326.691 90.0893 322.764 90.6156 318.813 90.612ZM318.813 28.5397C311.775 28.5388 304.894 30.309 299.041 33.6265C293.188 36.9439 288.626 41.6595 285.932 47.1769C283.238 52.6943 282.533 58.7657 283.906 64.6232C285.279 70.4806 288.668 75.8611 293.645 80.084C298.622 84.307 304.964 87.1828 311.867 88.3477C318.771 89.5126 325.926 88.9143 332.429 86.6284C338.931 84.3426 344.489 80.4719 348.399 75.5058C352.309 70.5398 354.395 64.7015 354.394 58.7293C354.383 50.7253 350.631 43.0517 343.961 37.392C337.291 31.7323 328.247 28.5487 318.813 28.5397Z" fill="#CCCCCC"/>
<path d="M424.523 58.917L368.795 58.917C367.626 58.917 366.505 58.5229 365.678 57.8214C364.851 57.1199 364.387 56.1684 364.387 55.1763C364.387 54.1842 364.851 53.2327 365.678 52.5312C366.505 51.8297 367.626 51.4356 368.795 51.4356L424.523 51.4355C425.692 51.4355 426.814 51.8297 427.641 52.5312C428.467 53.2327 428.932 54.1842 428.932 55.1763C428.932 56.1684 428.467 57.1198 427.641 57.8213C426.814 58.5229 425.692 58.917 424.523 58.917Z" fill="#E6E6E6"/>
<path d="M442.709 71.542L368.795 71.542C368.216 71.5426 367.642 71.4463 367.106 71.2586C366.571 71.0709 366.084 70.7955 365.674 70.448C365.264 70.1006 364.939 69.688 364.717 69.2339C364.495 68.7797 364.381 68.2929 364.381 67.8013C364.381 67.3097 364.495 66.8229 364.717 66.3687C364.939 65.9146 365.264 65.502 365.674 65.1546C366.084 64.8072 366.571 64.5317 367.106 64.344C367.642 64.1563 368.216 64.06 368.795 64.0606L442.709 64.0605C443.878 64.0605 444.999 64.4547 445.826 65.1562C446.653 65.8577 447.117 66.8092 447.117 67.8013C447.117 68.7934 446.653 69.7448 445.826 70.4463C444.999 71.1479 443.878 71.542 442.709 71.542Z" fill="#E6E6E6"/>
<path d="M424.441 119.964L285.645 119.964C284.477 119.963 283.357 119.568 282.532 118.867C281.706 118.165 281.242 117.215 281.242 116.223C281.242 115.232 281.706 114.281 282.532 113.58C283.357 112.878 284.477 112.484 285.645 112.483L424.441 112.482C425.61 112.482 426.731 112.877 427.558 113.578C428.385 114.28 428.849 115.231 428.849 116.223C428.849 117.215 428.385 118.167 427.558 118.868C426.731 119.57 425.61 119.964 424.441 119.964Z" fill="#E6E6E6"/>
<path d="M442.626 132.589L285.645 132.589C285.065 132.59 284.491 132.493 283.956 132.306C283.42 132.118 282.934 131.842 282.524 131.495C282.114 131.148 281.788 130.735 281.567 130.281C281.345 129.827 281.23 129.34 281.23 128.848C281.23 128.357 281.345 127.87 281.567 127.416C281.788 126.962 282.114 126.549 282.524 126.202C282.934 125.854 283.42 125.579 283.956 125.391C284.491 125.203 285.065 125.107 285.645 125.108L442.626 125.107C443.795 125.107 444.916 125.502 445.743 126.203C446.57 126.905 447.034 127.856 447.034 128.848C447.034 129.84 446.57 130.792 445.743 131.493C444.916 132.195 443.795 132.589 442.626 132.589Z" fill="#E6E6E6"/>
<path d="M424.441 161.605L285.645 161.606C284.477 161.604 283.357 161.21 282.532 160.508C281.706 159.807 281.242 158.856 281.242 157.865C281.242 156.874 281.706 155.923 282.532 155.221C283.357 154.52 284.477 154.125 285.645 154.124L424.441 154.124C425.61 154.124 426.731 154.518 427.558 155.22C428.385 155.921 428.849 156.873 428.849 157.865C428.849 158.857 428.385 159.808 427.558 160.51C426.731 161.211 425.61 161.605 424.441 161.605Z" fill="#E6E6E6"/>
<path d="M442.626 174.23L285.645 174.231C285.065 174.231 284.491 174.135 283.956 173.947C283.42 173.759 282.934 173.484 282.524 173.137C282.114 172.789 281.788 172.377 281.567 171.922C281.345 171.468 281.23 170.981 281.23 170.49C281.23 169.998 281.345 169.511 281.567 169.057C281.788 168.603 282.114 168.191 282.524 167.843C282.934 167.496 283.42 167.22 283.956 167.033C284.491 166.845 285.065 166.749 285.645 166.749L442.626 166.749C443.795 166.749 444.916 167.143 445.743 167.845C446.57 168.546 447.034 169.498 447.034 170.49C447.034 171.482 446.57 172.433 445.743 173.135C444.916 173.836 443.795 174.23 442.626 174.23Z" fill="#E6E6E6"/>
<path d="M424.442 203.248L285.647 203.248C284.478 203.248 283.356 202.854 282.53 202.152C281.703 201.451 281.238 200.5 281.238 199.507C281.238 198.515 281.703 197.564 282.53 196.862C283.356 196.161 284.478 195.767 285.647 195.767L424.442 195.767C425.612 195.767 426.733 196.161 427.56 196.862C428.386 197.564 428.851 198.515 428.851 199.507C428.851 200.499 428.386 201.451 427.56 202.152C426.733 202.854 425.612 203.248 424.442 203.248Z" fill="#E6E6E6"/>
<path d="M442.628 215.872L285.647 215.872C284.478 215.872 283.356 215.478 282.53 214.777C281.703 214.075 281.238 213.124 281.238 212.131C281.238 211.139 281.703 210.188 282.53 209.486C283.356 208.785 284.478 208.391 285.647 208.391L442.628 208.391C443.797 208.391 444.919 208.785 445.746 209.486C446.572 210.188 447.037 211.139 447.037 212.131C447.037 213.123 446.572 214.075 445.746 214.776C444.919 215.478 443.797 215.872 442.628 215.872Z" fill="#E6E6E6"/>
<path d="M343.823 340.272H146.881C144.402 340.269 142.025 339.433 140.272 337.945C138.518 336.457 137.532 334.441 137.529 332.337V105.489C137.532 103.385 138.518 101.368 140.272 99.8804C142.025 98.3928 144.402 97.5561 146.881 97.5537H343.823C346.302 97.5561 348.68 98.3928 350.433 99.8804C352.186 101.368 353.172 103.385 353.175 105.489V332.337C353.172 334.441 352.186 336.457 350.433 337.945C348.68 339.433 346.302 340.269 343.823 340.272Z" fill="white"/>
<path d="M163.305 155.954C163.298 160.039 164.245 164.085 166.091 167.858C167.937 171.63 170.645 175.056 174.059 177.936C174.345 178.176 174.637 178.416 174.933 178.65C176.716 180.063 178.661 181.321 180.739 182.405C181.138 182.614 181.537 182.814 181.946 183.009C184.048 184.014 186.263 184.839 188.557 185.472C188.953 185.582 189.355 185.687 189.757 185.783C197.051 187.557 204.813 187.372 211.977 185.252C212.117 185.21 212.256 185.168 212.393 185.125C218.682 183.184 224.223 179.816 228.412 175.388C232.602 170.96 235.28 165.642 236.154 160.012C237.028 154.382 236.066 148.657 233.371 143.459C230.677 138.262 226.353 133.791 220.872 130.533C215.39 127.276 208.961 125.357 202.283 124.985C195.605 124.613 188.934 125.802 182.998 128.424C177.062 131.045 172.086 134.998 168.614 139.852C165.142 144.706 163.305 150.276 163.305 155.954Z" fill="white"/>
<path d="M192.16 171.166C192.178 173.571 191.134 175.893 189.233 177.677C187.352 179.428 184.552 180.59 181.726 180.109C179.125 179.667 177.01 177.737 177.274 175.403C177.318 174.898 177.491 174.406 177.782 173.963C178.072 173.52 178.473 173.136 178.956 172.838C179.44 172.54 179.994 172.335 180.58 172.238C181.166 172.14 181.771 172.152 182.351 172.273C184.822 172.817 185.807 175.839 183.748 177.258C183.253 177.598 182.543 177.003 183.042 176.659C183.35 176.421 183.582 176.12 183.717 175.786C183.853 175.451 183.887 175.093 183.817 174.745C183.747 174.396 183.575 174.068 183.317 173.79C183.059 173.513 182.723 173.294 182.34 173.155C181.888 173.033 181.408 172.999 180.938 173.056C180.468 173.114 180.02 173.261 179.627 173.488C179.234 173.714 178.907 174.013 178.67 174.362C178.434 174.712 178.294 175.102 178.262 175.504C178.099 177.472 179.875 178.954 182.054 179.303C184.411 179.68 186.748 178.657 188.345 177.244C190.175 175.604 191.185 173.425 191.163 171.166C191.167 171.056 191.222 170.952 191.315 170.876C191.408 170.8 191.532 170.757 191.662 170.757C191.791 170.757 191.915 170.8 192.008 170.876C192.102 170.952 192.156 171.056 192.16 171.166Z" fill="#2F2E41"/>
<path d="M201.9 176.547C211.729 176.547 219.697 169.787 219.697 161.447C219.697 153.107 211.729 146.347 201.9 146.347C192.071 146.347 184.104 153.107 184.104 161.447C184.104 169.787 192.071 176.547 201.9 176.547Z" fill="#E86E39"/>
<path d="M200.991 167.889L200.973 167.325C202.21 167.296 203.301 167.23 204.12 166.722C204.353 166.57 204.544 166.377 204.68 166.156C204.817 165.936 204.896 165.693 204.912 165.444C204.927 165.292 204.9 165.14 204.833 164.998C204.767 164.856 204.662 164.73 204.529 164.628C204.219 164.468 203.865 164.383 203.502 164.38C203.14 164.377 202.784 164.458 202.471 164.612L201.921 164.826L202.976 158.283L203.635 158.36L202.737 163.926C203.105 163.81 203.501 163.774 203.888 163.821C204.276 163.869 204.644 163.998 204.958 164.197C205.169 164.353 205.335 164.549 205.443 164.769C205.55 164.989 205.596 165.227 205.577 165.464C205.557 165.798 205.452 166.125 205.268 166.421C205.084 166.717 204.827 166.975 204.513 167.178C203.459 167.831 202.091 167.863 200.991 167.889Z" fill="#2F2E41"/>
<path d="M210.474 158.84H206.893V159.404H210.474V158.84Z" fill="#2F2E41"/>
<path d="M199.17 158.84H195.588V159.404H199.17V158.84Z" fill="#2F2E41"/>
<path d="M189.76 185.782C197.053 187.557 204.815 187.371 211.98 185.252C212.119 185.209 212.259 185.167 212.395 185.125C210.707 184.02 208.798 183.182 206.759 182.653C206.903 182.219 206.901 181.76 206.752 181.327C206.55 180.778 206.145 180.3 205.597 179.962C205.049 179.624 204.387 179.446 203.709 179.453H199.373C198.697 179.446 198.036 179.624 197.489 179.961C196.942 180.298 196.538 180.776 196.337 181.324C196.189 181.758 196.186 182.218 196.331 182.653C194.535 183.119 192.838 183.825 191.303 184.744C190.993 184.927 190.694 185.119 190.405 185.319C190.186 185.469 189.969 185.624 189.76 185.782Z" fill="#2F2E41"/>
<path d="M215.844 159.845C215.844 162.39 217.32 164.501 219.239 164.867C219.434 164.905 219.634 164.924 219.834 164.924C222.032 164.924 223.824 162.647 223.824 159.845C223.874 158.401 223.331 156.987 222.288 155.844C221.964 155.511 221.565 155.236 221.114 155.035C220.719 154.86 220.28 154.768 219.834 154.767C219.222 154.773 218.627 154.943 218.135 155.252C216.781 156.064 215.844 157.817 215.844 159.845Z" fill="#3F3D56"/>
<path d="M180.263 159.845C180.263 162.035 181.353 163.903 182.883 164.616C183.302 164.815 183.773 164.921 184.253 164.924C184.36 164.924 184.466 164.918 184.572 164.907C186.621 164.701 188.244 162.512 188.244 159.845C188.244 157.709 187.203 155.878 185.733 155.131C185.288 154.896 184.776 154.77 184.253 154.767C183.807 154.768 183.368 154.86 182.973 155.035C182.521 155.237 182.121 155.513 181.796 155.847C180.756 156.99 180.214 158.402 180.263 159.845Z" fill="#3F3D56"/>
<path d="M183.13 164.129C183.209 164.129 183.287 164.113 183.358 164.082C183.428 164.052 183.489 164.007 183.535 163.953C183.581 163.898 183.612 163.835 183.623 163.768C183.635 163.702 183.628 163.634 183.603 163.57C182.65 161.165 182.363 158.606 182.765 156.091C183.167 153.576 184.247 151.174 185.921 149.071C187.595 146.968 189.818 145.221 192.417 143.966C195.017 142.71 197.922 141.98 200.908 141.832C203.894 141.685 206.879 142.123 209.633 143.113C212.387 144.104 214.834 145.62 216.785 147.543C218.736 149.467 220.138 151.746 220.882 154.204C221.626 156.662 221.692 159.232 221.075 161.715C221.048 161.825 221.073 161.939 221.145 162.033C221.218 162.127 221.331 162.193 221.46 162.216C221.589 162.239 221.724 162.218 221.835 162.157C221.946 162.096 222.023 162 222.051 161.89C222.7 159.279 222.631 156.577 221.849 153.993C221.067 151.408 219.593 149.012 217.542 146.989C215.491 144.967 212.918 143.373 210.023 142.331C207.128 141.29 203.988 140.829 200.849 140.985C197.71 141.14 194.655 141.908 191.922 143.228C189.19 144.548 186.852 146.385 185.092 148.596C183.333 150.807 182.197 153.333 181.775 155.977C181.353 158.621 181.655 161.312 182.658 163.841C182.691 163.925 182.755 163.998 182.839 164.05C182.924 164.101 183.026 164.129 183.13 164.129Z" fill="#3F3D56"/>
<path d="M210.842 151.663C211.137 152.072 211.26 152.555 211.19 153.03C211.12 153.506 210.861 153.948 210.457 154.283C209.49 155.199 207.95 155.257 206.612 155.087C205.111 154.896 203.518 154.299 201.999 154.701C200.703 155.044 199.779 156.041 198.434 156.291C197.24 156.513 195.813 156.22 195.395 155.14C195.194 154.622 196.157 154.399 196.357 154.915C196.627 155.613 197.796 155.6 198.465 155.406C199.538 155.096 200.365 154.342 201.42 153.982C202.677 153.652 204.023 153.655 205.278 153.991C206.472 154.219 207.845 154.557 209.034 154.131C209.913 153.816 210.613 152.823 209.98 152.091C209.6 151.651 210.466 151.228 210.842 151.663Z" fill="#2F2E41"/>
<path d="M199.884 187.836C196.365 187.839 192.864 187.421 189.482 186.595C189.085 186.501 188.667 186.393 188.248 186.276C185.891 185.625 183.617 184.778 181.458 183.746C181.053 183.554 180.647 183.35 180.217 183.125C178.082 182.011 176.085 180.719 174.253 179.268C173.951 179.029 173.652 178.783 173.359 178.538C167.599 173.666 163.858 167.339 162.699 160.508C161.539 153.678 163.022 146.713 166.926 140.659C170.831 134.605 176.945 129.789 184.35 126.936C191.755 124.082 200.052 123.344 207.994 124.833C215.935 126.322 223.093 129.957 228.392 135.193C233.691 140.428 236.844 146.981 237.379 153.867C237.913 160.753 235.8 167.6 231.356 173.38C226.912 179.16 220.378 183.561 212.735 185.92C212.598 185.963 212.456 186.006 212.314 186.049C208.319 187.236 204.116 187.84 199.884 187.836ZM199.884 125.764C192.842 125.764 185.958 127.537 180.105 130.859C174.251 134.181 169.691 138.901 167.001 144.424C164.311 149.946 163.613 156.021 164.995 161.88C166.377 167.738 169.777 173.118 174.764 177.336C175.04 177.568 175.326 177.802 175.615 178.031C177.349 179.405 179.242 180.629 181.263 181.684C181.67 181.897 182.053 182.089 182.435 182.27C184.48 183.248 186.634 184.05 188.866 184.667C189.261 184.776 189.651 184.877 190.028 184.967C197.125 186.695 204.677 186.515 211.648 184.453L212.051 184.33C219.913 181.902 226.514 177.202 230.697 171.054C234.88 164.907 236.377 157.706 234.924 150.716C233.472 143.725 229.164 137.393 222.756 132.83C216.348 128.266 208.25 125.765 199.884 125.764Z" fill="#CCCCCC"/>
<path d="M343.823 340.272H146.881C144.402 340.269 142.025 339.433 140.272 337.945C138.518 336.457 137.532 334.441 137.529 332.337V105.489C137.532 103.385 138.518 101.368 140.272 99.8804C142.025 98.3928 144.402 97.5561 146.881 97.5537H343.823C346.302 97.5561 348.68 98.3928 350.433 99.8804C352.186 101.368 353.172 103.385 353.175 105.489V332.337C353.172 334.441 352.186 336.457 350.433 337.945C348.68 339.433 346.302 340.269 343.823 340.272ZM146.881 98.4872C144.694 98.4893 142.596 99.2277 141.049 100.54C139.502 101.853 138.632 103.632 138.63 105.489V332.337C138.632 334.193 139.502 335.973 141.049 337.285C142.596 338.598 144.694 339.336 146.881 339.338H343.823C346.011 339.336 348.108 338.598 349.655 337.285C351.202 335.973 352.072 334.193 352.075 332.337V105.489C352.072 103.632 351.202 101.853 349.655 100.54C348.108 99.2277 346.011 98.4893 343.823 98.4872H146.881Z" fill="#3F3D56"/>
<path d="M305.697 156.471H249.969C248.8 156.471 247.679 156.077 246.852 155.375C246.025 154.674 245.561 153.722 245.561 152.73C245.561 151.738 246.025 150.787 246.852 150.085C247.679 149.384 248.8 148.99 249.969 148.99H305.697C306.866 148.99 307.988 149.384 308.814 150.085C309.641 150.787 310.106 151.738 310.106 152.73C310.106 153.722 309.641 154.674 308.814 155.375C307.988 156.077 306.866 156.471 305.697 156.471Z" fill="#E86E39"/>
<path d="M323.883 169.096H249.969C248.8 169.096 247.679 168.702 246.852 168C246.025 167.299 245.561 166.347 245.561 165.355C245.561 164.363 246.025 163.411 246.852 162.71C247.679 162.008 248.8 161.614 249.969 161.614H323.883C325.052 161.614 326.173 162.008 327 162.71C327.827 163.411 328.292 164.363 328.292 165.355C328.292 166.347 327.827 167.299 327 168C326.173 168.702 325.052 169.096 323.883 169.096Z" fill="#E86E39"/>
<path d="M305.616 217.518H166.821C165.652 217.518 164.53 217.123 163.703 216.422C162.877 215.72 162.412 214.769 162.412 213.777C162.412 212.785 162.877 211.833 163.703 211.132C164.53 210.43 165.652 210.036 166.821 210.036H305.616C306.785 210.036 307.907 210.43 308.734 211.132C309.56 211.833 310.025 212.785 310.025 213.777C310.025 214.769 309.56 215.72 308.734 216.422C307.907 217.123 306.785 217.518 305.616 217.518Z" fill="#CCCCCC"/>
<path d="M323.802 230.142H166.821C165.651 230.142 164.53 229.748 163.703 229.047C162.876 228.345 162.412 227.394 162.412 226.402C162.412 225.409 162.876 224.458 163.703 223.757C164.53 223.055 165.651 222.661 166.821 222.661H323.802C324.971 222.661 326.092 223.055 326.919 223.757C327.746 224.458 328.21 225.409 328.21 226.402C328.21 227.394 327.746 228.345 326.919 229.047C326.092 229.748 324.971 230.142 323.802 230.142Z" fill="#CCCCCC"/>
<path d="M305.615 259.159H166.819C165.651 259.158 164.531 258.763 163.705 258.062C162.88 257.361 162.416 256.41 162.416 255.418C162.416 254.427 162.88 253.476 163.705 252.775C164.531 252.074 165.651 251.679 166.819 251.678H305.615C306.784 251.678 307.905 252.072 308.732 252.773C309.559 253.475 310.023 254.426 310.023 255.418C310.023 256.411 309.559 257.362 308.732 258.064C307.905 258.765 306.784 259.159 305.615 259.159Z" fill="#CCCCCC"/>
<path d="M323.8 271.784H166.819C165.651 271.783 164.531 271.388 163.705 270.687C162.88 269.986 162.416 269.035 162.416 268.043C162.416 267.052 162.88 266.101 163.705 265.4C164.531 264.699 165.651 264.304 166.819 264.303H323.8C324.97 264.303 326.091 264.697 326.918 265.398C327.745 266.1 328.209 267.051 328.209 268.043C328.209 269.036 327.745 269.987 326.918 270.689C326.091 271.39 324.97 271.784 323.8 271.784Z" fill="#CCCCCC"/>
<path d="M305.616 300.801H166.821C165.651 300.801 164.53 300.407 163.703 299.705C162.876 299.004 162.412 298.052 162.412 297.06C162.412 296.068 162.876 295.117 163.703 294.415C164.53 293.713 165.651 293.319 166.821 293.319H305.616C306.785 293.319 307.906 293.713 308.733 294.415C309.56 295.117 310.025 296.068 310.025 297.06C310.025 298.052 309.56 299.004 308.733 299.705C307.906 300.407 306.785 300.801 305.616 300.801Z" fill="#CCCCCC"/>
<path d="M323.802 313.426H166.821C165.651 313.426 164.53 313.032 163.703 312.33C162.876 311.629 162.412 310.677 162.412 309.685C162.412 308.693 162.876 307.742 163.703 307.04C164.53 306.339 165.651 305.945 166.821 305.945H323.802C324.971 305.945 326.092 306.339 326.919 307.04C327.746 307.742 328.21 308.693 328.21 309.685C328.21 310.677 327.746 311.629 326.919 312.33C326.092 313.032 324.971 313.426 323.802 313.426Z" fill="#CCCCCC"/>
<path d="M341.538 288.617C335.83 288.612 330.176 289.561 324.901 291.411C319.625 293.261 314.831 295.974 310.792 299.397C306.754 302.82 303.55 306.885 301.364 311.359C299.178 315.833 298.053 320.629 298.053 325.473C298.053 330.316 299.178 335.112 301.364 339.586C303.55 344.06 306.754 348.125 310.792 351.548C314.831 354.971 319.625 357.685 324.9 359.535C330.176 361.384 335.83 362.334 341.538 362.328C353.045 362.311 364.074 358.42 372.203 351.511C380.333 344.601 384.898 335.236 384.898 325.473C384.898 315.709 380.333 306.345 372.203 299.435C364.074 292.525 353.045 288.634 341.538 288.617Z" fill="#E86E39"/>
<path d="M337.416 340.778C336.273 340.78 335.16 340.466 334.245 339.884L334.188 339.848L322.243 332.095C321.127 331.368 320.397 330.294 320.213 329.111C320.03 327.927 320.407 326.73 321.264 325.782C322.12 324.835 323.384 324.215 324.779 324.058C326.174 323.901 327.585 324.22 328.702 324.946L336.439 329.98L354.723 309.742C355.147 309.272 355.675 308.879 356.279 308.583C356.882 308.287 357.548 308.095 358.239 308.017C358.93 307.94 359.632 307.979 360.305 308.131C360.978 308.284 361.609 308.548 362.162 308.908L362.164 308.909L362.05 309.042L362.167 308.909C363.282 309.636 364.012 310.71 364.196 311.893C364.38 313.077 364.003 314.274 363.148 315.222L341.643 339.016C341.146 339.565 340.506 340.008 339.774 340.313C339.042 340.618 338.236 340.775 337.421 340.773L337.416 340.778Z" fill="white"/>
</g>
<defs>
<clipPath id="clip0_2154_42334">
<rect width="472" height="362.328" fill="white"/>
</clipPath>
</defs>
</svg>
