<svg width="47" height="47" viewBox="0 0 47 47" fill="none" xmlns="http://www.w3.org/2000/svg">
<path d="M34.0186 41.3391H28.2621C25.7499 41.3391 23.7081 39.2972 23.7081 36.7851V35.023C23.7676 34.9992 25.6726 34.9992 25.6726 33.1359V32.112C25.7678 32.0941 26.5774 32.237 27.2501 31.5048C30.5718 27.552 32.3696 26.8377 32.3696 24.4446V17.8487C33.2388 17.6344 33.8877 16.8605 33.8877 15.9318C33.8877 14.8424 33.0007 13.9554 31.9113 13.9554H30.8635V6.75828C30.8635 5.47243 29.8218 4.43066 28.5419 4.43066C27.256 4.43066 26.2143 5.47243 26.2143 6.75828V13.9554H20.0053V6.75828C20.0053 5.47243 18.9636 4.43066 17.6837 4.43066C16.3978 4.43066 15.356 5.47243 15.356 6.75828V13.9554H14.3143C13.2249 13.9554 12.3379 14.8424 12.3379 15.9318C12.3379 16.8605 12.9868 17.6344 13.8499 17.8487V24.4446C13.8499 26.8436 15.6954 27.6056 18.9695 31.5048C19.6303 32.2251 20.4756 32.1001 20.553 32.112V33.1359C20.553 35.0051 22.4579 34.9992 22.5175 35.023V36.7851C22.5175 39.9521 25.0951 42.5297 28.2621 42.5297H34.0186C34.346 42.5297 34.6139 42.2618 34.6139 41.9344C34.6139 41.607 34.346 41.3391 34.0186 41.3391ZM27.4049 6.75828C27.4049 6.13321 27.9168 5.62126 28.5419 5.62126C29.1669 5.62126 29.6729 6.13321 29.6729 6.75828V13.9554H27.4049V6.75828ZM16.5466 6.75828C16.5466 6.13321 17.0586 5.62126 17.6837 5.62126C18.3087 5.62126 18.8147 6.13321 18.8147 6.75828V13.9554H16.5466V6.75828ZM13.5285 15.9318C13.5285 15.4972 13.8797 15.146 14.3143 15.146H31.9113C32.3399 15.146 32.6971 15.4972 32.6971 15.9318C32.6971 16.3604 32.3399 16.7176 31.9113 16.7176H14.3143C13.8797 16.7176 13.5285 16.3604 13.5285 15.9318ZM22.4341 33.8324C22.0531 33.8324 21.7436 33.5228 21.7436 33.1359V32.112H24.482V33.1359C24.482 33.5228 24.1724 33.8324 23.7914 33.8324H22.4341Z" fill="#5B5B5B"/>
</svg>
