<svg width="539" height="359" viewBox="0 0 539 359" fill="none" xmlns="http://www.w3.org/2000/svg">
<g clip-path="url(#clip0_2154_42580)">
<path d="M30.2176 357.953C21.9024 357.237 14.5612 350.94 10.3863 343.38C8.98619 340.844 8.0269 337.518 9.61237 335.105C10.0662 334.415 10.6934 333.869 11.4248 333.527C12.1562 333.186 12.9635 333.062 13.7576 333.17C14.5518 333.278 15.3021 333.614 15.9257 334.14C16.5494 334.666 17.0223 335.361 17.2923 336.151C16.7816 333.188 16.5622 330.179 16.6374 327.17C16.7013 324.623 17.1612 321.742 19.1851 320.326C21.533 318.682 24.9174 319.987 26.6252 322.342C28.333 324.697 28.7964 327.76 29.2063 330.685C28.8717 329.447 28.839 328.141 29.1114 326.886C29.3838 325.632 29.9524 324.468 30.7653 323.503C31.5782 322.538 32.6094 321.801 33.7645 321.361C34.9197 320.921 36.1618 320.791 37.3774 320.983C40.8164 321.527 43.5103 324.643 44.5615 328.113C45.6127 331.583 45.2845 335.346 44.608 338.916C43.8146 343.103 42.5271 347.257 40.2091 350.769C37.8911 354.281 34.4479 357.112 30.4532 357.971L30.2176 357.953Z" fill="#F2F2F2"/>
<path d="M539.002 75.3031C539.002 90.9204 534.364 106.152 525.731 118.889C517.097 131.627 504.895 141.241 490.811 146.401C490.363 146.564 489.909 146.727 489.454 146.877V70.3587H395.266C395.293 69.8828 395.327 69.4068 395.367 68.9379H489.454V53.991C489.454 53.049 489.096 52.1458 488.46 51.4797C487.823 50.8137 486.96 50.4393 486.06 50.439H399.128C399.284 49.963 399.447 49.487 399.623 49.0181C405.512 32.473 416.768 18.6196 431.425 9.87811C446.081 1.1366 463.206 -1.93723 479.808 1.19363C496.409 4.32449 511.432 13.461 522.252 27.0069C533.072 40.5529 539 57.6471 539.002 75.3031Z" fill="#F2F2F2"/>
<path d="M486.06 49.0186H155.515C154.255 49.02 153.048 49.5444 152.157 50.4767C151.266 51.4089 150.765 52.673 150.764 53.9914V288.425C150.765 289.744 151.266 291.008 152.157 291.94C153.048 292.872 154.255 293.397 155.515 293.398H486.06C487.319 293.397 488.527 292.872 489.418 291.94C490.309 291.008 490.81 289.744 490.811 288.425V53.9914C490.81 52.673 490.309 51.4089 489.418 50.4767C488.527 49.5444 487.319 49.02 486.06 49.0186ZM489.453 288.425C489.453 289.367 489.095 290.27 488.459 290.936C487.823 291.603 486.96 291.977 486.06 291.977H155.515C154.615 291.977 153.752 291.603 153.116 290.936C152.479 290.27 152.122 289.367 152.121 288.425V53.9914C152.122 53.0495 152.479 52.1462 153.116 51.4802C153.752 50.8141 154.615 50.4397 155.515 50.4394H486.06C486.96 50.4397 487.823 50.8141 488.459 51.4802C489.095 52.1462 489.453 53.0495 489.453 53.9914V288.425Z" fill="#3F3D56"/>
<path d="M490.131 68.9375H151.441V70.3583H490.131V68.9375Z" fill="#3F3D56"/>
<path d="M162.981 63.936C165.23 63.936 167.053 62.0276 167.053 59.6736C167.053 57.3195 165.23 55.4111 162.981 55.4111C160.731 55.4111 158.908 57.3195 158.908 59.6736C158.908 62.0276 160.731 63.936 162.981 63.936Z" fill="#3F3D56"/>
<path d="M174.686 63.936C176.935 63.936 178.758 62.0276 178.758 59.6736C178.758 57.3195 176.935 55.4111 174.686 55.4111C172.437 55.4111 170.613 57.3195 170.613 59.6736C170.613 62.0276 172.437 63.936 174.686 63.936Z" fill="#3F3D56"/>
<path d="M186.397 63.9362C188.646 63.9362 190.469 62.0279 190.469 59.6738C190.469 57.3197 188.646 55.4114 186.397 55.4114C184.148 55.4114 182.324 57.3197 182.324 59.6738C182.324 62.0279 184.148 63.9362 186.397 63.9362Z" fill="#3F3D56"/>
<path d="M243.75 98.0361H184.021C182.761 98.0376 181.554 98.562 180.663 99.4943C179.772 100.427 179.271 101.691 179.27 103.009V165.525C179.271 166.843 179.772 168.107 180.663 169.039C181.554 169.972 182.761 170.496 184.021 170.497H243.75C245.009 170.496 246.217 169.972 247.108 169.039C247.999 168.107 248.5 166.843 248.501 165.525V103.009C248.5 101.691 247.999 100.427 247.108 99.4943C246.217 98.562 245.009 98.0376 243.75 98.0361ZM247.143 165.525C247.143 166.467 246.785 167.37 246.149 168.036C245.513 168.702 244.65 169.076 243.75 169.077H184.021C183.121 169.076 182.258 168.702 181.622 168.036C180.985 167.37 180.628 166.467 180.627 165.525V103.009C180.628 102.067 180.985 101.164 181.622 100.498C182.258 99.8317 183.121 99.4573 184.021 99.4569H243.75C244.65 99.4573 245.513 99.8317 246.149 100.498C246.785 101.164 247.143 102.067 247.143 103.009V165.525Z" fill="#3F3D56"/>
<path d="M350.988 98.3916H291.259C290.09 98.394 288.969 98.8812 288.142 99.7467C287.315 100.612 286.85 101.785 286.848 103.009V165.525C286.85 166.749 287.315 167.922 288.142 168.787C288.969 169.653 290.09 170.14 291.259 170.143H350.988C352.158 170.14 353.279 169.653 354.105 168.787C354.932 167.922 355.398 166.749 355.4 165.525V103.009C355.398 101.785 354.932 100.612 354.105 99.7467C353.279 98.8812 352.158 98.394 350.988 98.3916Z" fill="#E86E39"/>
<path d="M458.231 98.3916H398.502C397.332 98.394 396.211 98.8812 395.385 99.7467C394.558 100.612 394.092 101.785 394.09 103.009V165.525C394.092 166.749 394.558 167.922 395.385 168.787C396.211 169.653 397.332 170.14 398.502 170.143H458.231C459.4 170.14 460.521 169.653 461.348 168.787C462.175 167.922 462.64 166.749 462.642 165.525V103.009C462.64 101.785 462.175 100.612 461.348 99.7467C460.521 98.8812 459.4 98.394 458.231 98.3916Z" fill="#E6E6E6"/>
<path d="M243.75 192.165H184.021C182.852 192.167 181.731 192.655 180.904 193.52C180.077 194.386 179.612 195.559 179.609 196.783V259.298C179.612 260.522 180.077 261.695 180.904 262.561C181.731 263.426 182.852 263.914 184.021 263.916H243.75C244.919 263.914 246.04 263.426 246.867 262.561C247.694 261.695 248.16 260.522 248.162 259.298V196.783C248.16 195.559 247.694 194.386 246.867 193.52C246.04 192.655 244.919 192.167 243.75 192.165Z" fill="#E6E6E6"/>
<path d="M350.988 192.165H291.259C290.09 192.167 288.969 192.655 288.142 193.52C287.315 194.386 286.85 195.559 286.848 196.783V259.298C286.85 260.522 287.315 261.695 288.142 262.561C288.969 263.426 290.09 263.914 291.259 263.916H350.988C352.158 263.914 353.279 263.426 354.105 262.561C354.932 261.695 355.398 260.522 355.4 259.298V196.783C355.398 195.559 354.932 194.386 354.105 193.52C353.279 192.655 352.158 192.167 350.988 192.165Z" fill="#E86E39"/>
<path d="M458.231 192.165H398.502C397.332 192.167 396.211 192.655 395.385 193.52C394.558 194.386 394.092 195.559 394.09 196.783V259.298C394.092 260.522 394.558 261.695 395.385 262.561C396.211 263.426 397.332 263.914 398.502 263.916H458.231C459.4 263.914 460.521 263.426 461.348 262.561C462.175 261.695 462.64 260.522 462.642 259.298V196.783C462.64 195.559 462.175 194.386 461.348 193.52C460.521 192.655 459.4 192.167 458.231 192.165Z" fill="#E6E6E6"/>
<path d="M229.156 202.466H169.427C168.258 202.464 167.136 201.977 166.309 201.112C165.482 200.246 165.017 199.072 165.016 197.848V135.332C165.017 134.108 165.482 132.935 166.309 132.069C167.136 131.203 168.258 130.716 169.427 130.715H229.156C230.326 130.716 231.447 131.203 232.274 132.069C233.101 132.935 233.567 134.108 233.568 135.332V197.848C233.567 199.072 233.101 200.246 232.274 201.112C231.447 201.977 230.326 202.464 229.156 202.466Z" fill="#E86E39"/>
<path d="M137.612 349.582L145.567 347.027L139.936 313.696L128.195 317.467L137.612 349.582Z" fill="#A0616A"/>
<path d="M163.174 349.83L138.172 357.861L135.208 347.751L150.55 342.823C151.818 342.415 153.151 342.273 154.472 342.405C155.793 342.536 157.076 342.939 158.248 343.59C159.421 344.24 160.459 345.127 161.304 346.197C162.149 347.268 162.785 348.502 163.174 349.83Z" fill="#2F2E41"/>
<path d="M69.7394 349.774L78.0607 349.773L82.0191 316.18L69.738 316.18L69.7394 349.774Z" fill="#A0616A"/>
<path d="M94.1094 357.86L67.9571 357.862L67.9567 347.286L84.0046 347.285C85.3315 347.285 86.6455 347.559 87.8714 348.09C89.0973 348.621 90.2113 349.4 91.1496 350.382C92.0879 351.364 92.8322 352.53 93.34 353.813C93.8479 355.096 94.1093 356.472 94.1094 357.86Z" fill="#2F2E41"/>
<path d="M69.1427 252.394C68.4591 251.766 67.9152 250.99 67.5493 250.119C67.1834 249.248 67.0045 248.303 67.025 247.352C67.0456 246.4 67.2652 245.465 67.6684 244.613C68.0716 243.76 68.6485 243.01 69.3586 242.415L75.8102 157.384L88.9308 160.815L78.4256 243.761C79.3003 245.075 79.6839 246.68 79.5037 248.271C79.3234 249.862 78.5919 251.329 77.4476 252.393C76.3034 253.457 74.826 254.045 73.2954 254.045C71.7647 254.045 70.2872 253.457 69.1427 252.394Z" fill="#A0616A"/>
<path d="M95.4166 124.404C104.623 124.404 112.087 116.593 112.087 106.956C112.087 97.3197 104.623 89.5078 95.4166 89.5078C86.2097 89.5078 78.7461 97.3197 78.7461 106.956C78.7461 116.593 86.2097 124.404 95.4166 124.404Z" fill="#A0616A"/>
<path d="M80.921 154.768C77.1594 149.363 77.0435 141.919 81.0954 136.749C83.7397 133.376 88.1628 130.676 95.5474 130.676C115.231 130.676 122.697 147.015 122.697 147.015C122.697 147.015 130.842 162.644 126.091 176.852C121.339 191.06 121.339 192.481 121.339 192.481L90.1175 189.639C90.1175 189.639 95.3847 175.551 80.921 154.768Z" fill="#CCCCCC"/>
<path d="M71.293 168.911L78.019 145.879C78.4695 144.337 79.2381 142.917 80.2705 141.72C81.3029 140.522 82.5739 139.577 83.9937 138.951C85.4135 138.324 86.9474 138.032 88.487 138.094C90.0267 138.156 91.5345 138.572 92.9039 139.311C95.2797 140.599 97.0986 142.784 97.992 145.424C98.8853 148.064 98.7862 150.96 97.7147 153.526L89.1637 173.909L71.293 168.911Z" fill="#CCCCCC"/>
<path d="M120.659 188.93L147.13 332.432L132.877 336.694L98.261 242.21L82.65 338.825L67.7178 340.956C67.7178 340.956 61.1678 213.123 90.1161 189.64L120.659 188.93Z" fill="#2F2E41"/>
<path d="M158.759 182.203C158.518 182.504 158.299 182.824 158.106 183.161L124.485 184.867L118.011 164.181L106.77 169.773L117.35 200.584L158.93 192.073C159.907 193.189 161.186 193.968 162.596 194.305C164.007 194.642 165.482 194.522 166.825 193.961C168.168 193.4 169.317 192.424 170.117 191.162C170.918 189.901 171.333 188.415 171.306 186.901C171.28 185.387 170.814 183.918 169.97 182.688C169.127 181.458 167.945 180.526 166.583 180.016C165.221 179.506 163.743 179.442 162.346 179.832C160.948 180.223 159.697 181.05 158.759 182.203Z" fill="#A0616A"/>
<path d="M102.064 149.079C101.884 147.477 102.042 145.854 102.528 144.323C103.013 142.793 103.814 141.392 104.873 140.221C105.933 139.05 107.225 138.137 108.658 137.546C110.092 136.955 111.632 136.701 113.17 136.802C115.84 136.981 118.345 138.217 120.177 140.258C122.009 142.299 123.031 144.993 123.035 147.793V170.053L104.753 172.998L102.064 149.079Z" fill="#CCCCCC"/>
<path d="M99.0821 124.562C96.5801 124.55 94.6499 121.793 94.762 119.177C94.8742 116.561 96.553 114.259 98.5756 112.717C100.598 111.176 102.97 110.237 105.226 109.103C107.481 107.97 109.717 106.556 111.11 104.38C111.951 102.956 112.454 101.341 112.574 99.672C112.695 98.0025 112.431 96.3271 111.805 94.7866C110.509 91.7057 108.283 89.1543 105.47 87.5233C101.29 84.9627 96.3426 84.1439 91.6122 85.2301C86.8818 86.3163 82.716 89.2277 79.9445 93.3844L77.0883 101.524C74.178 105.187 73.7163 110.627 75.5054 115.007C77.2944 119.388 81.1037 122.684 85.4021 124.251C89.7632 125.718 94.4318 125.864 98.869 124.673" fill="#2F2E41"/>
<path d="M83.8474 97.4529C82.6196 95.3933 80.4914 94.0833 78.2913 93.3145C75.7425 92.4239 73.0317 92.161 70.37 92.5464C67.7082 92.9317 65.1673 93.9549 62.9452 95.5362C60.7231 97.1175 58.8797 99.2143 57.5585 101.663C56.2373 104.112 55.474 106.848 55.328 109.656C55.0948 114.142 56.4368 118.528 57.2253 122.944C58.0139 127.36 58.1708 132.237 55.8445 136.013C54.0726 138.888 51.1178 140.699 48.2013 142.245C45.7706 143.533 43.1413 144.742 40.4277 144.486C37.714 144.229 34.9866 141.979 35.0586 139.128C34.1502 141.173 33.5368 143.347 33.2385 145.579C33.0476 147.821 33.5756 150.24 35.1227 151.804C37.3715 154.076 40.9344 153.91 44.0248 153.419C50.7151 152.358 57.4897 150.368 62.7753 145.946C68.0609 141.524 71.5681 134.242 70.1762 127.311C69.5947 124.416 68.2283 121.773 67.1241 119.049C66.0199 116.326 65.1578 113.347 65.665 110.436C65.9653 108.937 66.5763 107.525 67.455 106.299C68.3338 105.074 69.4587 104.066 70.7505 103.345C73.363 101.923 76.3523 101.449 79.2501 101.996C81.1499 102.322 83.5221 102.829 84.6489 101.195C84.9475 100.678 85.1001 100.082 85.0888 99.4775C85.0776 98.8729 84.903 98.2841 84.5853 97.779C83.9352 96.7801 83.1073 95.9215 82.1469 95.2503" fill="#2F2E41"/>
<path d="M209.378 359H0.80661C0.700283 359.001 0.594934 358.979 0.496613 358.937C0.398291 358.894 0.308929 358.832 0.233635 358.753C0.158342 358.675 0.0986011 358.582 0.0578404 358.479C0.0170797 358.376 -0.00390625 358.266 -0.00390625 358.154C-0.00390625 358.043 0.0170797 357.933 0.0578404 357.83C0.0986011 357.727 0.158342 357.634 0.233635 357.555C0.308929 357.477 0.398291 357.415 0.496613 357.372C0.594934 357.33 0.700283 357.308 0.80661 357.309H209.378C209.485 357.308 209.59 357.33 209.688 357.372C209.787 357.415 209.876 357.477 209.951 357.555C210.027 357.634 210.086 357.727 210.127 357.83C210.168 357.933 210.189 358.043 210.189 358.154C210.189 358.266 210.168 358.376 210.127 358.479C210.086 358.582 210.027 358.675 209.951 358.753C209.876 358.832 209.787 358.894 209.688 358.937C209.59 358.979 209.485 359.001 209.378 359Z" fill="#3F3D56"/>
</g>
<defs>
<clipPath id="clip0_2154_42580">
<rect width="539" height="359" fill="white"/>
</clipPath>
</defs>
</svg>
