<svg width="50" height="52" viewBox="0 0 50 52" fill="none" xmlns="http://www.w3.org/2000/svg">
<path fill-rule="evenodd" clip-rule="evenodd" d="M39.163 47.5909L19.0505 25.6904C17.6218 24.2616 13.7636 25.0909 12.0022 25.1189C9.38603 25.1989 8.20496 24.155 6.68481 22.4621C5.10751 20.5127 3.59498 18.0083 2.79109 15.8913C2.20056 14.9032 2.59806 13.5698 3.99248 14.3432C5.32341 15.1458 7.02643 16.5174 9.08759 17.6502C10.3207 18.4325 11.2288 18.134 12.1508 17.5105C12.5597 17.2108 12.9343 16.8209 13.2823 16.3612C13.4423 16.0564 13.6353 15.7656 13.8614 15.4925C14.3389 14.6924 14.7669 13.7577 15.1745 12.7507C15.6279 11.642 15.8794 10.4723 15.2952 9.65193C14.1586 8.06955 10.6331 6.53543 8.97837 5.25785C8.33958 4.6889 8.57579 3.82913 9.40254 3.70848C10.289 3.4837 11.8815 3.48116 13.3407 3.36432C17.3436 3.23225 19.4683 4.57968 21.5155 6.67513C22.5975 7.93113 23.136 10.1294 22.8706 12.2058C22.6686 15.65 22.7131 17.9524 23.7176 19.2135L46.7726 39.9076C48.7487 41.9015 48.7487 45.1412 46.7739 47.135L46.3218 47.5897C44.347 49.5835 41.139 49.5848 39.163 47.5909ZM44.413 45.2428C45.7147 43.9411 45.7147 41.8291 44.413 40.5274C43.1113 39.2257 40.9981 39.2257 39.6964 40.5274C38.3946 41.8291 38.3946 43.9411 39.6964 45.2428C40.9981 46.5445 43.1113 46.5445 44.413 45.2428Z" fill="#5B5B5B"/>
</svg>
