<svg width="405" height="347" viewBox="0 0 405 347" fill="none" xmlns="http://www.w3.org/2000/svg">
<g clip-path="url(#clip0_2304_14162)">
<path d="M30.4094 317.983C32.7428 318.801 35.2482 319.006 37.6841 318.578C40.1199 318.15 42.4043 317.104 44.317 315.54C49.1881 311.463 50.7156 304.748 51.9579 298.529L55.6335 280.133L47.9384 285.417C42.4042 289.216 36.7457 293.138 32.9142 298.641C29.0827 304.145 27.4112 311.658 30.4888 317.613" fill="#E6E6E6"/>
<path d="M31.5964 341.535C30.6278 334.498 29.6313 327.371 30.3123 320.259C30.9158 313.943 32.8483 307.775 36.7825 302.716C38.8708 300.036 41.4118 297.74 44.2914 295.931C45.0421 295.458 45.7332 296.645 44.9857 297.115C40.0031 300.255 36.1492 304.892 33.9796 310.356C31.5835 316.433 31.1988 323.058 31.6115 329.513C31.861 333.417 32.3911 337.296 32.9235 341.169C32.9656 341.344 32.9393 341.529 32.8501 341.686C32.7609 341.842 32.6153 341.959 32.4429 342.013C32.267 342.06 32.0795 342.036 31.9212 341.947C31.7628 341.857 31.6462 341.708 31.5968 341.534L31.5964 341.535Z" fill="#F2F2F2"/>
<path d="M38.5684 330.244C39.569 331.761 40.9445 332.996 42.5625 333.829C44.1805 334.662 45.9864 335.065 47.8061 335C52.4837 334.779 56.3817 331.525 59.8904 328.435L70.2705 319.296L63.4008 318.968C58.4605 318.732 53.3926 318.511 48.6871 320.032C43.9815 321.552 39.6419 325.207 38.7816 330.064" fill="#E6E6E6"/>
<path d="M28.8581 345.58C33.521 337.353 38.9291 328.209 48.5933 325.287C51.2802 324.477 54.0976 324.187 56.8938 324.432C57.7752 324.508 57.555 325.862 56.6755 325.787C51.9883 325.399 47.3102 326.633 43.4287 329.282C39.6936 331.817 36.7852 335.342 34.324 339.079C32.8161 341.369 31.4656 343.755 30.1151 346.138C29.6835 346.9 28.4215 346.35 28.8581 345.58Z" fill="#F2F2F2"/>
<path d="M401.961 244.017H144.889C144.096 244.016 143.337 243.702 142.777 243.143C142.217 242.585 141.902 241.828 141.901 241.038V2.97945C141.902 2.18957 142.217 1.43233 142.777 0.8738C143.337 0.31527 144.096 0.00103257 144.889 0H401.961C402.753 0.00103257 403.513 0.31527 404.073 0.8738C404.633 1.43233 404.948 2.18957 404.949 2.97945V241.037C404.948 241.827 404.633 242.584 404.073 243.143C403.513 243.701 402.754 244.016 401.961 244.017Z" fill="#FFFCF5"/>
<path d="M401.961 244.017H144.889C144.096 244.016 143.337 243.702 142.777 243.143C142.217 242.585 141.902 241.828 141.901 241.038V2.97945C141.902 2.18957 142.217 1.43233 142.777 0.8738C143.337 0.31527 144.096 0.00103257 144.889 0H401.961C402.753 0.00103257 403.513 0.31527 404.073 0.8738C404.633 1.43233 404.948 2.18957 404.949 2.97945V241.037C404.948 241.827 404.633 242.584 404.073 243.143C403.513 243.701 402.754 244.016 401.961 244.017ZM144.889 1.18943C144.414 1.19046 143.959 1.37897 143.623 1.71371C143.287 2.04844 143.098 2.50215 143.097 2.97554V241.037C143.098 241.51 143.287 241.964 143.623 242.299C143.959 242.634 144.414 242.822 144.889 242.823H401.961C402.436 242.822 402.891 242.634 403.227 242.299C403.563 241.964 403.752 241.511 403.753 241.037V2.97945C403.752 2.50606 403.562 2.05235 403.227 1.71762C402.891 1.38288 402.436 1.19437 401.961 1.19334L144.889 1.18943Z" fill="#585050"/>
<path d="M266.361 61.8594C265.824 61.8603 265.308 62.0738 264.929 62.453C264.549 62.8323 264.336 63.3463 264.336 63.8821C264.336 64.418 264.549 64.932 264.929 65.3112C265.308 65.6904 265.824 65.904 266.361 65.9049H377.67C378.207 65.904 378.722 65.6904 379.102 65.3112C379.482 64.932 379.695 64.418 379.695 63.8821C379.695 63.3463 379.482 62.8323 379.102 62.453C378.722 62.0738 378.207 61.8603 377.67 61.8594H266.361Z" fill="#626168"/>
<path d="M266.36 73.998C265.823 73.9993 265.308 74.213 264.929 74.5922C264.549 74.9714 264.336 75.4852 264.336 76.0208C264.336 76.5564 264.549 77.0702 264.929 77.4494C265.308 77.8286 265.823 78.0423 266.36 78.0436H323.185C323.722 78.0423 324.237 77.8286 324.616 77.4494C324.996 77.0702 325.209 76.5564 325.209 76.0208C325.209 75.4852 324.996 74.9714 324.616 74.5922C324.237 74.213 323.722 73.9993 323.185 73.998H266.36Z" fill="#626168"/>
<path d="M169.072 139.271C168.535 139.272 168.021 139.485 167.641 139.865C167.262 140.244 167.049 140.758 167.049 141.293C167.049 141.829 167.262 142.343 167.641 142.722C168.021 143.101 168.535 143.315 169.072 143.316H377.777C378.314 143.315 378.829 143.101 379.208 142.722C379.588 142.343 379.801 141.829 379.801 141.293C379.801 140.758 379.588 140.244 379.208 139.865C378.829 139.485 378.314 139.272 377.777 139.271H169.072Z" fill="#626168"/>
<path d="M169.072 151.408C168.535 151.409 168.02 151.623 167.641 152.002C167.262 152.381 167.049 152.895 167.049 153.43C167.049 153.966 167.262 154.48 167.641 154.859C168.02 155.238 168.535 155.452 169.072 155.453H323.293C323.831 155.452 324.345 155.238 324.725 154.859C325.104 154.48 325.317 153.966 325.317 153.43C325.317 152.895 325.104 152.381 324.725 152.002C324.345 151.623 323.831 151.409 323.293 151.408H169.072Z" fill="#626168"/>
<path d="M169.072 163.271C168.535 163.272 168.02 163.485 167.641 163.865C167.262 164.244 167.049 164.758 167.049 165.293C167.049 165.829 167.262 166.343 167.641 166.722C168.02 167.101 168.535 167.315 169.072 167.316H377.777C378.314 167.315 378.829 167.101 379.208 166.722C379.587 166.343 379.8 165.829 379.8 165.293C379.8 164.758 379.587 164.244 379.208 163.865C378.829 163.485 378.314 163.272 377.777 163.271H169.072Z" fill="#626168"/>
<path d="M169.072 175.408C168.535 175.41 168.02 175.623 167.641 176.002C167.262 176.382 167.049 176.895 167.049 177.431C167.049 177.967 167.262 178.48 167.641 178.86C168.02 179.239 168.535 179.452 169.072 179.454H323.293C323.831 179.452 324.345 179.239 324.725 178.86C325.104 178.48 325.317 177.967 325.317 177.431C325.317 176.895 325.104 176.382 324.725 176.002C324.345 175.623 323.831 175.41 323.293 175.408H169.072Z" fill="#626168"/>
<path d="M169.072 187.587C168.535 187.589 168.02 187.802 167.641 188.182C167.262 188.561 167.049 189.075 167.049 189.61C167.049 190.146 167.262 190.66 167.641 191.039C168.02 191.418 168.535 191.632 169.072 191.633H377.777C378.314 191.632 378.829 191.418 379.208 191.039C379.587 190.66 379.8 190.146 379.8 189.61C379.8 189.075 379.587 188.561 379.208 188.182C378.829 187.802 378.314 187.589 377.777 187.587H169.072Z" fill="#626168"/>
<path d="M169.072 199.726C168.535 199.727 168.02 199.941 167.641 200.32C167.262 200.699 167.049 201.213 167.049 201.748C167.049 202.284 167.262 202.798 167.641 203.177C168.02 203.556 168.535 203.77 169.072 203.771H323.293C323.831 203.77 324.345 203.556 324.725 203.177C325.104 202.798 325.317 202.284 325.317 201.748C325.317 201.213 325.104 200.699 324.725 200.32C324.345 199.941 323.831 199.727 323.293 199.726H169.072Z" fill="#626168"/>
<path d="M202.129 99.0136C196.365 99.0136 190.73 97.3093 185.937 94.116C181.144 90.9227 177.409 86.3839 175.203 81.0736C172.997 75.7634 172.42 69.9201 173.544 64.2827C174.669 58.6453 177.445 53.467 181.52 49.4026C185.596 45.3383 190.789 42.5704 196.443 41.4491C202.096 40.3277 207.956 40.9032 213.282 43.1028C218.607 45.3024 223.159 49.0272 226.361 53.8064C229.564 58.5855 231.273 64.2043 231.273 69.9521C231.264 77.657 228.191 85.0437 222.727 90.4919C217.263 95.9401 209.856 99.0048 202.129 99.0136Z" fill="#E86E39"/>
<path d="M113.662 208.896C113.612 207.836 113.329 206.799 112.833 205.859C112.337 204.919 111.641 204.099 110.793 203.457C109.945 202.814 108.966 202.365 107.925 202.14C106.884 201.916 105.807 201.922 104.768 202.158L95.1349 188.62L85.457 192.451L99.3304 211.378C99.8432 213.091 100.968 214.557 102.493 215.499C104.017 216.44 105.835 216.791 107.602 216.485C109.368 216.179 110.961 215.237 112.078 213.839C113.195 212.44 113.758 210.682 113.662 208.896Z" fill="#A0616A"/>
<path d="M94.8852 207.893L65.7363 170.186L76.6581 135.958C77.4585 127.352 82.8587 124.949 83.0885 124.851L83.439 124.701L92.943 149.974L85.9648 168.53L103.093 197.254L94.8852 207.893Z" fill="#3F3D56"/>
<path d="M196.114 91.6536C195.057 91.7857 194.043 92.1473 193.141 92.7128C192.24 93.2783 191.474 94.034 190.897 94.9266C190.32 95.8193 189.947 96.8272 189.803 97.8794C189.659 98.9316 189.748 100.002 190.064 101.017L177.273 111.64L181.852 120.966L199.704 105.71C201.377 105.068 202.756 103.835 203.579 102.247C204.402 100.659 204.612 98.8246 204.17 97.092C203.728 95.3594 202.663 93.8488 201.178 92.8465C199.694 91.8441 197.892 91.4197 196.114 91.6536Z" fill="#A0616A"/>
<path d="M196.564 110.398L161.116 142.292L126.048 134.08C117.383 133.95 114.562 128.767 114.447 128.546L114.27 128.209L138.804 116.807L157.896 122.309L185.292 103.061L196.564 110.398Z" fill="#3F3D56"/>
<path d="M135.162 337.135L144.686 337.135L149.217 300.503L135.16 300.504L135.162 337.135Z" fill="#A0616A"/>
<path d="M163.055 345.952L133.122 345.954L133.121 334.421L154.657 334.42C156.884 334.42 159.02 335.302 160.595 336.873C162.17 338.443 163.055 340.573 163.055 342.794L163.055 345.952Z" fill="#2F2E41"/>
<path d="M97.0949 337.135L106.619 337.135L111.15 300.503L97.0938 300.504L97.0949 337.135Z" fill="#A0616A"/>
<path d="M124.989 345.952L95.0556 345.954L95.055 334.421L116.59 334.42C117.693 334.42 118.785 334.637 119.804 335.058C120.823 335.478 121.749 336.095 122.528 336.873C123.308 337.65 123.927 338.573 124.349 339.589C124.771 340.605 124.988 341.694 124.988 342.794L124.989 345.952Z" fill="#2F2E41"/>
<path d="M93.709 203.425L94.4858 257.651L95.2631 328.919L112.354 327.37L120.899 228.989L131.776 327.37H149.42L151.197 228.214L144.982 206.524L93.709 203.425Z" fill="#2F2E41"/>
<path d="M127.161 210.707C108.565 210.709 91.4473 202.316 91.2163 202.201L91.0243 202.105L89.4637 164.76C89.0112 163.44 80.1003 137.4 78.5912 129.123C77.0621 120.738 99.2232 113.378 101.914 112.518L102.525 105.772L127.359 103.104L130.507 111.735L139.416 115.066C140.426 115.444 141.262 116.179 141.766 117.13C142.269 118.082 142.405 119.184 142.148 120.229L137.196 140.309L149.29 206.742L146.686 206.855C140.445 209.665 133.709 210.707 127.161 210.707Z" fill="#3F3D56"/>
<path d="M124.489 96.6457C133.154 91.9224 136.339 81.0889 131.602 72.4485C126.865 63.808 116.001 60.6325 107.336 65.3559C98.6709 70.0792 95.4864 80.9127 100.223 89.5531C104.96 98.1936 115.824 101.369 124.489 96.6457Z" fill="#A0616A"/>
<path d="M101.431 98.2615C104.839 101.881 111.167 99.938 111.611 94.9931C111.646 94.6092 111.643 94.2229 111.603 93.8395C111.374 91.6491 110.105 89.6605 110.409 87.3478C110.478 86.7722 110.693 86.2237 111.034 85.7542C113.749 82.1283 120.124 87.3759 122.686 84.0935C124.258 82.0808 122.411 78.9119 123.617 76.6624C125.208 73.6933 129.922 75.1579 132.879 73.532C136.168 71.7228 135.971 66.6905 133.806 63.6296C131.165 59.8967 126.536 57.9049 121.964 57.6178C117.392 57.3308 112.851 58.5632 108.583 60.2219C103.733 62.1065 98.9236 64.7111 95.9391 68.9635C92.3096 74.1347 91.9604 81.087 93.7755 87.1339C94.8797 90.8123 98.6482 95.3057 101.431 98.2615Z" fill="#2F2E41"/>
<path d="M227.206 346.412H0.59478C0.437035 346.412 0.28574 346.349 0.174198 346.238C0.0626546 346.127 0 345.976 0 345.819C0 345.661 0.0626546 345.511 0.174198 345.399C0.28574 345.288 0.437035 345.226 0.59478 345.226H227.206C227.364 345.226 227.515 345.288 227.627 345.399C227.738 345.511 227.801 345.661 227.801 345.819C227.801 345.976 227.738 346.127 227.627 346.238C227.515 346.349 227.364 346.412 227.206 346.412Z" fill="#585050"/>
<path d="M200.446 80.9282C199.92 80.9288 199.414 80.7305 199.029 80.3734L189.419 71.4726C189.015 71.0978 188.777 70.5785 188.757 70.0286C188.737 69.4788 188.937 68.9436 189.312 68.5405C189.688 68.1374 190.208 67.8994 190.76 67.8788C191.311 67.8582 191.848 68.0567 192.253 68.4307L200.393 75.9701L216.497 59.9114C216.69 59.7174 216.92 59.5634 217.173 59.4581C217.426 59.3528 217.697 59.2984 217.971 59.2979C218.245 59.2974 218.516 59.3508 218.77 59.4552C219.023 59.5595 219.253 59.7127 219.447 59.906C219.641 60.0992 219.794 60.3288 219.899 60.5813C220.004 60.8339 220.057 61.1046 220.057 61.3779C220.056 61.6512 220.001 61.9217 219.896 62.1738C219.79 62.426 219.635 62.6549 219.441 62.8473L201.918 80.3204C201.725 80.5133 201.495 80.6664 201.243 80.7707C200.99 80.875 200.719 80.9285 200.446 80.9282Z" fill="#F9F4E8"/>
</g>
<defs>
<clipPath id="clip0_2304_14162">
<rect width="404.949" height="346.503" fill="white"/>
</clipPath>
</defs>
</svg>
