<svg width="452" height="321" viewBox="0 0 452 321" fill="none" xmlns="http://www.w3.org/2000/svg">
<g clip-path="url(#clip0_2154_42614)">
<path d="M82.7378 306.61L89.9593 308.574L100.942 281.524L90.2823 278.623L82.7378 306.61Z" fill="#FFB6B6"/>
<path d="M80.4434 314.111L102.652 320.154L102.729 319.872C103.349 317.568 103.034 315.112 101.852 313.042C100.67 310.972 98.7184 309.459 96.4259 308.835L96.4253 308.835L93.2023 304.639L84.7995 305.671L82.8608 305.144L80.4434 314.111Z" fill="#2F2E41"/>
<path d="M132.603 312.907L140.085 312.906L143.645 283.911L132.602 283.912L132.603 312.907Z" fill="#FFB6B6"/>
<path d="M132.339 320.748L155.349 320.747V320.455C155.349 318.068 154.405 315.78 152.725 314.093C151.046 312.405 148.768 311.457 146.393 311.457H146.392L142.189 308.254L134.348 311.458L132.339 311.458L132.339 320.748Z" fill="#2F2E41"/>
<path d="M135.799 145.714L145.84 288.596L129.67 290.035L107.111 184.143L109.61 245.412L100.657 293.6L86.9696 286.951L87.1969 236.775L69.2271 155.691L74.0099 145.714H135.799Z" fill="#2F2E41"/>
<path d="M71.5197 163.492L71.4193 163.35C66.0603 155.813 74.1203 137.7 75.3359 135.075C73.8924 134.604 72.6559 133.645 71.837 132.361C71.0181 131.078 70.6674 129.549 70.8447 128.034L71.3687 123.559L71.915 119.169L68.0017 115.238L67.9907 115.14L65.7387 95.3433L62.4643 82.1945C61.2306 77.2238 61.3357 72.0128 62.7689 67.0964C64.2022 62.18 66.9119 57.7353 70.6199 54.2187L78.1886 53.0113L87.387 44.1074H102.22L107.306 48.9893C116.801 50.6622 118.432 50.116 126.588 59.9481L122.882 90.5165L121.957 94.7217L121.96 100.425L124.31 103.05C125.157 103.995 125.772 105.126 126.107 106.352C126.442 107.578 126.487 108.866 126.238 110.113L125.929 111.666C128.353 112.709 130.666 131.257 131.219 133.847L132.045 137.717C132.751 138.653 137.412 144.898 137.412 146.605C137.412 146.861 137.224 147.109 136.82 147.384C133.643 149.545 120.978 164.875 113.206 161.751C104.928 158.426 72.0222 163.414 71.6907 163.465L71.5197 163.492Z" fill="#E86E39"/>
<path d="M69.5265 127.946C69.5265 127.946 73.3357 106.318 69.4982 98.1841L54.2744 99.2765L56.5913 130.131L69.8997 164.389C69.6965 165.445 69.775 166.535 70.1271 167.551C70.4792 168.566 71.0924 169.469 71.9044 170.169C72.7165 170.87 73.6984 171.341 74.7507 171.537C75.8029 171.732 76.8878 171.645 77.8955 171.283C78.9031 170.921 79.7974 170.298 80.4878 169.476C81.1781 168.655 81.6398 167.665 81.826 166.606C82.0122 165.547 81.9162 164.458 81.5479 163.449C81.1796 162.439 80.552 161.546 79.7289 160.859L69.5265 127.946Z" fill="#FFB6B6"/>
<path d="M54.2732 86.7139L55.2154 76.4059C55.57 72.5263 56.6846 68.7555 58.4951 65.3103C60.3056 61.865 62.7762 58.8134 65.7648 56.3309C67.6218 54.7999 69.868 53.8212 72.2496 53.5053C74.6311 53.1895 77.0532 53.5491 79.242 54.5436C82.2 55.9118 84.5305 58.3573 85.7624 61.3858C86.9942 64.4143 87.0354 67.7997 85.8777 70.8575C82.3591 80.1284 83.6297 89.9326 76.7687 91.1278L77.5141 94.6906L70.7682 116.808L51.5547 114.572L54.2732 86.7139Z" fill="#E86E39"/>
<path d="M129.73 157.278C129.057 158.114 128.616 159.113 128.451 160.176C128.287 161.238 128.405 162.325 128.794 163.326C129.184 164.328 129.829 165.208 130.667 165.878C131.504 166.547 132.502 166.982 133.561 167.139C134.62 167.296 135.701 167.168 136.694 166.769C137.688 166.37 138.559 165.714 139.219 164.868C139.878 164.021 140.304 163.015 140.451 161.95C140.598 160.885 140.462 159.8 140.057 158.805L146.426 122.591L142.68 91.8784L127.538 93.8041C125.361 102.536 133.315 122.994 133.315 122.994L129.73 157.278Z" fill="#FFB6B6"/>
<path d="M148.329 106.341L129.925 112.316L122.838 101.21L122.874 97.5698C115.913 97.7483 111.404 78.6297 106.145 70.2312C104.414 67.4606 103.794 64.1327 104.411 60.9204C105.028 57.7082 106.837 54.8512 109.471 52.9273C111.423 51.5212 113.728 50.6917 116.125 50.5326C118.522 50.3734 120.916 50.891 123.035 52.0268C126.45 53.8728 129.468 56.3789 131.915 59.4009C134.363 62.423 136.191 65.9013 137.296 69.6358L140.23 79.5585L148.329 106.341Z" fill="#E86E39"/>
<path d="M93.8037 39.8056C102.902 39.8056 110.277 32.3959 110.277 23.2556C110.277 14.1153 102.902 6.70557 93.8037 6.70557C84.7056 6.70557 77.3301 14.1153 77.3301 23.2556C77.3301 32.3959 84.7056 39.8056 93.8037 39.8056Z" fill="#FFB6B6"/>
<path d="M81.8474 34.9212C81.7037 34.7946 81.5681 34.6594 81.4277 34.5293C81.4226 34.5426 81.4219 34.5563 81.4165 34.5696L81.8474 34.9212Z" fill="#2F2E41"/>
<path d="M107.304 5.77899C106.485 4.45528 105.352 3.35714 104.005 2.5837C103.085 2.13522 102.118 1.79095 101.121 1.55723L98.5144 0.842606C97.1786 0.427348 95.8043 0.149352 94.4127 0.0128852C92.4801 -0.0828919 90.5585 0.356707 88.8578 1.28366C87.1571 2.21061 85.7426 3.58927 84.7689 5.26905C83.9812 6.67262 83.3494 8.42164 81.8292 8.93515C80.6034 9.34922 79.266 8.76515 77.9778 8.87846C77.2229 8.98836 76.5066 9.28364 75.8924 9.73812C75.2783 10.1926 74.7852 10.7923 74.4569 11.484C73.8148 12.8759 73.4988 14.3972 73.5332 15.931C73.4825 19.4131 74.159 22.8673 75.5189 26.0706C76.8789 29.274 78.8921 32.1554 81.4286 34.529C81.8538 33.4031 81.1535 32.1874 80.5999 31.1104C80.0398 30.0205 79.6936 28.5011 80.6318 27.7162C81.6757 26.8428 83.3482 27.6897 84.5828 27.1202C84.9778 26.8922 85.3104 26.5696 85.551 26.181C85.7916 25.7925 85.9327 25.3501 85.9617 24.8934C86.0812 23.9884 85.9564 23.0686 86.013 22.1575C86.0687 21.2595 86.2999 20.3814 86.6934 19.5732C87.0869 18.7651 87.635 18.0427 88.3064 17.4473C88.9778 16.852 89.7593 16.3953 90.6064 16.1034C91.4535 15.8115 92.3495 15.69 93.2433 15.746C93.2638 15.7473 93.2844 15.7487 93.305 15.7501C96.1151 15.9518 98.8422 17.8809 101.547 17.0873C102.816 16.7148 103.899 15.7663 105.211 15.6067C106.665 15.43 108.033 16.2544 109.268 17.0459C109.716 15.1322 109.774 13.1468 109.436 11.2101C109.099 9.27345 108.373 7.42577 107.304 5.77899Z" fill="#2F2E41"/>
<path d="M193.387 311.45L189.195 304.682L188.358 308.549C188.211 309.227 188.064 309.915 187.928 310.598C186.738 309.576 185.471 308.631 184.231 307.725C180.425 304.95 176.621 302.171 172.819 299.389L174.01 306.326C174.744 310.598 175.51 314.957 177.326 318.862C177.527 319.305 177.745 319.742 177.979 320.168H195.671C195.813 319.772 195.912 319.362 195.965 318.944C195.969 318.917 195.971 318.89 195.97 318.862C196.247 316.213 194.79 313.717 193.387 311.45Z" fill="#F0F0F0"/>
<path d="M213.97 320.831L42.5084 320.999C42.3373 320.998 42.1734 320.929 42.0527 320.807C41.932 320.685 41.8643 320.52 41.8643 320.349C41.8643 320.177 41.932 320.012 42.0527 319.89C42.1734 319.768 42.3373 319.699 42.5084 319.698L213.97 319.53C214.141 319.531 214.305 319.6 214.426 319.722C214.547 319.844 214.614 320.009 214.614 320.181C214.614 320.353 214.547 320.518 214.426 320.639C214.305 320.761 214.141 320.83 213.97 320.831Z" fill="#CACACA"/>
<path d="M391.204 105.639C391.167 124.76 384.011 143.176 371.144 157.265C358.276 171.354 340.628 180.099 321.669 181.778C302.71 183.458 283.811 177.952 268.688 166.343C253.565 154.733 243.311 137.86 239.943 119.041C236.575 100.222 240.336 80.8174 250.487 64.6428C260.638 48.4681 276.444 36.6934 294.799 31.6333C313.153 26.5732 332.727 28.5939 349.674 37.298C366.62 46.0022 379.713 60.7601 386.378 78.6706C386.544 79.1204 386.706 79.57 386.864 80.0242V80.0285C387.567 82.0245 388.187 84.0577 388.723 86.1281C390.375 92.4987 391.209 99.0557 391.204 105.639Z" fill="#3F3D56"/>
<path d="M306.061 53.6185C302.612 51.7448 298.782 50.687 294.865 50.526C290.947 50.365 287.045 51.1049 283.455 52.6893C280.294 54.0713 276.966 56.5503 275.912 61.0269C280.176 58.4985 285.696 62.4934 286.794 68.9019L286.538 68.9729C285.958 73.4117 287.252 78.2444 289.757 80.9968C289.943 79.7549 290.402 78.5702 291.101 77.5289C291.8 76.4875 292.721 75.6157 293.797 74.9766C295.638 73.7611 297.674 72.8782 299.078 70.789C300.744 68.3121 301.167 64.6923 301.828 61.3901C302.49 58.0879 303.745 54.5386 306.061 53.6185Z" fill="#008397"/>
<path d="M282.19 91.3918C281.009 93.1737 279.432 94.2917 278.016 95.6838C276.382 97.1772 275.31 99.1906 274.98 101.385C274.801 102.936 275.078 104.512 275.04 106.08C275.002 107.647 274.481 109.412 273.42 109.802C271.744 110.41 270.465 107.283 268.743 107.065C267.374 106.894 266.142 109.057 266.538 110.933C266.935 112.809 268.798 113.64 269.868 112.415C270.836 114.047 270.154 117.007 268.7 117.508C268.546 118.536 268.393 119.56 268.244 120.588C264.568 118.005 260.855 115.379 257.73 111.597C254.254 107.426 252.098 102.307 251.539 96.896C251.134 92.5483 251.735 87.5752 249.748 84.2299C248.158 81.5528 245.429 80.9616 242.973 81.1287C242.525 81.1586 242.073 81.21 241.626 81.2658C243.074 76.8956 244.913 72.6663 247.122 68.6296C247.621 68.4141 248.086 68.1238 248.499 67.7686C250.784 65.8197 251.799 61.8746 253.653 59.146C253.773 58.9704 253.896 58.799 254.024 58.632C255.922 56.1433 258.463 54.8626 260.919 53.6718C266.355 51.0203 271.949 48.3346 277.688 48.703L276.055 48.8615C274.149 54.2243 272.242 59.5872 270.333 64.9501C270.043 65.7725 269.75 66.5963 269.454 67.4216C268.371 70.4714 267.254 73.7183 267.421 77.1322C267.519 79.154 268.218 81.3129 269.548 82.0068C270.789 82.6493 272.145 81.8611 273.343 81.0815C273.85 80.756 274.353 80.4304 274.861 80.1006C276.681 78.9226 278.698 77.7147 280.621 78.5029C282.382 79.2225 283.682 81.6255 283.93 84.217C284.156 86.7361 283.545 89.2596 282.19 91.3918Z" fill="#008397"/>
<path d="M293.017 128.005C287.7 124.716 282.383 121.427 277.066 118.138L277.156 117.905C273.85 119.17 272.477 125.074 273.024 129.902C273.57 134.73 275.423 139.046 276.358 143.75C277.62 150.188 277.144 156.848 274.979 163.038C281.971 155.157 288.158 146.591 293.449 137.469C294.188 136.319 294.752 135.065 295.12 133.747C295.51 132.343 295.371 130.843 294.729 129.536C294.294 128.891 293.706 128.365 293.017 128.005Z" fill="#008397"/>
<path d="M272.034 68.168C271.41 69.5149 271.313 71.0486 271.764 72.4636C272.289 73.6036 273.241 74.4892 274.412 74.9274L277.35 76.3905C278.328 76.8772 279.381 77.3688 280.378 76.9684C281.579 76.4854 282.413 74.5925 282.197 72.8353C281.968 70.9654 280.795 69.6792 279.71 68.5838C278.191 67.051 276.673 65.5182 275.154 63.9854L274.298 65.0384C273.373 65.9454 272.607 67.0036 272.034 68.168Z" fill="#008397"/>
<path d="M375.454 88.1581C376.776 88.4708 378.097 88.7835 379.419 89.0961C379.189 93.5809 376.976 97.7316 374.009 99.2351C372.772 99.8605 371.395 100.092 370.372 101.261C369.446 102.323 368.977 103.977 368.547 105.557C367.792 108.316 367.037 111.074 366.283 113.833C365.473 116.806 364.432 120.108 362.326 121.179C360.518 122.1 358.45 120.973 357.061 119.084C355.671 117.195 354.822 114.655 353.999 112.18C354.05 114.878 352.801 117.525 351.032 118.463C349.258 119.401 347.101 118.553 345.915 116.459C345.063 114.955 344.709 112.972 343.873 111.447C343.037 109.922 341.285 109.048 340.373 110.479C339.771 111.43 339.848 112.886 339.55 114.094C339.399 114.896 339.004 115.631 338.419 116.197C337.833 116.763 337.087 117.131 336.284 117.251C335.545 117.234 334.817 117.066 334.145 116.758C333.473 116.449 332.87 116.006 332.374 115.456C329.763 112.773 328.063 109.329 327.518 105.617C327.148 103.838 327.194 101.996 327.654 100.237C328.178 98.5711 329.445 97.2861 330.703 97.603C331.53 95.8468 329.897 93.5166 328.426 93.7222C326.951 93.9278 325.795 95.517 324.584 96.7378C323.378 97.9585 321.689 98.8452 320.474 97.633C320.501 98.0764 320.352 98.5124 320.059 98.8453C319.766 99.1781 319.354 99.3804 318.912 99.4077C318.869 99.4104 318.825 99.4114 318.781 99.4106C317.973 99.1776 317.223 98.7779 316.577 98.237C313.793 96.4936 310.258 97.6502 308.28 100.948C309.517 95.6626 311.329 89.5972 315.127 88.355C316.679 87.8453 318.372 88.2651 319.839 87.3827C322.435 85.8193 322.96 79.9124 320.717 77.4752C321.003 79.7796 320.947 82.4696 319.736 84.046C318.526 85.6223 315.984 84.5942 316.138 82.2641C316.104 82.5918 315.967 82.9002 315.747 83.145C315.528 83.3898 315.236 83.5586 314.916 83.627C314.595 83.6955 314.26 83.6602 313.961 83.5261C313.661 83.3921 313.411 83.1662 313.247 82.8809C312.441 81.6473 312.51 79.6298 313.081 78.1563C313.67 76.8217 314.515 75.6166 315.567 74.6096C317.592 72.4294 319.647 70.2234 321.992 68.8526C324.341 67.4819 327.053 67.0194 329.406 68.3815C330.647 69.1011 331.739 70.3005 333.005 70.9344C333.303 71.1199 333.634 71.2447 333.979 71.3017C334.325 71.3587 334.678 71.3467 335.019 71.2665C335.36 71.1862 335.682 71.0393 335.966 70.8341C336.251 70.6289 336.492 70.3694 336.677 70.0705C336.691 70.0474 336.705 70.0241 336.719 70.0006C337.661 68.3386 337.218 65.8713 337.567 63.7939C338.194 60.123 341.848 58.4053 343.873 60.8297C342.36 60.44 340.795 62.239 340.607 64.4193C340.415 66.5996 341.511 68.8013 342.978 69.4609C345.442 70.5574 347.855 67.7989 349.719 65.246C351.663 62.5731 353.61 59.9017 355.56 57.2317C355.871 56.7771 356.221 56.3501 356.604 55.9552C357.215 55.3572 358.029 55.0148 358.882 54.9973C359.734 54.9798 360.562 55.2886 361.196 55.861C363.166 57.4758 364.091 60.787 365.707 63.0657C368.052 66.3768 371.561 67.1821 374.827 67.8246C377.262 68.3001 379.698 68.7784 382.135 69.2596C383.76 72.2963 385.177 75.4405 386.377 78.6703C381.908 80.7179 378.117 84.0108 375.454 88.1581Z" fill="#008397"/>
<path d="M388.721 86.127C388.222 87.6062 387.949 89.153 387.911 90.7145C385.822 88.153 385.49 83.3513 386.862 80.0273C387.566 82.0234 388.186 84.0566 388.721 86.127Z" fill="#008397"/>
<path d="M383.324 139.696C381.497 143.422 379.373 146.993 376.971 150.375C375.436 149.715 373.786 150.893 372.349 151.998C370.848 153.154 369.045 154.281 367.506 153.227C365.932 152.148 365.425 149.128 365.924 146.734C366.497 144.525 367.5 142.452 368.874 140.634C370.153 138.715 371.522 136.723 373.3 135.978C375.082 135.233 377.372 136.286 377.892 138.831L379.154 138.788C378.446 137.811 378.817 135.789 379.768 135.434C380.864 135.018 381.815 136.53 382.463 137.867C382.752 138.471 383.047 139.079 383.324 139.696Z" fill="#008397"/>
<path d="M334.99 121.603C332.278 121.774 330.129 118.419 328.701 115.119C327.273 111.818 325.97 108.044 323.523 106.364C322.124 105.404 320.53 105.272 319.013 104.807C318.152 104.589 317.356 104.168 316.69 103.579C316.024 102.989 315.507 102.249 315.183 101.42L313.462 100.721C311.055 101.93 308.851 103.509 306.929 105.401C304.732 107.745 303.364 110.75 303.036 113.952C302.707 117.412 303.921 121.27 306.189 122.57C307.981 123.597 310.067 122.95 311.883 123.89C314.151 125.065 315.497 128.478 316.007 131.847C316.517 135.217 316.388 138.718 316.752 142.126C317.117 145.534 318.122 149.08 320.202 150.826C322.805 153.012 326.624 151.196 327.792 147.218C328.364 145.266 328.345 143.064 328.773 141.039C329.528 137.472 331.564 134.825 333.178 131.899C334.793 128.973 336.064 124.999 334.99 121.603Z" fill="#008397"/>
<path d="M308.185 86.5515C308.438 86.7854 308.674 87.0372 308.892 87.3049C309.117 87.6946 309.231 88.1385 309.224 88.5889C309.216 89.0394 309.086 89.4791 308.848 89.8609C309.175 89.8422 309.494 89.7556 309.786 89.6067C310.078 89.4577 310.336 89.2495 310.543 88.9954C311.038 88.4289 311.474 87.8125 311.843 87.1561C312.016 86.9313 312.14 86.672 312.206 86.3954C312.272 86.1187 312.279 85.8312 312.226 85.5517C312.098 85.1843 311.795 85.0276 311.582 84.7512C311.288 84.211 311.087 83.6244 310.988 83.0165C310.87 82.4468 310.597 81.9213 310.198 81.4992C309.799 81.0771 309.291 80.775 308.731 80.627L308.867 80.6531C308.636 80.791 308.453 80.9982 308.345 81.2457C308.236 81.4932 308.208 81.7685 308.263 82.033C308.345 82.5675 308.687 83.0113 308.653 83.5565C308.604 84.3404 307.824 84.7083 307.776 85.4923C307.769 85.8856 307.916 86.2661 308.185 86.5515Z" fill="#008397"/>
<path d="M303.536 73.2318L303.548 73.2294C303.632 73.1525 303.71 73.0691 303.781 72.98L303.536 73.2318Z" fill="#008397"/>
<path d="M304.351 76.9089C304.677 76.6217 304.918 76.2501 305.047 75.8346C305.177 75.4191 305.191 74.9758 305.087 74.553C304.89 73.6616 304.193 73.0623 303.549 73.2269C303.363 73.417 303.131 73.5563 302.876 73.6317C302.621 73.7071 302.351 73.7162 302.092 73.658C301.694 73.5551 301.258 73.2902 300.913 73.5913C300.715 73.8161 300.577 74.087 300.511 74.3793C300.383 74.7731 300.255 75.1668 300.128 75.5605C300.067 75.7015 300.051 75.8578 300.082 76.0082C300.107 76.0684 300.146 76.1213 300.197 76.1618C300.248 76.2023 300.308 76.229 300.372 76.2394C301.138 76.4663 301.904 76.6931 302.67 76.92C302.934 77.0421 303.221 77.1044 303.512 77.1025C303.802 77.1006 304.089 77.0345 304.351 76.9089Z" fill="#008397"/>
<path d="M362.183 127.71C361.829 127.127 361.475 126.545 361.121 125.963C360.773 125.288 360.297 124.688 359.721 124.197C359.596 124.092 359.452 124.012 359.296 123.963C359.141 123.914 358.977 123.896 358.815 123.911C358.653 123.925 358.495 123.971 358.351 124.047C358.206 124.123 358.078 124.226 357.973 124.352L357.955 124.374L357.998 124.707C358.946 125.728 359.592 126.995 359.864 128.365C359.945 128.96 359.917 129.576 359.987 130.174C359.995 130.451 360.057 130.724 360.169 130.977C360.282 131.23 360.443 131.459 360.643 131.649C361.201 132.024 361.856 131.472 362.253 130.798C362.607 130.245 362.766 129.589 362.704 128.934C362.616 128.494 362.438 128.078 362.183 127.71Z" fill="#008397"/>
<path d="M367.738 128.469C367.806 127.924 367.762 127.37 367.609 126.843C367.583 126.129 367.772 125.424 368.149 124.819C368.525 124.248 368.809 123.622 368.992 122.963C369.069 122.663 369.055 122.346 368.952 122.054C368.834 121.79 368.55 121.669 368.388 121.879L368.736 122.104C368.266 122.02 367.782 122.043 367.322 122.173C367.059 122.274 366.825 122.437 366.638 122.648C366.452 122.86 366.318 123.113 366.25 123.387C366.192 123.814 366.098 124.235 365.969 124.646C365.761 125.076 365.359 125.218 365.106 125.595C364.933 125.929 364.846 126.301 364.852 126.677C364.859 127.054 364.958 127.422 365.141 127.75C365.459 128.287 365.964 128.686 366.558 128.87C366.983 129.023 367.544 129.031 367.738 128.469Z" fill="#008397"/>
<path d="M377.63 131.467C377.784 131.87 377.99 132.25 378.243 132.598C378.717 133.077 379.361 132.782 379.935 132.666C380.457 132.583 380.991 132.644 381.481 132.841C381.97 133.039 382.398 133.365 382.718 133.787C382.495 132.671 382.009 131.624 381.3 130.736C380.591 129.848 379.68 129.143 378.644 128.681C377.298 128.213 375.879 127.99 374.455 128.023L374.212 128.086C374.832 129.899 376.778 129.858 377.63 131.467Z" fill="#008397"/>
<path d="M335.73 135.176L335.734 135.184L335.805 135.046L335.73 135.176Z" fill="#008397"/>
<path d="M334.23 138.093C333.903 138.69 333.621 139.311 333.388 139.951C333.079 140.988 332.875 142.053 332.778 143.131C332.702 143.743 332.678 144.526 333.06 144.824C333.17 144.898 333.303 144.928 333.433 144.91C333.564 144.893 333.683 144.828 333.769 144.728C333.982 144.502 334.155 144.243 334.284 143.96C335.035 142.661 335.618 141.27 336.019 139.823C336.437 138.287 336.337 136.655 335.735 135.183C335.233 136.153 334.732 137.123 334.23 138.093Z" fill="#008397"/>
<path d="M319.753 60.3428C319.991 60.5769 320.293 60.7358 320.62 60.7999C320.947 60.8641 321.286 60.8307 321.594 60.7038C322.233 60.4232 322.819 60.0343 323.327 59.5541C323.747 59.2416 324.104 58.8508 324.377 58.403C324.528 58.1354 324.624 57.8405 324.661 57.5354C324.698 57.2302 324.675 56.9207 324.592 56.6247C324.475 56.341 324.287 56.0922 324.047 55.9016C323.808 55.711 323.523 55.585 323.222 55.5355C322.371 55.2822 321.521 55.0289 320.671 54.7756L321.286 54.2186C320.653 53.8774 319.953 54.5107 319.557 55.2947C319.304 55.8066 319.127 56.3535 319.033 56.9175C318.898 57.5067 318.893 58.1183 319.017 58.7098C319.142 59.3013 319.393 59.8585 319.753 60.3428Z" fill="#008397"/>
<path d="M334.764 55.2793C335.004 55.5447 335.335 55.7086 335.69 55.7377C336.046 55.7667 336.399 55.6588 336.678 55.4358C336.919 55.2545 337.118 55.0243 337.264 54.7603C337.41 54.4963 337.499 54.2044 337.525 53.9036C337.585 53.2316 337.255 52.4848 336.782 52.4267L336.891 51.7976C335.981 51.6325 334.861 51.5994 334.373 52.7095C334.209 53.1347 334.158 53.5959 334.227 54.0468C334.296 54.4978 334.481 54.9228 334.764 55.2793Z" fill="#008397"/>
<g opacity="0.35">
<path d="M478.713 109.437C483.734 107.238 473.551 105.957 461.998 105.536C450.444 105.115 436.468 105.139 429.085 103.941C421.944 102.783 422.471 100.724 421.87 98.8582C421.269 96.9926 418.524 95.0796 407.382 94.6649C393.497 94.1481 370.6 96.1374 360.119 94.9431C350.338 93.8286 356.152 90.3327 341.89 90.1989C333.745 90.1225 323.253 91.275 314.191 91.5532C307.767 91.8331 301.332 91.496 294.972 90.5465C290.555 89.8195 287.478 88.8978 282.507 88.2556C269.456 86.5696 243.921 87.1363 221.13 89.2971C198.34 91.4579 178.804 94.9991 167.786 98.5065C156.769 102.014 153.725 105.467 156.291 108.396C157.93 110.265 162.124 112.014 172.296 112.765C191.324 114.171 225.2 111.752 244.862 113.03C255.82 113.743 260.682 115.51 270.296 116.477C280.626 117.515 295.747 117.571 310.604 117.546C341.537 117.495 373.262 117.175 405.612 116.59C419.124 116.345 433.281 116.027 447.659 114.862C462.037 113.696 476.702 111.447 479.735 109.339" fill="white"/>
</g>
<path d="M391.414 206.586C384.394 206.586 376.699 206.319 368.331 205.786C325.044 203.025 268.975 193.424 210.451 178.752C151.928 164.081 97.9419 146.091 58.4388 128.098C39.1956 119.333 24.4266 111.036 14.5424 103.437C4.07769 95.3928 -0.499748 88.3808 0.936763 82.5969C3.73574 71.3288 28.5195 68.8635 48.8177 68.7798L48.8246 70.4185C20.9498 70.5334 4.50512 74.9996 2.51958 82.9938C-0.00966014 93.1756 20.6177 109.071 59.1123 126.605C98.5286 144.559 152.415 162.514 210.846 177.163C269.277 191.811 325.243 201.395 368.434 204.151C410.614 206.843 436.258 202.546 438.787 192.364C440.886 183.911 427.044 171.457 399.809 157.297L400.558 155.842C420.348 166.131 443.318 180.888 440.369 192.761C438.933 198.545 431.613 202.574 418.613 204.736C411.203 205.968 402.101 206.586 391.414 206.586Z" fill="#008397"/>
<path d="M123.555 208.72C104.199 208.721 86.2054 208.053 70.0965 206.707C49.0406 204.947 32.3553 202.117 20.5048 198.297C7.95782 194.252 1.30139 189.193 0.720253 183.26C-0.412288 171.703 22.1064 161.015 41.1967 154.084L41.751 155.626C15.5352 165.143 1.54008 174.9 2.34342 183.1C3.36658 193.544 28.1108 201.553 70.2316 205.074C113.361 208.679 170.12 207.402 230.053 201.474C289.985 195.548 345.903 185.685 387.505 173.701C428.134 161.997 450.85 149.295 449.827 138.852C448.977 130.181 431.774 123.124 401.387 118.981L401.606 117.357C423.686 120.368 450.257 126.513 451.45 138.691C452.031 144.624 446.484 150.89 434.963 157.314C424.081 163.383 408.265 169.426 387.955 175.276C346.261 187.287 290.24 197.169 230.212 203.105C192.556 206.829 156.135 208.72 123.555 208.72Z" fill="#008397"/>
<path d="M238.741 243.331C243.991 243.331 248.246 239.056 248.246 233.782C248.246 228.507 243.991 224.232 238.741 224.232C233.491 224.232 229.235 228.507 229.235 233.782C229.235 239.056 233.491 243.331 238.741 243.331Z" fill="#008397"/>
<path d="M51.5555 186.951C56.8053 186.951 61.0611 182.675 61.0611 177.401C61.0611 172.127 56.8053 167.851 51.5555 167.851C46.3056 167.851 42.0498 172.127 42.0498 177.401C42.0498 182.675 46.3056 186.951 51.5555 186.951Z" fill="#E6E6E6"/>
<path d="M226.087 40.5708C229.3 40.5708 231.905 37.9535 231.905 34.7248C231.905 31.4962 229.3 28.8789 226.087 28.8789C222.873 28.8789 220.268 31.4962 220.268 34.7248C220.268 37.9535 222.873 40.5708 226.087 40.5708Z" fill="#FF6584"/>
<path d="M190.877 84.7011C196.127 84.7011 200.383 80.4255 200.383 75.1513C200.383 69.8771 196.127 65.6016 190.877 65.6016C185.627 65.6016 181.372 69.8771 181.372 75.1513C181.372 80.4255 185.627 84.7011 190.877 84.7011Z" fill="#E6E6E6"/>
</g>
<defs>
<clipPath id="clip0_2154_42614">
<rect width="451" height="321" fill="white" transform="translate(0.679199)"/>
</clipPath>
</defs>
</svg>
